<svg id="Capa_1" data-name="Capa 1" xmlns="http://www.w3.org/2000/svg" xmlns:xlink="http://www.w3.org/1999/xlink" viewBox="0 0 1521.26 1695.76"><defs><style>.cls-1,.cls-28,.cls-8{fill:#fff;}.cls-2{fill:#e4e4e4;}.cls-3{fill:#d1d1d1;}.cls-13,.cls-14,.cls-21,.cls-22,.cls-23,.cls-24,.cls-25,.cls-26,.cls-4{fill:none;}.cls-4{stroke:#d1d1d1;stroke-width:20px;}.cls-13,.cls-21,.cls-22,.cls-23,.cls-24,.cls-25,.cls-26,.cls-27,.cls-28,.cls-4{stroke-miterlimit:10;}.cls-5,.cls-6{fill:#00277c;}.cls-6{font-size:28.78px;}.cls-17,.cls-19,.cls-6{font-family:'Poppins', sans-serif;font-weight:300;}.cls-27,.cls-7{fill:#67277c;}.cls-8{font-size:35px;}.cls-16,.cls-8{font-family:'Poppins', sans-serif;}.cls-9{letter-spacing:-0.1em;}.cls-10{letter-spacing:0em;}.cls-11{opacity:0.31;fill:url(#Degradado_sin_nombre_2);}.cls-12{fill:url(#Degradado_sin_nombre_2-2);}.cls-13,.cls-14{stroke-width:35px;}.cls-13{opacity:0.33;stroke:url(#Degradado_sin_nombre_2-3);}.cls-14{stroke-linecap:round;stroke-linejoin:round;stroke:url(#Degradado_sin_nombre_2-4);}.cls-15{fill:url(#Degradado_sin_nombre_2-5);}.cls-16{font-size:33.48px;}.cls-16,.cls-17,.cls-18,.cls-19{fill:#362f70;}.cls-17{font-size:23.36px;}.cls-19{font-size:23.44px;}.cls-20{opacity:0.5;}.cls-21,.cls-22,.cls-24,.cls-25,.cls-26{stroke-width:15px;}.cls-21{stroke:url(#Degradado_sin_nombre_2-6);}.cls-22{stroke:url(#Degradado_sin_nombre_2-7);}.cls-23,.cls-27,.cls-28{stroke:#67277c;}.cls-23{stroke-width:5px;}.cls-24{stroke:url(#Degradado_sin_nombre_2-8);}.cls-25{stroke:url(#Degradado_sin_nombre_2-9);}.cls-26{stroke:url(#Degradado_sin_nombre_2-10);}</style><linearGradient id="Degradado_sin_nombre_2" x1="-10174.02" y1="-1322.71" x2="-8652.16" y2="-1322.71" gradientTransform="translate(10173.42 2926.85)" gradientUnits="userSpaceOnUse"><stop offset="0" stop-color="#69267e"/><stop offset="0.5" stop-color="#512a78"/><stop offset="1" stop-color="#362f70"/></linearGradient><linearGradient id="Degradado_sin_nombre_2-2" x1="-10174.69" y1="-1292.65" x2="-8652.16" y2="-1292.65" xlink:href="#Degradado_sin_nombre_2"/><linearGradient id="Degradado_sin_nombre_2-3" x1="474.03" y1="330.79" x2="1045.96" y2="330.79" gradientTransform="matrix(1, 0, 0, 1, 0, 0)" xlink:href="#Degradado_sin_nombre_2"/><linearGradient id="Degradado_sin_nombre_2-4" x1="474.03" y1="196.56" x2="777.49" y2="196.56" gradientTransform="matrix(1, 0, 0, 1, 0, 0)" xlink:href="#Degradado_sin_nombre_2"/><linearGradient id="Degradado_sin_nombre_2-5" x1="1672.76" y1="317.8" x2="1117.29" y2="-185.77" gradientTransform="matrix(1, 0, 0, 1, 0, 0)" xlink:href="#Degradado_sin_nombre_2"/><linearGradient id="Degradado_sin_nombre_2-6" x1="355.01" y1="945.26" x2="499.09" y2="945.26" gradientTransform="matrix(1, 0, 0, 1, 0, 0)" xlink:href="#Degradado_sin_nombre_2"/><linearGradient id="Degradado_sin_nombre_2-7" x1="374.95" y1="1131.68" x2="476.76" y2="1131.68" gradientTransform="matrix(1, 0, 0, 1, 0, 0)" xlink:href="#Degradado_sin_nombre_2"/><linearGradient id="Degradado_sin_nombre_2-8" x1="377.83" y1="1327.58" x2="475.69" y2="1327.58" gradientTransform="matrix(1, 0, 0, 1, 0, 0)" xlink:href="#Degradado_sin_nombre_2"/><linearGradient id="Degradado_sin_nombre_2-9" x1="377.83" y1="1296.22" x2="475.88" y2="1296.22" gradientTransform="matrix(1, 0, 0, 1, 0, 0)" xlink:href="#Degradado_sin_nombre_2"/><linearGradient id="Degradado_sin_nombre_2-10" x1="448.91" y1="1264.21" x2="450.06" y2="1264.21" gradientTransform="matrix(1, 0, 0, 1, 0, 0)" xlink:href="#Degradado_sin_nombre_2"/></defs><rect class="cls-1" width="1519.98" height="1694.76"/><rect class="cls-2" x="539.95" y="907.48" width="486" height="99.74" rx="10.19"/><rect class="cls-2" x="539.95" y="1089.6" width="486" height="99.74" rx="10.19"/><rect class="cls-3" x="539.95" y="1266.31" width="486" height="99.74" rx="10.19"/><rect class="cls-4" x="451.95" y="669.36" width="284.96" height="114.8" rx="29.16"/><path class="cls-5" d="M600.05,280.32c3.13,1.79,10.56,5,17.87,5,9.31,0,14.06-4.76,14-10.85,0-8.1-7.56-11.76-15.49-11.79h-7.32V248.94h7c6,0,13.61-2.5,13.61-9.38,0-4.88-3.72-8.55-11.3-8.55-6.31,0-12.91,2.89-16,4.9l-3.69-13.77c4.64-3.18,13.81-6.19,23.77-6.19C639,216,648,225.12,648,236.34c0,8.58-4.63,15.44-14,18.95v.25c9.21,1.76,16.65,9.15,16.65,19.9,0,14.42-12,25-31.42,25-10,0-18.35-2.72-22.8-5.72Z"/><path class="cls-5" d="M719.22,257.84c0,25.17-9.6,42.56-29.18,42.56-19.88,0-28.65-18.94-28.73-42,0-23.74,9.37-42.41,29.24-42.41C711.09,216,719.22,235.44,719.22,257.84Zm-39.92.44c0,18.8,4.23,27.69,11.1,27.69s10.84-9.33,10.84-27.89c0-18.11-3.72-27.63-10.88-27.63C683.75,230.45,679.28,239.27,679.3,258.28Z"/><path class="cls-5" d="M822.11,266.62c-.37-10.26-.73-22.47-.69-34.89h-.33c-2.54,10.84-5.88,22.88-8.88,32.88l-9.76,33h-14l-8.59-32.73c-2.57-10-5.21-22-7.19-33.17h-.25c-.39,11.52-.83,24.6-1.31,35.15L769.63,299H753l5.09-84.7h24l7.77,28.31c2.51,9.71,5,20.35,6.75,30.28H797c2.18-9.81,4.88-21,7.58-30.41L813,214.32h23.57l4.27,84.7H823.35Z"/><path class="cls-5" d="M854.78,215.48c4.73-1,14.22-1.82,23.24-1.82,11,0,17.74,1.15,23.56,4.75a18.55,18.55,0,0,1,9.5,16.7c0,7.45-4.11,14.47-13.08,18v.32c9.09,2.54,15.85,9.92,15.85,20.76a23,23,0,0,1-8.28,18c-5.84,5-15.46,7.71-31.32,7.71a130.65,130.65,0,0,1-19.47-1.25Zm17.85,32.43h5.84c9.54,0,14.52-4.21,14.52-10.5,0-6.44-4.59-9.83-12.73-9.83a36.31,36.31,0,0,0-7.63.59Zm0,37.48a41.83,41.83,0,0,0,6.91.34c8.17,0,15.37-3.36,15.37-12.28,0-8.48-7.15-11.87-16.13-11.87h-6.15Z"/><text class="cls-6" transform="translate(591.88 362.28) scale(0.94 1)">INTERNET FIBRA ÓPTICA</text><rect class="cls-7" x="612.37" y="395.05" width="295.24" height="68.01" rx="21.23"/><text class="cls-8" transform="translate(668.05 441.15) scale(0.94 1)">SOLICI<tspan class="cls-9" x="123.04" y="0">T</tspan><tspan class="cls-10" x="142.92" y="0">AR</tspan></text><path class="cls-11" d="M1521.26,1695.76v-52.52S1300.58,1418.88,787.45,1558c-341.26,92.53-548.73,88.83-788.05-25.91v163.65Z"/><path class="cls-12" d="M1521.26,1695.76v-52.52s-312.6-141.31-733.81-24.14c-340.87,94.82-548.73,89.22-788.05-25.53,0,0-.68,94.16-.68,102.19Z"/><circle class="cls-13" cx="759.99" cy="330.79" r="268.46"/><path class="cls-14" d="M491.53,330.79C491.53,182.52,611.72,62.33,760,62.33"/><path class="cls-15" d="M1200.81.41S1274.93,224.12,1521,289.86V.41Z"/><path class="cls-1" d="M1281,108.78a17,17,0,0,0,8,2.13c3.32,0,5.08-1.46,5.08-3.7,0-2.09-1.53-3.32-5.35-4.75-5.33-2-8.82-5.1-8.82-10.06,0-5.8,4.58-10.21,12.09-10.21a18,18,0,0,1,8.16,1.71l-1.59,6.17a14.53,14.53,0,0,0-6.68-1.62c-3.14,0-4.65,1.55-4.65,3.29,0,2.16,1.78,3.11,5.92,4.78,5.66,2.25,8.28,5.37,8.28,10.18,0,5.67-4.09,10.54-12.88,10.54a19.69,19.69,0,0,1-9-2.11Z"/><path class="cls-1" d="M1304,118.73l10.15-36.56h4.79l-10.18,36.56Z"/><path class="cls-1" d="M1321.25,112.62c0-2.74,1.77-4.67,4.27-4.67s4.22,1.88,4.24,4.67-1.7,4.65-4.26,4.65S1321.25,115.32,1321.25,112.62Z"/><path class="cls-1" d="M1397.85,60V70.88l-28.64,63H1352l28.63-59.41v-.23h-31.85V60Z"/><path class="cls-1" d="M1453.71,74.23h-27l-1.5,11.31a36.39,36.39,0,0,1,4.5-.24c6.63,0,13.44,1.65,18.33,5.33,5.23,3.81,8.42,10,8.42,18.58,0,13.8-11.1,25.92-29.83,25.92-8.42,0-15.45-2.06-19.35-4.19l3-13a37.1,37.1,0,0,0,15.64,3.7c6.76,0,13.92-3.44,13.91-11.3,0-7.57-5.71-12.27-19.56-12.27a61.83,61.83,0,0,0-9.35.69l4.5-38.76h38.29Z"/><text class="cls-16" transform="translate(550.13 885.7)">V. CONTRATADA</text><text class="cls-17" transform="translate(538.78 709.47)">V. DE SUBIDA</text><text class="cls-16" transform="translate(547.3 1072.06)">V. GARANTIZADA</text><path class="cls-18" d="M666.85,965.92a19.5,19.5,0,0,0,8.66,2.4c4.5,0,6.8-2.3,6.79-5.25,0-3.92-3.66-5.69-7.5-5.71h-3.54v-6.63h3.39c2.92,0,6.59-1.21,6.59-4.54,0-2.37-1.8-4.14-5.47-4.14a15.86,15.86,0,0,0-7.76,2.37l-1.79-6.67c2.25-1.54,6.69-3,11.51-3,7.95,0,12.34,4.43,12.34,9.87,0,4.15-2.24,7.47-6.79,9.17v.12a9.62,9.62,0,0,1,8.06,9.63c0,7-5.79,12.09-15.21,12.09-4.83,0-8.89-1.32-11-2.77Z"/><path class="cls-18" d="M724.55,955c0,12.19-4.65,20.61-14.13,20.61s-13.87-9.17-13.91-20.36c0-11.48,4.54-20.52,14.16-20.52C720.61,934.76,724.55,944.19,724.55,955Zm-19.33.22c0,9.1,2,13.4,5.37,13.4s5.25-4.51,5.25-13.5c0-8.77-1.8-13.37-5.26-13.37C707.38,941.78,705.21,946,705.22,955.25Z"/><path class="cls-18" d="M774.36,959.29c-.18-5-.36-10.89-.34-16.9h-.15c-1.23,5.25-2.86,11.08-4.31,15.92l-4.72,16h-6.78l-4.15-15.85c-1.24-4.83-2.53-10.65-3.48-16.06h-.12c-.19,5.58-.41,11.91-.64,17L749,975h-8.07l2.47-41H755l3.76,13.7c1.22,4.7,2.41,9.85,3.27,14.66h.18c1.06-4.75,2.36-10.16,3.67-14.72L770,934h11.4l2.07,41H775Z"/><path class="cls-18" d="M789.63,975c.12-2,.22-5.52.22-8.9v-34.3h8.71v17h.12a9.63,9.63,0,0,1,8.45-4.22c6.73,0,11.62,5.91,11.55,15,0,10.72-6.39,16.08-12.8,16.08a9,9,0,0,1-8.38-4.82h-.12L797,975Zm8.93-12.64a7.45,7.45,0,0,0,.16,1.63,5.41,5.41,0,0,0,5.12,4.41c3.7,0,6-3.07,6-8.42,0-4.63-2-8.29-6-8.29a5.44,5.44,0,0,0-5.12,4.57,8.54,8.54,0,0,0-.18,1.71Z"/><path class="cls-18" d="M824.07,955.2c0-3.92-.11-7.22-.23-10h7.57l.4,4.17h.12a10.62,10.62,0,0,1,9.32-4.84c6.13,0,11.64,5.67,11.64,15.17,0,10.86-6.51,15.95-12.74,15.95-3.34,0-6-1.43-7.26-3.4h-.11V987h-8.71Zm8.71,7a8.92,8.92,0,0,0,.18,1.93,5.37,5.37,0,0,0,5.08,4.4c3.76,0,6-3.37,6-8.43,0-4.73-2-8.35-5.87-8.35a5.55,5.55,0,0,0-5.2,4.68,7,7,0,0,0-.2,1.66Z"/><path class="cls-18" d="M858.25,966.9a16.19,16.19,0,0,0,7.47,2.22c2.63,0,3.75-.94,3.75-2.46s-.89-2.29-4.11-3.45c-5.82-2-8-5.4-8-8.89,0-5.6,4.44-9.8,11.39-9.8a17.6,17.6,0,0,1,7.89,1.74l-1.52,6.37a13.66,13.66,0,0,0-6.07-1.68c-2.12,0-3.34.9-3.34,2.4s1.11,2.18,4.54,3.44c5.32,1.92,7.54,4.82,7.58,9.17,0,5.55-4.08,9.65-12.1,9.65a19,19,0,0,1-9.07-2.1Z"/><path class="cls-18" d="M662.49,1155.68v-5.6l4.79-4.6c8.14-7.77,12.1-12.19,12.17-16.81,0-3.21-1.78-5.77-6.09-5.77-3.2,0-6,1.71-8,3.25l-2.44-6.61a19.73,19.73,0,0,1,12.15-4.08c8.45,0,13,5.24,13,12.39,0,6.64-4.47,12-9.89,17.05l-3.45,3v.12h14.07v7.63Z"/><path class="cls-18" d="M705.32,1124.37h-.11l-7.07,3.57L696.7,1121l9.86-4.87h7.18v39.55h-8.42Z"/><path class="cls-18" d="M771.53,1140c-.18-5-.35-10.88-.33-16.89H771c-1.23,5.25-2.85,11.08-4.3,15.92L762,1155h-6.78l-4.15-15.84c-1.25-4.83-2.53-10.65-3.49-16.06h-.12c-.19,5.58-.4,11.91-.63,17l-.72,15.57h-8.07l2.47-41h11.62l3.76,13.71c1.22,4.7,2.41,9.85,3.27,14.66h.19c1-4.75,2.36-10.16,3.67-14.73l4.09-13.64h11.41l2.07,41h-8.48Z"/><path class="cls-18" d="M786.8,1155.68c.12-2,.23-5.52.23-8.9v-34.3h8.71v17h.11a9.64,9.64,0,0,1,8.45-4.22c6.73,0,11.63,5.91,11.56,15,0,10.73-6.39,16.08-12.81,16.08a9,9,0,0,1-8.37-4.81h-.12l-.37,4.15Zm8.94-12.64a8,8,0,0,0,.15,1.62,5.41,5.41,0,0,0,5.13,4.41c3.69,0,6-3.06,6-8.42,0-4.63-1.95-8.28-6-8.28a5.43,5.43,0,0,0-5.11,4.57,8.38,8.38,0,0,0-.18,1.71Z"/><path class="cls-18" d="M821.25,1135.9c0-3.91-.11-7.21-.23-10h7.57l.4,4.17h.11a10.62,10.62,0,0,1,9.33-4.84c6.13,0,11.64,5.66,11.64,15.17,0,10.85-6.51,15.94-12.74,15.94-3.35,0-6-1.43-7.26-3.39H830v14.77h-8.71Zm8.71,7a9.76,9.76,0,0,0,.17,1.93,5.36,5.36,0,0,0,5.09,4.39c3.76,0,6-3.37,6-8.42,0-4.74-2-8.35-5.87-8.35a5.57,5.57,0,0,0-5.21,4.68,7,7,0,0,0-.19,1.65Z"/><path class="cls-18" d="M855.43,1147.61a16.15,16.15,0,0,0,7.47,2.21c2.62,0,3.75-.94,3.75-2.46s-.89-2.29-4.11-3.44c-5.82-2-8-5.4-8-8.9,0-5.59,4.44-9.79,11.38-9.79a17.71,17.71,0,0,1,7.89,1.73l-1.51,6.38a13.66,13.66,0,0,0-6.07-1.68c-2.13,0-3.34.9-3.34,2.4s1.11,2.18,4.54,3.44c5.31,1.91,7.54,4.82,7.57,9.16,0,5.56-4.07,9.65-12.1,9.65a19,19,0,0,1-9.07-2.09Z"/><path class="cls-18" d="M545.16,752v-3.91l3.33-3.2c5.68-5.41,8.44-8.49,8.48-11.72,0-2.23-1.24-4-4.24-4a9.27,9.27,0,0,0-5.55,2.27l-1.7-4.61A13.8,13.8,0,0,1,554,724c5.89,0,9.08,3.65,9.08,8.64,0,4.62-3.11,8.34-6.89,11.87l-2.4,2.12v.09h9.81V752Z"/><path class="cls-18" d="M575,730.21h-.07L570,732.7l-1-4.84,6.88-3.39h5V752H575Z"/><path class="cls-18" d="M621.14,741.1c-.12-3.47-.24-7.59-.23-11.78h-.11c-.86,3.66-2,7.72-3,11.1l-3.29,11.14h-4.72l-2.89-11c-.87-3.37-1.76-7.43-2.43-11.2h-.08c-.14,3.89-.29,8.3-.45,11.86l-.5,10.85h-5.62l1.72-28.58h8.1l2.62,9.55c.85,3.28,1.68,6.87,2.28,10.22h.13c.73-3.31,1.64-7.08,2.55-10.26l2.86-9.51H626L627.47,752h-5.91Z"/><path class="cls-18" d="M631.78,752c.09-1.38.16-3.85.16-6.2V721.92H638v11.83h.08a6.7,6.7,0,0,1,5.89-2.94c4.69,0,8.1,4.12,8,10.48,0,7.47-4.45,11.2-8.92,11.2a6.3,6.3,0,0,1-5.84-3.35h-.08l-.26,2.89Zm6.23-8.81a5.55,5.55,0,0,0,.11,1.13,3.77,3.77,0,0,0,3.57,3.08c2.58,0,4.18-2.14,4.18-5.87,0-3.23-1.35-5.78-4.17-5.78a3.79,3.79,0,0,0-3.56,3.19,5.56,5.56,0,0,0-.13,1.19Z"/><path class="cls-18" d="M655.79,738.25c0-2.73-.08-5-.16-7h5.27l.28,2.91h.08a7.41,7.41,0,0,1,6.5-3.37c4.27,0,8.11,4,8.11,10.57,0,7.56-4.53,11.11-8.87,11.11a5.88,5.88,0,0,1-5.06-2.36h-.08v10.29h-6.07Zm6.07,4.89a6.34,6.34,0,0,0,.12,1.35,3.73,3.73,0,0,0,3.55,3.06c2.61,0,4.18-2.35,4.18-5.87,0-3.3-1.39-5.82-4.09-5.82a3.88,3.88,0,0,0-3.63,3.26,4.89,4.89,0,0,0-.13,1.15Z"/><path class="cls-18" d="M679.61,746.4a11.22,11.22,0,0,0,5.2,1.55c1.83,0,2.62-.66,2.62-1.72s-.62-1.59-2.87-2.4c-4-1.41-5.58-3.76-5.56-6.2,0-3.9,3.09-6.82,7.94-6.82a12.23,12.23,0,0,1,5.49,1.21l-1,4.44a9.5,9.5,0,0,0-4.23-1.17c-1.48,0-2.33.63-2.33,1.67s.77,1.52,3.17,2.4c3.7,1.33,5.25,3.36,5.27,6.39,0,3.87-2.84,6.72-8.43,6.72a13.26,13.26,0,0,1-6.32-1.46Z"/><text class="cls-16" transform="translate(545.19 1247.7)">V. REGULADA</text><text class="cls-19" transform="translate(875.16 715.12)">V. DE BAJADA</text><path class="cls-18" d="M671.45,1298h-.12l-7.07,3.57-1.44-6.94,9.86-4.87h7.18v39.54h-8.41Z"/><path class="cls-18" d="M692.13,1329.32v-5.6l4.79-4.59c8.14-7.77,12.1-12.19,12.17-16.82,0-3.21-1.78-5.76-6.09-5.76-3.2,0-6,1.7-8,3.25l-2.44-6.61a19.73,19.73,0,0,1,12.15-4.08c8.45,0,13,5.24,13,12.39,0,6.64-4.47,12-9.89,17l-3.45,3v.12h14.07v7.62Z"/><path class="cls-18" d="M769.42,1313.64c-.18-5-.36-10.88-.34-16.89h-.16c-1.23,5.25-2.85,11.07-4.3,15.91l-4.72,16h-6.78L749,1312.81c-1.25-4.83-2.53-10.66-3.48-16.06h-.12c-.19,5.57-.41,11.9-.64,17l-.72,15.56h-8.07l2.47-41H750l3.77,13.7c1.21,4.7,2.4,9.86,3.27,14.66h.18c1.06-4.74,2.36-10.15,3.67-14.72l4.1-13.64h11.4l2.07,41H770Z"/><path class="cls-18" d="M784.68,1329.32c.12-2,.23-5.51.23-8.89v-34.3h8.71v17h.12a9.61,9.61,0,0,1,8.45-4.22c6.73,0,11.62,5.91,11.55,15,0,10.73-6.39,16.08-12.81,16.08a9.05,9.05,0,0,1-8.37-4.81h-.12l-.37,4.14Zm8.94-12.63a8,8,0,0,0,.15,1.62,5.42,5.42,0,0,0,5.13,4.41c3.7,0,6-3.07,6-8.42,0-4.63-1.94-8.28-6-8.28a5.44,5.44,0,0,0-5.12,4.56,8.56,8.56,0,0,0-.18,1.72Z"/><path class="cls-18" d="M819.13,1309.55c0-3.91-.11-7.21-.23-10h7.57l.4,4.16H827a10.61,10.61,0,0,1,9.32-4.83c6.13,0,11.64,5.66,11.64,15.16,0,10.86-6.51,16-12.74,16-3.34,0-6-1.43-7.26-3.39h-.11v14.77h-8.71Zm8.71,7a9.76,9.76,0,0,0,.17,1.93,5.38,5.38,0,0,0,5.09,4.39c3.76,0,6-3.37,6-8.42,0-4.74-2-8.36-5.87-8.36a5.55,5.55,0,0,0-5.2,4.69,6.9,6.9,0,0,0-.2,1.65Z"/><path class="cls-18" d="M853.31,1321.26a16.31,16.31,0,0,0,7.47,2.21c2.63,0,3.75-.94,3.75-2.46s-.89-2.29-4.11-3.44c-5.82-2-8-5.41-8-8.9,0-5.59,4.44-9.79,11.39-9.79a17.56,17.56,0,0,1,7.88,1.73L870.2,1307a13.53,13.53,0,0,0-6.07-1.68c-2.12,0-3.34.9-3.34,2.4s1.11,2.17,4.54,3.43c5.32,1.92,7.54,4.83,7.58,9.17,0,5.56-4.08,9.65-12.11,9.65a19.06,19.06,0,0,1-9.06-2.09Z"/><path class="cls-18" d="M896,732.65h-.08l-5,2.5-1-4.85,6.9-3.41h5v27.68H896Z"/><path class="cls-18" d="M910.44,754.57v-3.92l3.35-3.22c5.7-5.44,8.47-8.53,8.52-11.77,0-2.25-1.25-4-4.26-4a9.32,9.32,0,0,0-5.58,2.28l-1.71-4.63a13.84,13.84,0,0,1,8.51-2.85c5.91,0,9.13,3.66,9.13,8.67,0,4.65-3.13,8.38-6.93,11.93l-2.41,2.13v.08h9.85v5.34Z"/><path class="cls-18" d="M964.54,743.59c-.13-3.48-.25-7.62-.24-11.82h-.1c-.87,3.67-2,7.75-3,11.14l-3.3,11.19h-4.75L950.23,743c-.88-3.38-1.77-7.46-2.44-11.24h-.09c-.13,3.9-.28,8.33-.44,11.9l-.51,10.9h-5.64l1.73-28.71H951l2.64,9.6c.85,3.29,1.68,6.9,2.28,10.26H956c.74-3.32,1.66-7.11,2.57-10.31l2.87-9.55h8l1.45,28.71H965Z"/><path class="cls-18" d="M975.23,754.57c.08-1.38.16-3.86.16-6.23v-24h6.1v11.88h.08a6.74,6.74,0,0,1,5.91-3c4.71,0,8.14,4.14,8.09,10.53,0,7.51-4.47,11.26-9,11.26a6.32,6.32,0,0,1-5.86-3.38h-.09l-.26,2.91Zm6.26-8.85a5.69,5.69,0,0,0,.1,1.14,3.8,3.8,0,0,0,3.59,3.08c2.59,0,4.2-2.14,4.2-5.89,0-3.24-1.36-5.8-4.19-5.8a3.81,3.81,0,0,0-3.58,3.2,6.51,6.51,0,0,0-.12,1.2Z"/><path class="cls-18" d="M999.34,740.73c0-2.74-.07-5.05-.16-7h5.3l.28,2.92h.08a7.45,7.45,0,0,1,6.53-3.39c4.29,0,8.15,4,8.15,10.62,0,7.6-4.56,11.17-8.92,11.17a5.9,5.9,0,0,1-5.08-2.38h-.08V763h-6.1Zm6.1,4.92a7.14,7.14,0,0,0,.12,1.35,3.76,3.76,0,0,0,3.57,3.07c2.63,0,4.2-2.36,4.2-5.89,0-3.32-1.39-5.85-4.11-5.85a3.89,3.89,0,0,0-3.64,3.28,4.83,4.83,0,0,0-.14,1.15Z"/><path class="cls-18" d="M1023.28,748.92a11.26,11.26,0,0,0,5.22,1.55c1.84,0,2.63-.66,2.63-1.72s-.63-1.6-2.88-2.41c-4.08-1.43-5.61-3.78-5.59-6.23,0-3.92,3.11-6.86,8-6.86a12.38,12.38,0,0,1,5.53,1.22l-1.07,4.46a9.55,9.55,0,0,0-4.24-1.17c-1.49,0-2.34.63-2.34,1.68s.78,1.52,3.18,2.4c3.72,1.35,5.28,3.38,5.3,6.42,0,3.89-2.85,6.76-8.47,6.76a13.35,13.35,0,0,1-6.35-1.47Z"/><g class="cls-20"><path class="cls-21" d="M489.09,925.14q-11.31-11.39-22.69-22.7a7.88,7.88,0,0,0-2.95-2.09,6.55,6.55,0,0,0-7.25,1.74L442,916.33c-.48.48-.84.93-1.68.42-4.77-2.91-9.38-2.42-13.43,1.4a1.08,1.08,0,0,1-1.6.16,10.24,10.24,0,0,0-11.4,0,1.19,1.19,0,0,1-1.78-.24c-4.58-4.61-9.2-9.19-13.8-13.78-3.55-3.53-7.33-3.53-10.89,0q-11,11-22,22a11.85,11.85,0,0,0-2.88,4.07v3.28a10.23,10.23,0,0,0,2.64,3.92c2,2,4,4,6,6,2.9,2.88,6.09,3.14,9.37.73a.88.88,0,0,1,1.38.09q6.84,6.87,13.71,13.7a.91.91,0,0,1,.1,1.4c-3.11,4.52-1.14,9.77,4.14,11.07a1.34,1.34,0,0,1,1.19,1.19,6.68,6.68,0,0,0,5.41,5.47,1.42,1.42,0,0,1,1.26,1.27,6.64,6.64,0,0,0,5.47,5.39,1.33,1.33,0,0,1,1.19,1.21,6.89,6.89,0,0,0,5.9,5.57,6.79,6.79,0,0,0,7.28-4.21,1.24,1.24,0,0,1,1.51-.85,6.59,6.59,0,0,0,7.14-5.23,1.8,1.8,0,0,1,1.57-1.58,6.28,6.28,0,0,0,5.13-5.37,1.24,1.24,0,0,1,1.16-1.19,6.53,6.53,0,0,0,5.5-5.34,1.45,1.45,0,0,1,1.23-1.3,6.9,6.9,0,0,0,5.66-6.4,2.33,2.33,0,0,1,.6-1.46q7.55-7.5,15-15c.47-.47.79-.54,1.36-.1a6.48,6.48,0,0,0,9.18-.45c2.17-2.1,4.29-4.26,6.42-6.41C492.4,932.24,492.46,928.52,489.09,925.14Zm-110.87,15"/></g><path class="cls-1" d="M487.31,924.49q-11.31-11.38-22.69-22.7a7.81,7.81,0,0,0-3-2.08,6.55,6.55,0,0,0-7.25,1.73q-7.11,7.14-14.23,14.25c-.49.48-.84.93-1.69.41-4.77-2.9-9.38-2.42-13.42,1.4a1.08,1.08,0,0,1-1.6.17,10.24,10.24,0,0,0-11.4,0,1.19,1.19,0,0,1-1.78-.23c-4.58-4.62-9.2-9.2-13.81-13.79-3.54-3.53-7.33-3.52-10.88,0q-11,11-22,22a11.91,11.91,0,0,0-2.87,4.08V933a10,10,0,0,0,2.64,3.92c2,2,4,4,6,6,2.9,2.88,6.09,3.14,9.36.73a.88.88,0,0,1,1.38.09q6.84,6.87,13.71,13.71a.9.9,0,0,1,.11,1.39c-3.11,4.53-1.14,9.78,4.14,11.08a1.34,1.34,0,0,1,1.19,1.19,6.66,6.66,0,0,0,5.41,5.47,1.42,1.42,0,0,1,1.26,1.26,6.66,6.66,0,0,0,5.47,5.4,1.33,1.33,0,0,1,1.19,1.21,6.9,6.9,0,0,0,5.9,5.57,6.81,6.81,0,0,0,7.28-4.21,1.25,1.25,0,0,1,1.51-.86,6.59,6.59,0,0,0,7.14-5.22,1.78,1.78,0,0,1,1.57-1.58,6.31,6.31,0,0,0,5.13-5.37,1.23,1.23,0,0,1,1.16-1.19,6.54,6.54,0,0,0,5.5-5.34,1.44,1.44,0,0,1,1.23-1.31,6.87,6.87,0,0,0,5.65-6.39,2.26,2.26,0,0,1,.61-1.46q7.53-7.51,15-15c.47-.47.79-.54,1.36-.09a6.47,6.47,0,0,0,9.18-.46c2.17-2.1,4.29-4.26,6.41-6.4C490.61,931.6,490.67,927.88,487.31,924.49Zm-110.88,15"/><path class="cls-7" d="M360.72,929.68a11.73,11.73,0,0,1,2.87-4.07q11-11,22-22c3.56-3.55,7.35-3.56,10.89,0,4.61,4.59,9.23,9.16,13.81,13.78a1.19,1.19,0,0,0,1.78.24,10.22,10.22,0,0,1,11.4,0,1.07,1.07,0,0,0,1.59-.17c4.05-3.81,8.66-4.3,13.43-1.4.84.52,1.2.07,1.68-.41l14.24-14.24a6.54,6.54,0,0,1,7.25-1.74,7.8,7.8,0,0,1,3,2.09Q476,913.13,487.3,924.49c3.36,3.39,3.3,7.11-.07,10.5-2.13,2.14-4.24,4.3-6.41,6.4a6.47,6.47,0,0,1-9.18.46c-.57-.45-.89-.38-1.36.1q-7.5,7.53-15,15a2.28,2.28,0,0,0-.61,1.46,6.87,6.87,0,0,1-5.65,6.39,1.45,1.45,0,0,0-1.23,1.31,6.54,6.54,0,0,1-5.51,5.34,1.23,1.23,0,0,0-1.15,1.19,6.29,6.29,0,0,1-5.13,5.37,1.77,1.77,0,0,0-1.57,1.58,6.59,6.59,0,0,1-7.14,5.22c-.78-.05-1.18.08-1.51.86a6.82,6.82,0,0,1-7.29,4.21,6.89,6.89,0,0,1-5.9-5.57,1.31,1.31,0,0,0-1.18-1.21,6.68,6.68,0,0,1-5.48-5.4,1.41,1.41,0,0,0-1.25-1.26,6.66,6.66,0,0,1-5.41-5.47,1.35,1.35,0,0,0-1.19-1.19c-5.28-1.3-7.25-6.55-4.14-11.07a.92.92,0,0,0-.11-1.4q-6.87-6.84-13.71-13.7a.87.87,0,0,0-1.38-.1c-3.27,2.42-6.46,2.15-9.37-.72-2-2-3.95-4-6-6a10,10,0,0,1-2.64-3.93Zm55.72,13.66a7.66,7.66,0,0,1-3.33-.64,6.94,6.94,0,0,1-2-11.28c3-3.09,6-6.1,9.08-9.08.83-.8.56-1.08-.32-1.42a6.05,6.05,0,0,0-6.67,1.6c-1.47,1.57-2.62,1.59-4.16.07-1.32-1.29-2.64-2.58-3.91-3.93-.56-.59-.91-.62-1.51,0q-10.11,10.17-20.29,20.29c-.55.56-.65.92,0,1.52,5,5,10,10,15,14.95a2.28,2.28,0,0,0,1.42.69c3.63.42,5.51,2.06,6.5,5.65a1.33,1.33,0,0,0,1.15,1.11,6.66,6.66,0,0,1,5.49,5.53,1.19,1.19,0,0,0,1.09,1.09,6.77,6.77,0,0,1,5.55,5.49,1.32,1.32,0,0,0,1.21,1.22,7.15,7.15,0,0,1,4,2.22,19.66,19.66,0,0,0,1.55,1.48,2.26,2.26,0,0,0,3.09-.16,2.31,2.31,0,0,0,.25-3.18,10.77,10.77,0,0,0-.87-.92q-6-6-12-12c-1.39-1.39-1.58-2.86-.54-3.84s2.34-.85,3.84.62l.71.71q5.57,5.56,11.13,11.12a6.87,6.87,0,0,0,1.35,1.12,2.23,2.23,0,0,0,2.7-.27,2.15,2.15,0,0,0,.54-2.64,5.29,5.29,0,0,0-1.28-1.69l-11.56-11.57a8.51,8.51,0,0,1-1.15-1.33,2.09,2.09,0,0,1,.33-2.76,2,2,0,0,1,2.64-.36,7.53,7.53,0,0,1,1.45,1.2l11.48,11.47a10.54,10.54,0,0,0,1.22,1.1,2.61,2.61,0,0,0,3.05-.1,2.42,2.42,0,0,0,.29-3,8.71,8.71,0,0,0-1.22-1.43q-5.76-5.79-11.56-11.57a4.87,4.87,0,0,1-1.17-1.47,2.13,2.13,0,0,1,.54-2.53,2,2,0,0,1,2.55-.33,6.51,6.51,0,0,1,1.25,1.05l11.66,11.65a7.83,7.83,0,0,0,1.55,1.27,2.15,2.15,0,0,0,2.77-.3,2.2,2.2,0,0,0,.41-2.88,4.82,4.82,0,0,0-.77-1q-10.18-10.2-20.36-20.4c-.67-.67-1.09-.66-1.73,0-1.78,1.85-3.61,3.64-5.42,5.44A7.36,7.36,0,0,1,416.44,943.34Zm16.24-24.46a5.66,5.66,0,0,0-4.41,1.84q-6.76,6.75-13.52,13.51a4.22,4.22,0,0,0-.72.87,2.33,2.33,0,0,0,2.47,3.55,3.49,3.49,0,0,0,1.88-1.19c2.46-2.46,4.92-4.93,7.39-7.38,1.18-1.16,2.06-1.28,3.38-.56,3.31,1.8,5.54,1.48,8.25-1.19,1.13-1.11,2.33-1.23,3.34-.32s1,2.15,0,3.37a9.44,9.44,0,0,1-5.07,3.33c-1.14.29-.91.58-.28,1.22q8.16,8.12,16.28,16.28c.73.75,1.16.75,1.89,0,4.06-4.13,8.17-8.2,12.26-12.29,1.86-1.86,1.86-1.86,0-3.69q-9.48-9.47-18.94-19c-.72-.72-1.18-.82-1.9,0-1.15,1.27-2.41,2.45-3.63,3.66-1.58,1.55-2.78,1.52-4.28-.08A5.63,5.63,0,0,0,432.68,918.88Zm-41.63-13.31a2.57,2.57,0,0,0-2,1l-22.87,22.87c-1.33,1.33-1.32,2.46,0,3.8q3.11,3.13,6.23,6.23c1.47,1.45,2.48,1.44,4,0q3.34-3.32,6.68-6.67l17.17-17.18c.41-.41,1.07-.73.29-1.48-2.61-2.55-5.17-5.15-7.76-7.72A2.22,2.22,0,0,0,391.05,905.57Zm94,24.13a2.12,2.12,0,0,0-.74-1.66q-11.67-11.65-23.33-23.3c-1.2-1.2-2.2-1.2-3.39,0-2.54,2.5-5,5-7.58,7.54-.64.63-.59,1,0,1.65L474.18,938c1.23,1.23,2.27,1.26,3.5.06,2.23-2.16,4.4-4.38,6.59-6.58A2.26,2.26,0,0,0,485.07,929.7ZM412.68,974a2.19,2.19,0,0,0-2.31,2.26,2.34,2.34,0,1,0,4.67.1A2.25,2.25,0,0,0,412.68,974Zm-13.33-13.33A2.27,2.27,0,0,0,397,963.1a2.31,2.31,0,0,0,2.38,2.25,2.28,2.28,0,0,0,2.3-2.44A2.22,2.22,0,0,0,399.35,960.69Zm20,24.61a2.31,2.31,0,0,0,2.4-2.24,2.44,2.44,0,0,0-2.37-2.44,2.49,2.49,0,0,0-2.41,2.29A2.34,2.34,0,0,0,419.35,985.3ZM406,972a2.32,2.32,0,0,0,2.4-2.36,2.4,2.4,0,0,0-4.8,0A2.32,2.32,0,0,0,406,972Z"/><path class="cls-7" d="M374.4,933.8a2.31,2.31,0,0,1-2.44-2.44,2.46,2.46,0,0,1,2.34-2.47,2.59,2.59,0,0,1,2.56,2.56A2.46,2.46,0,0,1,374.4,933.8Z"/><path class="cls-7" d="M478.38,929.79a2.49,2.49,0,0,1-2.43,2.39,2.48,2.48,0,1,1,.05-4.95A2.43,2.43,0,0,1,478.38,929.79Z"/><g class="cls-20"><path class="cls-22" d="M382.45,1112.49c0-2.66.13-5.3.35-8a75.62,75.62,0,0,1,1.81-10.68c.13-.58.49-.53.9-.5,1.77.13,3.53.24,5.29.39a30.92,30.92,0,0,0,5.93-.2,49.1,49.1,0,0,0,15.19-4.14,50.31,50.31,0,0,0,12.83-8c1.11-1,.85-1.05,2.06,0A53.82,53.82,0,0,0,451,1093a40.58,40.58,0,0,0,8.79.8c2,0,4-.25,5.93-.42,1.09-.09,1.09-.1,1.34,1a66.6,66.6,0,0,1,1.59,9.08c.07.72.13,1.43.21,2.14,0,.3,0,.65.34.83,0,0,.15.06.09.09-.56.3-.05.82-.15,1-.25.45-.07.82-.06,1.22a104.55,104.55,0,0,1-.44,12.88,84.37,84.37,0,0,1-2.85,14.69,73.76,73.76,0,0,1-8.1,18.27,71.09,71.09,0,0,1-11.23,13.87,80.65,80.65,0,0,1-14.62,11.11c-1.79,1.07-3.65,2-5.47,3a1.06,1.06,0,0,1-1.11,0,93.87,93.87,0,0,1-13-8.09,73,73,0,0,1-28.17-45.33A86.2,86.2,0,0,1,382.45,1112.49Z"/></g><path class="cls-1" d="M383,1113c0-2.66.13-5.3.35-8a75.62,75.62,0,0,1,1.81-10.68c.13-.58.5-.53.9-.5,1.77.12,3.53.24,5.3.39a31.77,31.77,0,0,0,5.93-.2,49.12,49.12,0,0,0,15.18-4.14,50.31,50.31,0,0,0,12.83-8c1.12-1,.85-1.05,2.06,0a53.82,53.82,0,0,0,24.14,11.58,41.9,41.9,0,0,0,8.8.8c2,0,4-.25,5.92-.42,1.09-.09,1.09-.1,1.34,1a68.2,68.2,0,0,1,1.6,9.08c.06.71.12,1.43.2,2.14,0,.3,0,.65.34.82,0,0,.16.07.09.1-.56.3-.05.81-.14,1-.25.45-.08.82-.07,1.22a104.54,104.54,0,0,1-.43,12.88,85.33,85.33,0,0,1-2.86,14.69,73.39,73.39,0,0,1-8.1,18.27A71.41,71.41,0,0,1,447,1168.87,81.18,81.18,0,0,1,432.38,1180c-1.79,1.07-3.64,2-5.47,3a1,1,0,0,1-1.11,0,92.86,92.86,0,0,1-13-8.08,73,73,0,0,1-28.17-45.33A87,87,0,0,1,383,1113Z"/><path class="cls-23" d="M383,1113c0-2.65.13-5.3.34-8a78.61,78.61,0,0,1,1.81-10.68c.13-.58.5-.53.91-.5,1.76.13,3.53.24,5.29.39a30.92,30.92,0,0,0,5.93-.2,49.26,49.26,0,0,0,15.19-4.14,50.38,50.38,0,0,0,12.83-8c1.11-1,.85-1.05,2.06,0a53.82,53.82,0,0,0,24.14,11.58,40.58,40.58,0,0,0,8.79.8c2,0,3.95-.25,5.93-.42,1.09-.09,1.09-.1,1.34,1a66.6,66.6,0,0,1,1.59,9.08c.07.72.13,1.43.21,2.14,0,.3,0,.65.33.83,0,0,.16.06.1.09-.57.3-.06.82-.15,1-.25.45-.07.83-.07,1.22a102.61,102.61,0,0,1-.43,12.88,84.37,84.37,0,0,1-2.85,14.69,73.76,73.76,0,0,1-8.1,18.27A71.45,71.45,0,0,1,447,1168.87a81.41,81.41,0,0,1-14.62,11.1c-1.8,1.07-3.65,2-5.47,3a1.07,1.07,0,0,1-1.12,0,94.36,94.36,0,0,1-13-8.09,73,73,0,0,1-28.17-45.33A85.42,85.42,0,0,1,383,1113Zm76.3-.2c0-2.53-.13-5-.37-7.57,0-.42-.2-.59-.63-.61-1,0-2-.13-3-.21a54.42,54.42,0,0,1-12.38-2.44,65.25,65.25,0,0,1-16-7.52.9.9,0,0,0-1.14,0,66.3,66.3,0,0,1-18.1,8.12,57.91,57.91,0,0,1-13.28,2c-.46,0-.63.22-.65.66-.12,2-.3,3.91-.36,5.86a81.53,81.53,0,0,0,.51,11.05c.09.81.22,1.63.35,2.44s.25,1.62.4,2.43.3,1.57.47,2.36.36,1.6.57,2.39.53,1.57.66,2.38.64,1.31.69,2.08a6.47,6.47,0,0,0,.51,1.54A61,61,0,0,0,411.4,1160a70.68,70.68,0,0,0,14.38,11.21,1,1,0,0,0,1.21-.06,83.93,83.93,0,0,0,7.38-5,62.51,62.51,0,0,0,13.81-14.58,60.06,60.06,0,0,0,7.44-15.22c.72-2.24,1.4-4.49,1.92-6.78A76.74,76.74,0,0,0,459.34,1112.76Z"/><path class="cls-7" d="M450.92,1119.89c0,.22-.2.33-.33.46q-3.9,3.92-7.81,7.84l-16.72,16.69c-1.36,1.36-2.74,2.69-4.06,4.08-.46.47-.72.37-1.12,0q-6.54-6.57-13.1-13.1c-1.95-1.94-3.83-4-5.88-5.81-.37-.34-.1-.56.13-.78l3.89-3.89c.85-.85,1.71-1.69,2.54-2.56.33-.35.59-.37.94,0q3.62,3.64,7.27,7.29c1.45,1.46,2.91,2.92,4.35,4.4.3.31.51.33.82,0,1.84-1.85,3.7-3.69,5.55-5.53l9.88-9.87c1.92-1.92,3.83-3.85,5.75-5.78.72-.73.73-.73,1.43,0l6.12,6.12C450.72,1119.54,450.92,1119.65,450.92,1119.89Z"/><g class="cls-20"><path class="cls-24" d="M468.15,1337.26c0,4-.14,8,0,12,.24,5.55-3.08,9.86-8.2,10.94H401.81a10.32,10.32,0,0,1-6.83-5,9.79,9.79,0,0,1-1-2.6,1.11,1.11,0,0,0-.92-.94,9.81,9.81,0,0,1-7.73-9.9v-54.3"/><path class="cls-25" d="M385.44,1289.71c0-5.67-.11-20.7-.11-26.37,0-1.72.45-2.16,2.18-2.16h62.22a9.73,9.73,0,0,1,9.69,7.35,1.54,1.54,0,0,0,1.28,1.29,9.76,9.76,0,0,1,7.44,9.44c0,17,.24,42.54.24,59.51"/><path class="cls-26" d="M449.75,1264.22H449"/></g><path class="cls-1" d="M466.73,1337.26c0,4-.13,8,0,12,.24,5.55-3.09,9.86-8.21,10.94H400.4a10.32,10.32,0,0,1-6.83-5,10.17,10.17,0,0,1-1-2.6,1.09,1.09,0,0,0-.91-.94,9.8,9.8,0,0,1-7.73-9.9v-54.3"/><path class="cls-1" d="M384,1289.71c0-5.67-.11-20.7-.11-26.37,0-1.72.45-2.16,2.18-2.16h62.22a9.73,9.73,0,0,1,9.69,7.35,1.54,1.54,0,0,0,1.28,1.29,9.76,9.76,0,0,1,7.44,9.44c0,17,.24,42.54.24,59.51"/><path class="cls-1" d="M448.34,1264.22h-.77"/><path class="cls-27" d="M400.87,1359.83a10.32,10.32,0,0,1-6.83-5,10.17,10.17,0,0,1-1-2.6,1.08,1.08,0,0,0-.91-.94,9.81,9.81,0,0,1-7.73-9.9v-54.3c0-.23,0-.45,0-.68a1.52,1.52,0,0,1,1.46-1.51,1.48,1.48,0,0,1,1.6,1.35,9.87,9.87,0,0,1,.08,1.54q0,26.67,0,53.33a6.93,6.93,0,0,0,2.72,6,6,6,0,0,0,3.58,1.28l1.06,0q26.72,0,53.43,0a7,7,0,0,0,5.23-1.81,6.61,6.61,0,0,0,2.15-4.9q0-35.55,0-71.1c0-3.79-2.92-6.61-6.88-6.78H389c-1.46,0-1.47,0-1.47,1.49v14.3a4.13,4.13,0,0,1-.14,1.44,1.44,1.44,0,0,1-1.52,1.09,1.48,1.48,0,0,1-1.43-1.22,3.9,3.9,0,0,1-.06-1v-17c0-1.72.45-2.16,2.18-2.16h62.22a9.73,9.73,0,0,1,9.69,7.35,1.54,1.54,0,0,0,1.28,1.29,9.76,9.76,0,0,1,7.44,9.44q0,25.46,0,50.91a2,2,0,0,1-.51,1.6,1.51,1.51,0,0,1-2.5-.65,4.68,4.68,0,0,1-.15-1.62q0-24.89,0-49.76a6.66,6.66,0,0,0-3.85-6.48c-1.19-.6-1.34-.49-1.34.87q0,33.67,0,67.34a9.9,9.9,0,0,1-5.92,9.61,10.2,10.2,0,0,1-4.51.86H397.52c-1.55,0-1.64.13-.88,1.54a6.87,6.87,0,0,0,6.5,3.74h53.53c3.09,0,5.49-1.19,6.85-4.11a6.76,6.76,0,0,0,.53-3v-12.66a4.3,4.3,0,0,1,.15-1.43,1.53,1.53,0,0,1,3,.2,5.31,5.31,0,0,1,0,1.06c0,4-.14,8,0,12,.24,5.54-3.08,9.86-8.21,10.94Z"/><path class="cls-27" d="M421.59,1337.87c-7.12,0-14.24-.13-21.35,0a7.58,7.58,0,0,1-6.63-11.56c4.88-8.33,9.68-16.71,14.51-25.07,2.28-4,4.55-7.93,6.85-11.88,3.13-5.34,10.13-5.38,13.23,0,7.13,12.28,14.16,24.61,21.34,36.86a7.61,7.61,0,0,1-4.69,11.52,8.58,8.58,0,0,1-1.82.13Zm0-3c7.05,0,14.1,0,21.15,0,4.05,0,6.1-3.53,4.09-7q-10.56-18.32-21.15-36.62c-2.08-3.59-6.06-3.6-8.13,0q-7.91,13.65-15.79,27.33c-1.82,3.15-3.66,6.29-5.46,9.45a4.41,4.41,0,0,0,2.15,6.55,6.8,6.8,0,0,0,2.38.34Z"/><path class="cls-27" d="M421.66,1282.19a7.13,7.13,0,0,1-5.11-2.18,1.54,1.54,0,1,1,2.11-2.25c2.16,1.75,3.7,1.76,5.84,0a1.56,1.56,0,1,1,2.14,2.26A7.22,7.22,0,0,1,421.66,1282.19Z"/><path class="cls-27" d="M406.66,1277.54a9.83,9.83,0,0,1,0,1.63,1.53,1.53,0,0,1-3.05,0,19.71,19.71,0,0,1,0-3.26,1.42,1.42,0,0,1,1.49-1.36,1.54,1.54,0,0,1,1.57,1.39,1.43,1.43,0,0,1,0,.29c0,.45,0,.9,0,1.34Z"/><path class="cls-27" d="M436.58,1277.48a14.94,14.94,0,0,1,0-1.64,1.51,1.51,0,0,1,2.94-.23,8.73,8.73,0,0,1,0,3.84,1.34,1.34,0,0,1-1.51,1.08,1.4,1.4,0,0,1-1.43-1.31A14.41,14.41,0,0,1,436.58,1277.48Z"/><path class="cls-27" d="M421.62,1331.08H402.7c-.29,0-.58,0-.87,0-1.58-.08-2.25-1.22-1.48-2.59,1.29-2.3,2.62-4.58,3.94-6.86l15.54-26.92c.08-.14.16-.28.25-.42.9-1.46,2.19-1.48,3.05,0q3.81,6.54,7.59,13.11l11.93,20.65c1.11,1.93.5,3-1.72,3Zm0-33.2c-.2.31-.29.44-.37.58Q413,1312.71,404.79,1327c-.54.92-.54.93.57.93h32.27c1.32,0,1.33,0,.68-1.13L426,1305.36Z"/><path class="cls-27" d="M419.71,1310.52c0-.8,0-1.6,0-2.41a1.71,1.71,0,0,1,1.87-1.84,1.75,1.75,0,0,1,1.91,1.84c0,2.22-.16,4.43-.24,6.64,0,.93-.07,1.86-.1,2.79,0,1.09-.56,1.68-1.53,1.72s-1.62-.55-1.63-1.71c0-2.34,0-4.69,0-7Z"/><path class="cls-27" d="M421.6,1324.72a2,2,0,0,1-2-1.94,2.09,2.09,0,0,1,2-2,2,2,0,0,1,1.91,2A1.91,1.91,0,0,1,421.6,1324.72Z"/><rect class="cls-28" x="890.87" y="973.89" width="405.53" height="119.65"/><rect class="cls-28" x="886.4" y="1152.95" width="405.53" height="119.65"/><rect class="cls-28" x="886.98" y="1339.66" width="405.53" height="119.65"/><path class="cls-7" d="M496.08,724.31q0-6.37,0-12.74c0-.19.1-.45-.1-.56s-.35.14-.5.25c-3.1,2.24-6.21,4.48-9.3,6.74a2.87,2.87,0,0,1-4-.46,2.83,2.83,0,0,1,.77-4c1.82-1.29,3.62-2.61,5.43-3.92,2.94-2.13,5.86-4.26,8.8-6.37a2.85,2.85,0,0,1,3.41,0l14.05,10.17c1.65,1.2,1.9,3.12.59,4.42a2.58,2.58,0,0,1-3.3.39c-1.27-.82-2.48-1.74-3.71-2.63l-6-4.31c-.16-.11-.32-.33-.51-.25s-.11.36-.11.54c0,4.95-.05,9.9,0,14.85,0,1.86.05,3.73,0,5.59a8.81,8.81,0,0,0,.13,1.46c0,.3-.15.54-.14.84q.06,1.29,0,2.58a2.74,2.74,0,0,1-3.54,2.72,2.69,2.69,0,0,1-2-2.62c0-2.91,0-5.83,0-8.74Z"/><path class="cls-7" d="M499,746.43h16.33a3.64,3.64,0,0,1,2.33.62,2.78,2.78,0,0,1-.13,4.47,2.73,2.73,0,0,1-1.79.44H483.36c-.47,0-.95,0-1.41,0a3.24,3.24,0,0,1-2.67-1.33c-.2-.23-.16-.51-.23-.77a2.7,2.7,0,0,1,2.34-3.37,13.3,13.3,0,0,1,1.55-.08Z"/><rect class="cls-4" x="782.71" y="671.07" width="287.9" height="115.21" rx="29.16"/><path class="cls-7" d="M831.32,716V728.7c0,.2-.12.5.1.61s.39-.15.56-.28l9.39-6.8a2.77,2.77,0,0,1,4.07,3.62,2.38,2.38,0,0,1-.72.79l-10.22,7.41-4.19,3a2.76,2.76,0,0,1-3.41,0c-1.7-1.2-3.37-2.45-5.07-3.65-1-.67-1.88-1.42-2.89-2a20.16,20.16,0,0,1-1.75-1.33c-1.59-1.17-3.21-2.32-4.79-3.51a2.7,2.7,0,0,1-.55-3.89,2.74,2.74,0,0,1,3.77-.56c2,1.41,4,2.86,5.94,4.3l3.64,2.64c.16.11.34.32.53.17a.42.42,0,0,0,0-.59c-.18-.24.09-.42.07-.67-.08-.94,0-1.88,0-2.82,0-7.07,0-14.15,0-21.22a3.47,3.47,0,0,1,.76-2.64,2.83,2.83,0,0,1,3-.7,2.68,2.68,0,0,1,1.74,2.51c0,1.85,0,3.69,0,5.53Z"/><path class="cls-7" d="M847.46,749.41a3,3,0,0,1-1.93.56H811.42a2.64,2.64,0,0,1-2.67-1.84,2.74,2.74,0,0,1,.9-3.08,3.66,3.66,0,0,1,2.4-.63h32.88a6.23,6.23,0,0,1,1.49.15,2.6,2.6,0,0,1,2,3.3A5.5,5.5,0,0,1,847.46,749.41Z"/></svg>