<svg id="Capa_1" data-name="Capa 1" xmlns="http://www.w3.org/2000/svg" xmlns:xlink="http://www.w3.org/1999/xlink" viewBox="0 0 1419.38 1995.18"><defs><style>.cls-1,.cls-27,.cls-8{fill:#fff;}.cls-2{fill:#e4e4e4;}.cls-3{fill:#d1d1d1;}.cls-12,.cls-13,.cls-20,.cls-21,.cls-22,.cls-23,.cls-24,.cls-25,.cls-4{fill:none;}.cls-4{stroke:#d1d1d1;stroke-width:20px;}.cls-12,.cls-20,.cls-21,.cls-22,.cls-23,.cls-24,.cls-25,.cls-26,.cls-27,.cls-4{stroke-miterlimit:10;}.cls-5,.cls-6{fill:#00277c;}.cls-6{font-size:34.96px;}.cls-16,.cls-18,.cls-6{font-family:'Poppins', sans-serif;font-weight:300;}.cls-26,.cls-7{fill:#67277c;}.cls-8{font-size:42.52px;}.cls-15,.cls-8{font-family:'Poppins', sans-serif;}.cls-9{letter-spacing:-0.1em;}.cls-10{opacity:0.31;fill:url(#Degradado_sin_nombre_2);}.cls-11{fill:url(#Degradado_sin_nombre_2-2);}.cls-12,.cls-13{stroke-width:35px;}.cls-12{opacity:0.33;stroke:url(#Degradado_sin_nombre_2-3);}.cls-13{stroke-linecap:round;stroke-linejoin:round;stroke:url(#Degradado_sin_nombre_2-4);}.cls-14{fill:url(#Degradado_sin_nombre_2-5);}.cls-15{font-size:40.67px;}.cls-15,.cls-16,.cls-17,.cls-18{fill:#362f70;}.cls-16{font-size:28.37px;}.cls-18{font-size:28.47px;}.cls-19{opacity:0.5;}.cls-20,.cls-21,.cls-23,.cls-24,.cls-25{stroke-width:15px;}.cls-20{stroke:url(#Degradado_sin_nombre_2-6);}.cls-21{stroke:url(#Degradado_sin_nombre_2-7);}.cls-22,.cls-26,.cls-27{stroke:#67277c;}.cls-22{stroke-width:5px;}.cls-23{stroke:url(#Degradado_sin_nombre_2-8);}.cls-24{stroke:url(#Degradado_sin_nombre_2-9);}.cls-25{stroke:url(#Degradado_sin_nombre_2-10);}</style><linearGradient id="Degradado_sin_nombre_2" x1="-10173.39" y1="-1019.72" x2="-8754.03" y2="-1019.72" gradientTransform="translate(10173.42 2926.85)" gradientUnits="userSpaceOnUse"><stop offset="0" stop-color="#69267e"/><stop offset="0.5" stop-color="#512a78"/><stop offset="1" stop-color="#362f70"/></linearGradient><linearGradient id="Degradado_sin_nombre_2-2" x1="-10174.02" y1="-989.66" x2="-8754.03" y2="-989.66" xlink:href="#Degradado_sin_nombre_2"/><linearGradient id="Degradado_sin_nombre_2-3" x1="366.54" y1="374.1" x2="1053.62" y2="374.1" gradientTransform="matrix(1, 0, 0, 1, 0, 0)" xlink:href="#Degradado_sin_nombre_2"/><linearGradient id="Degradado_sin_nombre_2-4" x1="366.54" y1="211.04" x2="727.58" y2="211.04" gradientTransform="matrix(1, 0, 0, 1, 0, 0)" xlink:href="#Degradado_sin_nombre_2"/><linearGradient id="Degradado_sin_nombre_2-5" x1="1572.8" y1="314.96" x2="1017.33" y2="-188.61" gradientTransform="matrix(1, 0, 0, 1, 0, 0)" xlink:href="#Degradado_sin_nombre_2"/><linearGradient id="Degradado_sin_nombre_2-6" x1="102.52" y1="1114.71" x2="287.98" y2="1114.71" gradientTransform="matrix(1, 0, 0, 1, 0, 0)" xlink:href="#Degradado_sin_nombre_2"/><linearGradient id="Degradado_sin_nombre_2-7" x1="128.85" y1="1341.17" x2="258.49" y2="1341.17" gradientTransform="matrix(1, 0, 0, 1, 0, 0)" xlink:href="#Degradado_sin_nombre_2"/><linearGradient id="Degradado_sin_nombre_2-8" x1="132.65" y1="1578.33" x2="257.09" y2="1578.33" gradientTransform="matrix(1, 0, 0, 1, 0, 0)" xlink:href="#Degradado_sin_nombre_2"/><linearGradient id="Degradado_sin_nombre_2-9" x1="132.66" y1="1541.85" x2="257.34" y2="1541.85" gradientTransform="matrix(1, 0, 0, 1, 0, 0)" xlink:href="#Degradado_sin_nombre_2"/><linearGradient id="Degradado_sin_nombre_2-10" x1="224.15" y1="1502.16" x2="225.51" y2="1502.16" gradientTransform="matrix(1, 0, 0, 1, 0, 0)" xlink:href="#Degradado_sin_nombre_2"/></defs><rect class="cls-1" width="1419.98" height="1994.76"/><rect class="cls-2" x="344.35" y="1068.82" width="641.82" height="121.16" rx="10.19"/><rect class="cls-2" x="344.35" y="1290.04" width="641.82" height="121.16" rx="10.19"/><rect class="cls-3" x="344.35" y="1504.7" width="641.82" height="121.16" rx="10.19"/><rect class="cls-4" x="303.27" y="785.37" width="376.32" height="139.46" rx="29.16"/><path class="cls-5" d="M515.83,312.78c3.81,2.18,12.83,6,21.71,6,11.31,0,17.07-5.78,17.05-13.18-.05-9.84-9.18-14.29-18.82-14.32h-8.89V274.67h8.52c7.31,0,16.53-3,16.53-11.4,0-5.93-4.52-10.38-13.72-10.38-7.67,0-15.68,3.5-19.47,5.94l-4.48-16.73c5.63-3.85,16.76-7.51,28.86-7.51,20,0,31,11.14,31,24.77,0,10.42-5.63,18.75-17.05,23v.31c11.19,2.14,20.22,11.11,20.22,24.17,0,17.52-14.52,30.33-38.16,30.33-12.1,0-22.28-3.31-27.68-6.95Z"/><path class="cls-5" d="M660.57,285.47c0,30.58-11.67,51.71-35.45,51.71-24.14,0-34.79-23-34.88-51.08,0-28.83,11.37-51.51,35.5-51.51C650.69,234.59,660.57,258.27,660.57,285.47Zm-48.49.54c-.06,22.84,5.14,33.64,13.48,33.64,8.5,0,13.17-11.34,13.17-33.89,0-22-4.52-33.55-13.21-33.55C617.49,252.21,612.05,262.91,612.08,286Z"/><path class="cls-5" d="M785.52,296.15c-.45-12.47-.89-27.31-.84-42.39h-.4c-3.08,13.17-7.15,27.79-10.79,39.94l-11.85,40.11h-17l-10.43-39.76c-3.12-12.11-6.33-26.73-8.73-40.29h-.3c-.48,14-1,29.88-1.6,42.69l-1.81,39.05H701.55l6.19-102.9H736.9L746.34,267c3,11.8,6,24.73,8.2,36.79H755c2.65-11.91,5.92-25.48,9.21-36.94l10.27-34.24H803.1l5.19,102.9H787Z"/><path class="cls-5" d="M825.2,234c5.75-1.19,17.27-2.22,28.22-2.22,13.34,0,21.54,1.4,28.61,5.78a22.53,22.53,0,0,1,11.54,20.28c0,9.05-5,17.58-15.89,21.89v.39c11.05,3.08,19.26,12,19.26,25.21a27.89,27.89,0,0,1-10.07,21.86c-7.09,6.06-18.77,9.36-38,9.36a159.56,159.56,0,0,1-23.64-1.51Zm21.67,39.4H854c11.59,0,17.64-5.12,17.64-12.77,0-7.81-5.57-11.93-15.46-11.93a44.17,44.17,0,0,0-9.27.71Zm0,45.52a50.33,50.33,0,0,0,8.39.42c9.93,0,18.67-4.08,18.67-14.92,0-10.3-8.68-14.42-19.58-14.42h-7.48Z"/><text class="cls-6" transform="translate(505.91 412.35) scale(0.94 1)">INTERNET FIBRA ÓPTICA</text><rect class="cls-7" x="530.8" y="452.15" width="358.56" height="82.61" rx="21.23"/><text class="cls-8" transform="translate(598.42 508.15) scale(0.94 1)">SOLICI<tspan class="cls-9" x="149.46" y="0">T</tspan><tspan x="173.61" y="0">AR</tspan></text><path class="cls-10" d="M1419.38,1998.75v-52.52S1213.57,1721.87,735,1861c-318.27,92.53-511.77,88.83-735-25.91v163.65Z"/><path class="cls-11" d="M1419.38,1998.75v-52.52S1127.84,1804.92,735,1922.09c-317.91,94.82-511.77,89.22-735-25.53,0,0-.63,94.15-.63,102.19Z"/><ellipse class="cls-12" cx="710.08" cy="374.1" rx="326.04" ry="326.12"/><path class="cls-13" d="M384,374.1C384,194,530,48,710.08,48"/><path class="cls-14" d="M1100.85-2.42S1175,221.28,1421,287V-2.42Z"/><path class="cls-1" d="M1182,100.94a16.92,16.92,0,0,0,8,2.14c3.32,0,5.08-1.47,5.08-3.7s-1.52-3.32-5.35-4.76c-5.33-2-8.82-5.1-8.82-10.06,0-5.8,4.58-10.2,12.09-10.2a18,18,0,0,1,8.16,1.71l-1.59,6.16a14.67,14.67,0,0,0-6.68-1.61c-3.14,0-4.64,1.55-4.64,3.28,0,2.16,1.77,3.12,5.91,4.78,5.66,2.25,8.28,5.38,8.28,10.18,0,5.68-4.08,10.55-12.88,10.55a19.56,19.56,0,0,1-9-2.12Z"/><path class="cls-1" d="M1205,110.89l10.15-36.56h4.79l-10.17,36.56Z"/><path class="cls-1" d="M1222.3,104.78c0-2.73,1.77-4.67,4.26-4.67s4.22,1.89,4.25,4.67-1.7,4.65-4.27,4.65S1222.29,107.48,1222.3,104.78Z"/><path class="cls-1" d="M1298.89,52.17V63l-28.64,63H1253l28.63-59.41v-.22h-31.85V52.17Z"/><path class="cls-1" d="M1354.75,66.4h-27l-1.5,11.31a34.54,34.54,0,0,1,4.5-.24c6.63,0,13.45,1.64,18.33,5.33,5.23,3.8,8.42,10,8.42,18.58,0,13.79-11.1,25.91-29.83,25.91-8.42,0-15.45-2.06-19.35-4.19l3-13A37.16,37.16,0,0,0,1327,113.8c6.76,0,13.93-3.44,13.91-11.29,0-7.57-5.71-12.27-19.56-12.27a62,62,0,0,0-9.35.68l4.51-38.75h38.28Z"/><text class="cls-15" transform="translate(357.79 1042.36) scale(1.09 1)">V. CONTRATADA</text><text class="cls-16" transform="translate(417.95 834.09) scale(1.09 1)">V. DE SUBIDA</text><text class="cls-15" transform="translate(354.06 1268.74) scale(1.09 1)">V. GARANTIZADA</text><path class="cls-17" d="M511.94,1139.8a27.2,27.2,0,0,0,11.43,2.93c6,0,9-2.8,9-6.39,0-4.76-4.83-6.91-9.9-6.93h-4.68v-8.06h4.48c3.85,0,8.71-1.47,8.71-5.52,0-2.87-2.38-5-7.23-5a22.37,22.37,0,0,0-10.25,2.88l-2.36-8.1c3-1.86,8.83-3.64,15.2-3.64,10.5,0,16.3,5.4,16.3,12,0,5-3,9.08-9,11.14v.15c5.89,1,10.64,5.38,10.64,11.7,0,8.48-7.64,14.68-20.08,14.68-6.38,0-11.73-1.6-14.58-3.36Z"/><path class="cls-17" d="M588.13,1126.58c0,14.8-6.14,25-18.66,25-12.7,0-18.31-11.13-18.36-24.73,0-14,6-24.94,18.69-24.94C582.93,1101.94,588.13,1113.41,588.13,1126.58Zm-25.52.26c0,11.06,2.7,16.29,7.1,16.29s6.93-5.49,6.93-16.41c0-10.65-2.38-16.25-7-16.25C565.46,1110.47,562.59,1115.66,562.61,1126.84Z"/><path class="cls-17" d="M653.91,1131.75c-.24-6-.47-13.22-.44-20.52h-.21c-1.62,6.37-3.76,13.45-5.68,19.33L641.34,1150H632.4l-5.49-19.25c-1.64-5.86-3.34-12.94-4.6-19.5h-.16c-.25,6.77-.53,14.46-.84,20.67l-.95,18.9H609.71L613,1101h15.35l5,16.65c1.61,5.71,3.19,12,4.32,17.81h.25c1.39-5.76,3.11-12.33,4.84-17.88L648.1,1101h15.06l2.74,49.82H654.7Z"/><path class="cls-17" d="M674.08,1150.8c.16-2.39.3-6.7.3-10.8v-41.68h11.5v20.62H686c2.2-3.11,6-5.13,11.16-5.13,8.89,0,15.35,7.18,15.26,18.27,0,13-8.44,19.53-16.91,19.53-4.33,0-8.49-1.56-11.06-5.85h-.16l-.48,5Zm11.8-15.35a9.12,9.12,0,0,0,.2,2,7,7,0,0,0,6.77,5.36c4.88,0,7.93-3.72,7.93-10.23,0-5.63-2.57-10.06-7.91-10.06a7,7,0,0,0-6.76,5.54,9.89,9.89,0,0,0-.23,2.08Z"/><path class="cls-17" d="M719.57,1126.78c0-4.75-.15-8.76-.3-12.16h10l.53,5.07h.15c2.74-3.82,6.95-5.88,12.32-5.88,8.09,0,15.36,6.88,15.36,18.43,0,13.19-8.59,19.37-16.82,19.37-4.41,0-7.95-1.73-9.58-4.12h-.15v18h-11.5Zm11.5,8.54a10.74,10.74,0,0,0,.23,2.34A6.94,6.94,0,0,0,738,1143c5,0,7.93-4.1,7.93-10.24,0-5.75-2.63-10.14-7.75-10.14a7.16,7.16,0,0,0-6.87,5.68,7.91,7.91,0,0,0-.26,2Z"/><path class="cls-17" d="M764.71,1141a22.74,22.74,0,0,0,9.86,2.69c3.47,0,4.95-1.14,4.95-3s-1.17-2.78-5.42-4.18c-7.69-2.47-10.59-6.57-10.54-10.81,0-6.8,5.86-11.9,15-11.9a24.86,24.86,0,0,1,10.42,2.11l-2,7.74a19.23,19.23,0,0,0-8-2c-2.81,0-4.42,1.1-4.42,2.92s1.47,2.65,6,4.17c7,2.34,10,5.87,10,11.14,0,6.75-5.38,11.73-16,11.73a26.87,26.87,0,0,1-12-2.55Z"/><path class="cls-17" d="M506.18,1370.31v-6.8l6.32-5.58c10.75-9.44,16-14.81,16.07-20.43,0-3.9-2.35-7-8-7-4.23,0-7.92,2.08-10.51,4l-3.23-8a27.6,27.6,0,0,1,16.05-5c11.16,0,17.22,6.36,17.22,15,0,8.06-5.91,14.54-13.06,20.71l-4.55,3.69v.14H541v9.26Z"/><path class="cls-17" d="M562.74,1332.28h-.15l-9.34,4.34-1.9-8.43,13-5.92h9.48v48H562.74Z"/><path class="cls-17" d="M650.18,1351.26c-.24-6-.47-13.22-.44-20.52h-.21c-1.63,6.37-3.77,13.45-5.68,19.33l-6.24,19.43h-9l-5.48-19.25c-1.65-5.87-3.34-13-4.6-19.51h-.16c-.25,6.77-.54,14.46-.84,20.67l-1,18.9H606l3.26-49.81h15.35l5,16.65c1.61,5.71,3.18,12,4.32,17.81h.24c1.4-5.77,3.12-12.34,4.85-17.89l5.41-16.57h15.06l2.74,49.81H651Z"/><path class="cls-17" d="M670.35,1370.31c.15-2.39.3-6.7.3-10.8v-41.67h11.5v20.61h.15c2.19-3.11,6-5.13,11.16-5.13,8.89,0,15.35,7.18,15.26,18.27,0,13-8.44,19.54-16.92,19.54-4.32,0-8.48-1.57-11-5.85h-.16l-.49,5Zm11.8-15.35a9.28,9.28,0,0,0,.2,2,7,7,0,0,0,6.77,5.35c4.88,0,7.93-3.72,7.93-10.23,0-5.62-2.57-10.06-7.91-10.06a7,7,0,0,0-6.76,5.55,9.82,9.82,0,0,0-.23,2.08Z"/><path class="cls-17" d="M715.83,1346.29c0-4.75-.14-8.76-.3-12.15h10l.53,5.06h.15c2.74-3.82,6.95-5.88,12.32-5.88,8.09,0,15.36,6.89,15.36,18.43,0,13.19-8.59,19.38-16.82,19.38-4.41,0-8-1.74-9.58-4.13h-.16v18h-11.5Zm11.5,8.54a10.28,10.28,0,0,0,.24,2.35,6.92,6.92,0,0,0,6.72,5.33c5,0,7.93-4.09,7.93-10.23,0-5.76-2.63-10.15-7.75-10.15a7.15,7.15,0,0,0-6.87,5.69,7.44,7.44,0,0,0-.27,2Z"/><path class="cls-17" d="M761,1360.51a22.7,22.7,0,0,0,9.86,2.69c3.47,0,4.95-1.14,4.95-3s-1.18-2.79-5.43-4.19c-7.68-2.47-10.58-6.56-10.54-10.81,0-6.79,5.87-11.9,15-11.9a25,25,0,0,1,10.42,2.11l-2,7.75a19.13,19.13,0,0,0-8-2c-2.8,0-4.41,1.09-4.41,2.91s1.47,2.65,6,4.18c7,2.33,10,5.86,10,11.13,0,6.75-5.38,11.73-16,11.73a27,27,0,0,1-12-2.54Z"/><path class="cls-17" d="M426.37,885.79v-4.74l4.4-3.89c7.49-6.58,11.14-10.32,11.2-14.23,0-2.72-1.64-4.88-5.6-4.88A12.82,12.82,0,0,0,429,860.8l-2.24-5.59A19.17,19.17,0,0,1,438,851.75c7.77,0,12,4.43,12,10.49,0,5.62-4.12,10.13-9.11,14.43l-3.17,2.57v.1h12.95v6.45Z"/><path class="cls-17" d="M465.78,859.29h-.1l-6.51,3-1.32-5.88,9.07-4.12h6.61v33.47h-7.75Z"/><path class="cls-17" d="M526.72,872.52c-.17-4.21-.33-9.22-.31-14.3h-.15c-1.13,4.44-2.62,9.37-4,13.47L518,885.22h-6.24l-3.82-13.41c-1.15-4.09-2.33-9-3.2-13.59h-.12c-.17,4.72-.37,10.08-.58,14.4l-.67,13.17h-7.42l2.27-34.71h10.7l3.46,11.6c1.12,4,2.22,8.34,3,12.41h.17c1-4,2.17-8.6,3.38-12.46l3.77-11.55h10.49l1.91,34.71h-7.8Z"/><path class="cls-17" d="M540.77,885.79c.11-1.67.21-4.67.21-7.53v-29h8v14.36h.11c1.53-2.17,4.2-3.57,7.78-3.57,6.19,0,10.69,5,10.63,12.73,0,9.07-5.88,13.61-11.79,13.61a8.47,8.47,0,0,1-7.7-4.08h-.11l-.34,3.51Zm8.22-10.7a6.44,6.44,0,0,0,.14,1.38,4.88,4.88,0,0,0,4.72,3.73c3.4,0,5.53-2.59,5.53-7.12,0-3.93-1.8-7-5.52-7a4.89,4.89,0,0,0-4.7,3.87,6.63,6.63,0,0,0-.17,1.45Z"/><path class="cls-17" d="M572.47,869.06c0-3.32-.1-6.11-.21-8.48h7l.37,3.53h.11a10,10,0,0,1,8.58-4.09c5.64,0,10.71,4.79,10.71,12.84,0,9.19-6,13.5-11.72,13.5-3.08,0-5.54-1.21-6.68-2.88h-.11V896h-8Zm8,5.94a7.67,7.67,0,0,0,.16,1.64,4.84,4.84,0,0,0,4.69,3.71c3.46,0,5.53-2.85,5.53-7.13,0-4-1.84-7.07-5.41-7.07a5,5,0,0,0-4.79,4,5.37,5.37,0,0,0-.18,1.4Z"/><path class="cls-17" d="M603.93,879a15.82,15.82,0,0,0,6.87,1.88c2.42,0,3.45-.8,3.45-2.08s-.82-1.94-3.78-2.92c-5.36-1.72-7.38-4.57-7.35-7.53,0-4.74,4.09-8.29,10.48-8.29a17.34,17.34,0,0,1,7.26,1.47l-1.39,5.39a13.47,13.47,0,0,0-5.59-1.42c-2,0-3.07.76-3.07,2s1,1.85,4.18,2.91c4.89,1.63,6.94,4.09,7,7.76,0,4.7-3.75,8.17-11.14,8.17a18.72,18.72,0,0,1-8.34-1.77Z"/><text class="cls-15" transform="translate(351.26 1482.1) scale(1.09 1)">V. REGULADA</text><text class="cls-18" transform="translate(862.17 840.95) scale(1.09 1)">V. DE BAJADA</text><path class="cls-17" d="M518,1543.22h-.15l-9.34,4.34-1.91-8.43,13-5.92h9.48v48H518Z"/><path class="cls-17" d="M545.32,1581.25v-6.8l6.32-5.59c10.75-9.44,16-14.8,16.07-20.42,0-3.9-2.35-7-8-7-4.23,0-7.92,2.07-10.51,4l-3.22-8a27.54,27.54,0,0,1,16-5c11.16,0,17.22,6.37,17.22,15.06,0,8.06-5.9,14.53-13.06,20.7l-4.55,3.69v.15h18.58v9.26Z"/><path class="cls-17" d="M647.38,1562.2c-.23-6-.47-13.22-.44-20.53h-.21c-1.62,6.38-3.76,13.46-5.68,19.34l-6.24,19.42h-8.94l-5.49-19.25c-1.64-5.86-3.34-12.94-4.6-19.51h-.16c-.25,6.78-.53,14.47-.84,20.67l-.95,18.91H603.18l3.26-49.82h15.35l5,16.65c1.6,5.71,3.18,12,4.31,17.81h.25c1.39-5.76,3.12-12.33,4.84-17.88l5.41-16.58h15.07l2.73,49.82H648.18Z"/><path class="cls-17" d="M667.55,1581.25c.16-2.39.3-6.7.3-10.81v-41.67h11.5v20.62h.15c2.2-3.12,6-5.13,11.16-5.13,8.89,0,15.35,7.18,15.26,18.27,0,13-8.44,19.53-16.91,19.53-4.32,0-8.49-1.56-11.06-5.85h-.16l-.48,5Zm11.8-15.35a9.12,9.12,0,0,0,.2,2,7,7,0,0,0,6.77,5.36c4.88,0,7.93-3.73,7.93-10.23,0-5.63-2.57-10.06-7.91-10.06a7,7,0,0,0-6.76,5.54,9.89,9.89,0,0,0-.23,2.08Z"/><path class="cls-17" d="M713,1557.23c0-4.75-.14-8.77-.3-12.16h10l.53,5.07h.15c2.74-3.82,7-5.88,12.32-5.88,8.09,0,15.36,6.88,15.36,18.43,0,13.19-8.59,19.37-16.81,19.37-4.42,0-8-1.73-9.59-4.12h-.15v18H713Zm11.5,8.54a10.74,10.74,0,0,0,.23,2.34,6.94,6.94,0,0,0,6.72,5.34c5,0,7.93-4.1,7.93-10.24,0-5.75-2.63-10.14-7.75-10.14a7.16,7.16,0,0,0-6.87,5.68,7.91,7.91,0,0,0-.26,2Z"/><path class="cls-17" d="M758.18,1571.45a22.78,22.78,0,0,0,9.86,2.69c3.47,0,5-1.14,5-3s-1.17-2.78-5.42-4.18c-7.69-2.47-10.59-6.57-10.54-10.81,0-6.8,5.86-11.9,15-11.9a24.85,24.85,0,0,1,10.41,2.11l-2,7.74a19.23,19.23,0,0,0-8-2c-2.81,0-4.42,1.1-4.42,2.92s1.47,2.64,6,4.17c7,2.33,10,5.86,10,11.14,0,6.75-5.38,11.73-16,11.73a26.87,26.87,0,0,1-12-2.55Z"/><path class="cls-17" d="M889.64,862.25h-.1l-6.54,3-1.33-5.9,9.12-4.15h6.63v33.64h-7.78Z"/><path class="cls-17" d="M908.76,888.88v-4.77l4.43-3.91c7.53-6.6,11.19-10.36,11.25-14.29,0-2.73-1.64-4.91-5.63-4.91a12.83,12.83,0,0,0-7.36,2.77l-2.25-5.62a19.24,19.24,0,0,1,11.23-3.48c7.81,0,12.05,4.46,12.05,10.54,0,5.65-4.13,10.18-9.14,14.5l-3.19,2.58v.1h13v6.49Z"/><path class="cls-17" d="M980.22,875.54c-.17-4.23-.33-9.26-.31-14.37h-.15c-1.14,4.46-2.64,9.42-4,13.54l-4.36,13.6h-6.27l-3.84-13.48c-1.15-4.11-2.33-9.06-3.22-13.66H958c-.17,4.74-.37,10.13-.59,14.47l-.66,13.24h-7.46L951.55,854H962.3l3.48,11.66c1.12,4,2.22,8.38,3,12.47H969c1-4,2.18-8.64,3.39-12.53l3.79-11.6H986.7l1.91,34.88h-7.84Z"/><path class="cls-17" d="M994.33,888.88c.11-1.68.21-4.69.21-7.57V852.14h8.05v14.43h.11c1.54-2.18,4.22-3.59,7.81-3.59,6.23,0,10.75,5,10.69,12.79,0,9.12-5.91,13.68-11.85,13.68a8.55,8.55,0,0,1-7.74-4.1h-.11l-.34,3.53Zm8.26-10.75a5.9,5.9,0,0,0,.15,1.38,4.89,4.89,0,0,0,4.73,3.75c3.42,0,5.56-2.61,5.56-7.16,0-3.94-1.8-7.05-5.54-7.05a4.91,4.91,0,0,0-4.73,3.89,6.79,6.79,0,0,0-.17,1.46Z"/><path class="cls-17" d="M1026.18,872.06c0-3.33-.1-6.13-.22-8.51h7l.37,3.55h.11a10.08,10.08,0,0,1,8.62-4.12c5.67,0,10.76,4.82,10.76,12.9,0,9.23-6,13.57-11.78,13.57-3.09,0-5.56-1.22-6.71-2.89h-.1v12.56h-8Zm8,6a7.67,7.67,0,0,0,.16,1.64,4.85,4.85,0,0,0,4.71,3.73c3.47,0,5.55-2.86,5.55-7.16,0-4-1.84-7.1-5.43-7.1a5,5,0,0,0-4.81,4,5.49,5.49,0,0,0-.18,1.4Z"/><path class="cls-17" d="M1057.78,882a16,16,0,0,0,6.9,1.88c2.43,0,3.47-.8,3.47-2.09s-.82-1.95-3.8-2.93c-5.38-1.73-7.41-4.6-7.38-7.57,0-4.76,4.11-8.33,10.53-8.33a17.44,17.44,0,0,1,7.29,1.48l-1.4,5.42a13.37,13.37,0,0,0-5.61-1.43c-2,0-3.09.77-3.09,2s1,1.85,4.2,2.92c4.92,1.64,7,4.11,7,7.8,0,4.73-3.76,8.21-11.18,8.21a18.94,18.94,0,0,1-8.39-1.78Z"/><g class="cls-19"><path class="cls-20" d="M277.19,1090.27q-14.94-13.83-30-27.58a10.57,10.57,0,0,0-3.9-2.53,9.18,9.18,0,0,0-9.58,2.11q-9.39,8.67-18.8,17.3c-.64.59-1.11,1.13-2.22.51-6.3-3.53-12.39-2.94-17.73,1.7a1.52,1.52,0,0,1-2.11.2,14.48,14.48,0,0,0-15.06,0,1.65,1.65,0,0,1-2.35-.3c-6.05-5.6-12.15-11.16-18.23-16.74-4.68-4.29-9.68-4.28-14.38,0q-14.52,13.35-29,26.69a14.42,14.42,0,0,0-3.8,5v4a12.25,12.25,0,0,0,3.49,4.77c2.67,2.37,5.25,4.82,7.89,7.23,3.84,3.49,8,3.81,12.37.88a1.23,1.23,0,0,1,1.83.11q9,8.34,18.1,16.65a1.06,1.06,0,0,1,.14,1.7c-4.1,5.49-1.5,11.87,5.47,13.45a1.7,1.7,0,0,1,1.57,1.44c.82,3.58,3.27,5.85,7.14,6.65a1.8,1.8,0,0,1,1.66,1.53c.91,3.56,3.3,5.81,7.23,6.55a1.71,1.71,0,0,1,1.57,1.48,8.82,8.82,0,0,0,7.79,6.76c4.34.39,7.88-1.44,9.62-5.11.44-1,1-1.1,2-1,4.62.3,8.36-2.2,9.42-6.35a2.28,2.28,0,0,1,2.07-1.92c3.76-.79,6.1-3,6.78-6.52.18-.9.53-1.26,1.53-1.44,3.9-.72,6.41-2.88,7.27-6.49a1.83,1.83,0,0,1,1.62-1.59c4.48-1,6.9-3.56,7.47-7.77a2.66,2.66,0,0,1,.8-1.77q9.94-9.12,19.86-18.27a1.16,1.16,0,0,1,1.79-.12c4,2.92,8.45,2.72,12.13-.56,2.87-2.54,5.66-5.17,8.47-7.77C281.55,1098.9,281.63,1094.38,277.19,1090.27Zm-146.43,18.16"/></g><path class="cls-1" d="M274.83,1089.48q-14.93-13.83-30-27.57a10.55,10.55,0,0,0-3.91-2.54,9.17,9.17,0,0,0-9.57,2.12l-18.8,17.3c-.64.58-1.11,1.13-2.22.5-6.31-3.53-12.4-2.93-17.74,1.7a1.49,1.49,0,0,1-2.1.2,14.53,14.53,0,0,0-15.06,0,1.65,1.65,0,0,1-2.35-.29c-6.05-5.6-12.15-11.16-18.23-16.74-4.69-4.29-9.69-4.28-14.38,0q-14.52,13.35-29,26.7a14.41,14.41,0,0,0-3.8,4.94v4a12.24,12.24,0,0,0,3.5,4.76c2.67,2.38,5.25,4.83,7.89,7.23,3.83,3.5,8,3.82,12.37.89a1.22,1.22,0,0,1,1.82.11q9,8.34,18.1,16.65a1.05,1.05,0,0,1,.15,1.69c-4.11,5.5-1.51,11.88,5.46,13.45a1.72,1.72,0,0,1,1.58,1.45c.82,3.58,3.26,5.85,7.14,6.65a1.8,1.8,0,0,1,1.66,1.53c.91,3.56,3.29,5.81,7.23,6.55a1.68,1.68,0,0,1,1.56,1.47,8.84,8.84,0,0,0,7.79,6.77c4.34.39,7.89-1.44,9.62-5.12.45-.94,1-1.1,2-1,4.63.29,8.37-2.2,9.43-6.35a2.25,2.25,0,0,1,2.07-1.92c3.75-.79,6.09-3,6.78-6.52.17-.9.52-1.26,1.52-1.45,3.91-.72,6.41-2.87,7.27-6.49a1.83,1.83,0,0,1,1.63-1.58c4.48-1,6.89-3.57,7.46-7.77a2.63,2.63,0,0,1,.81-1.77q9.94-9.12,19.86-18.28a1.16,1.16,0,0,1,1.79-.11c4,2.91,8.44,2.72,12.12-.56,2.87-2.55,5.66-5.17,8.48-7.77C279.2,1098.12,279.28,1093.6,274.83,1089.48ZM128.4,1107.64"/><path class="cls-7" d="M107.65,1095.79a14.42,14.42,0,0,1,3.8-5q14.55-13.32,29-26.69c4.7-4.32,9.7-4.33,14.38,0,6.08,5.58,12.18,11.14,18.23,16.74a1.65,1.65,0,0,0,2.35.29,14.51,14.51,0,0,1,15.06.06,1.52,1.52,0,0,0,2.11-.2c5.34-4.64,11.43-5.24,17.73-1.7,1.11.62,1.58.08,2.22-.51l18.8-17.3a9.18,9.18,0,0,1,9.58-2.11,10.57,10.57,0,0,1,3.9,2.53q15,13.77,30,27.58c4.44,4.11,4.36,8.63-.09,12.75-2.81,2.6-5.6,5.22-8.47,7.77-3.69,3.28-8.1,3.47-12.13.56a1.16,1.16,0,0,0-1.79.12q-9.92,9.15-19.86,18.27a2.67,2.67,0,0,0-.81,1.77c-.56,4.2-3,6.76-7.46,7.77a1.82,1.82,0,0,0-1.62,1.58c-.87,3.62-3.37,5.78-7.27,6.5-1,.18-1.35.54-1.53,1.44-.68,3.52-3,5.73-6.78,6.52a2.26,2.26,0,0,0-2.07,1.92c-1.06,4.15-4.8,6.64-9.42,6.35-1-.07-1.56.09-2,1-1.74,3.68-5.28,5.51-9.62,5.12a8.82,8.82,0,0,1-7.79-6.76,1.7,1.7,0,0,0-1.57-1.48c-3.93-.74-6.32-3-7.23-6.55a1.8,1.8,0,0,0-1.66-1.53c-3.88-.8-6.32-3.07-7.14-6.65a1.7,1.7,0,0,0-1.57-1.44c-7-1.58-9.58-8-5.47-13.46a1.05,1.05,0,0,0-.14-1.69q-9.08-8.31-18.11-16.65a1.22,1.22,0,0,0-1.82-.11c-4.32,2.93-8.53,2.61-12.37-.88-2.64-2.41-5.22-4.86-7.89-7.23a12.32,12.32,0,0,1-3.49-4.77Zm73.59,16.59a10.87,10.87,0,0,1-4.4-.78c-5.83-2.49-7.18-9.32-2.6-13.71,3.92-3.74,7.94-7.39,12-11,1.1-1,.74-1.31-.42-1.72a8.48,8.48,0,0,0-8.81,1.94c-1.94,1.9-3.46,1.93-5.5.09-1.74-1.58-3.48-3.15-5.15-4.78-.74-.71-1.2-.75-2,0Q151,1094.74,137.56,1107c-.74.68-.86,1.12-.06,1.86q9.92,9,19.76,18.15a3.11,3.11,0,0,0,1.88.84c4.79.51,7.27,2.5,8.58,6.86a1.71,1.71,0,0,0,1.52,1.36c4,.76,6.41,3.07,7.25,6.7a1.5,1.5,0,0,0,1.43,1.33c3.91.83,6.48,3,7.34,6.67a1.67,1.67,0,0,0,1.59,1.49,9.64,9.64,0,0,1,5.28,2.69,25,25,0,0,0,2,1.8,3.17,3.17,0,0,0,4.08-.19,2.64,2.64,0,0,0,.32-3.87,10.9,10.9,0,0,0-1.14-1.11L181.57,1137c-1.84-1.7-2.08-3.48-.71-4.67s3.09-1,5.07.75l.94.87q7.33,6.75,14.69,13.5a9.09,9.09,0,0,0,1.79,1.36,3.12,3.12,0,0,0,3.56-.33,2.47,2.47,0,0,0,.72-3.2,6.54,6.54,0,0,0-1.69-2q-7.63-7-15.27-14.07a9.62,9.62,0,0,1-1.52-1.61,2.39,2.39,0,0,1,.43-3.35,2.85,2.85,0,0,1,3.5-.44,9.61,9.61,0,0,1,1.9,1.46q7.61,7,15.17,13.94a13.7,13.7,0,0,0,1.61,1.33,3.7,3.7,0,0,0,4-.12,2.74,2.74,0,0,0,.39-3.65,10.56,10.56,0,0,0-1.61-1.74q-7.62-7-15.27-14.06a5.85,5.85,0,0,1-1.54-1.79,2.44,2.44,0,0,1,.71-3.07,2.85,2.85,0,0,1,3.37-.4,8.46,8.46,0,0,1,1.64,1.27l15.41,14.15a9.9,9.9,0,0,0,2,1.55,3,3,0,0,0,3.67-.37,2.53,2.53,0,0,0,.54-3.49,6.06,6.06,0,0,0-1-1.19q-13.44-12.39-26.89-24.78c-.88-.82-1.44-.8-2.29,0-2.34,2.24-4.76,4.42-7.16,6.61A10.07,10.07,0,0,1,181.24,1112.38Zm21.45-29.72a7.86,7.86,0,0,0-5.82,2.24L179,1101.31a5.5,5.5,0,0,0-.94,1.06,2.6,2.6,0,0,0,.05,3.17,3.15,3.15,0,0,0,3.21,1.14,4.72,4.72,0,0,0,2.49-1.44c3.25-3,6.48-6,9.75-9,1.56-1.42,2.72-1.56,4.47-.68,4.36,2.18,7.31,1.79,10.89-1.45,1.5-1.35,3.08-1.49,4.42-.39s1.32,2.61,0,4.09a12.57,12.57,0,0,1-6.68,4.05c-1.52.35-1.21.7-.37,1.47q10.77,9.87,21.49,19.79c1,.91,1.53.9,2.5,0,5.36-5,10.78-10,16.19-14.93,2.45-2.26,2.45-2.25,0-4.47q-12.51-11.51-25-23c-1-.89-1.56-1-2.51,0-1.53,1.54-3.18,3-4.8,4.44-2.09,1.88-3.66,1.85-5.65-.1A7.81,7.81,0,0,0,202.69,1082.66Zm-55-16.16a3.52,3.52,0,0,0-2.59,1.24l-30.2,27.77c-1.76,1.62-1.75,3,0,4.63,2.73,2.54,5.47,5,8.23,7.56,1.94,1.76,3.27,1.75,5.24-.06,3-2.69,5.88-5.4,8.81-8.1l22.68-20.86c.55-.51,1.41-.89.39-1.81-3.45-3.09-6.83-6.25-10.25-9.38A3.06,3.06,0,0,0,147.71,1066.5Zm124.17,29.31a2.5,2.5,0,0,0-1-2q-15.4-14.14-30.81-28.3c-1.58-1.46-2.9-1.46-4.47,0-3.36,3-6.65,6.14-10,9.17-.85.76-.78,1.27,0,2q15.94,14.63,31.87,29.28c1.62,1.48,3,1.52,4.62.07,2.94-2.63,5.81-5.32,8.7-8A2.74,2.74,0,0,0,271.88,1095.81Zm-95.61,53.83a2.8,2.8,0,0,0-3.05,2.76,3.1,3.1,0,0,0,6.18.11A2.87,2.87,0,0,0,176.27,1149.64Zm-17.59-16.19a2.88,2.88,0,0,0-3.07,2.93,3,3,0,0,0,3.13,2.74,2.88,2.88,0,0,0,3-3A2.84,2.84,0,0,0,158.68,1133.45Zm26.41,29.9a2.94,2.94,0,0,0,3.16-2.72,3.08,3.08,0,0,0-3.13-3,3.15,3.15,0,0,0-3.17,2.77A3,3,0,0,0,185.09,1163.35Zm-17.59-16.21a3,3,0,0,0,3.17-2.87,3.2,3.2,0,0,0-6.34,0A3,3,0,0,0,167.5,1147.14Z"/><path class="cls-7" d="M125.73,1100.79a2.93,2.93,0,0,1-3.23-3,3.12,3.12,0,0,1,3.09-3,3.3,3.3,0,0,1,3.38,3.11A3.13,3.13,0,0,1,125.73,1100.79Z"/><path class="cls-7" d="M263,1095.91a3.15,3.15,0,0,1-3.2,2.91,3,3,0,1,1,.07-6A3.05,3.05,0,0,1,263,1095.91Z"/><g class="cls-19"><path class="cls-21" d="M136.35,1317.85c0-3.22.17-6.43.46-9.65a86.92,86.92,0,0,1,2.39-13c.17-.7.66-.64,1.19-.61,2.34.16,4.67.29,7,.48a45.53,45.53,0,0,0,7.83-.24,69.8,69.8,0,0,0,20.05-5,67.47,67.47,0,0,0,16.94-9.72c1.48-1.19,1.13-1.28,2.73,0a67.93,67.93,0,0,0,18.47,10.32,71.57,71.57,0,0,0,13.4,3.74,59.53,59.53,0,0,0,11.62,1c2.61-.05,5.22-.3,7.82-.51,1.44-.11,1.44-.12,1.77,1.17a76.91,76.91,0,0,1,2.11,11c.09.87.16,1.73.27,2.6,0,.36,0,.79.45,1,.05,0,.2.08.12.12-.75.36-.07,1-.19,1.19-.33.54-.1,1-.09,1.47a116.82,116.82,0,0,1-.58,15.65,95.14,95.14,0,0,1-3.76,17.85,86.35,86.35,0,0,1-10.7,22.19,88.31,88.31,0,0,1-14.82,16.85,106.55,106.55,0,0,1-19.32,13.49c-2.37,1.31-4.81,2.47-7.22,3.7a1.48,1.48,0,0,1-1.47,0,125.38,125.38,0,0,1-17.14-9.83,93,93,0,0,1-21.8-20.81,86.55,86.55,0,0,1-15.4-34.25A96.34,96.34,0,0,1,136.35,1317.85Z"/></g><path class="cls-1" d="M137.13,1318.44c0-3.23.18-6.44.46-9.66a86.79,86.79,0,0,1,2.39-13c.17-.71.66-.65,1.2-.62,2.33.16,4.66.3,7,.48a45.5,45.5,0,0,0,7.83-.24,69.72,69.72,0,0,0,20.05-5,67.41,67.41,0,0,0,16.95-9.72c1.47-1.19,1.12-1.28,2.72,0A67.93,67.93,0,0,0,214.19,1291a71.78,71.78,0,0,0,13.4,3.74,59.6,59.6,0,0,0,11.62,1c2.61-.06,5.22-.31,7.82-.52,1.44-.11,1.45-.12,1.77,1.17a74.26,74.26,0,0,1,2.11,11c.09.87.16,1.73.27,2.6,0,.36,0,.79.45,1,.06,0,.2.08.12.12-.74.36-.07,1-.19,1.19-.33.54-.1,1-.09,1.48a116.93,116.93,0,0,1-.57,15.65,95.86,95.86,0,0,1-3.77,17.84,86.19,86.19,0,0,1-10.7,22.19,88.67,88.67,0,0,1-14.82,16.86,106.65,106.65,0,0,1-19.32,13.48c-2.37,1.31-4.81,2.47-7.22,3.71a1.48,1.48,0,0,1-1.47,0,125.32,125.32,0,0,1-17.14-9.82,93.68,93.68,0,0,1-21.8-20.82,86.48,86.48,0,0,1-15.4-34.25A96.31,96.31,0,0,1,137.13,1318.44Z"/><path class="cls-22" d="M137.13,1318.43c0-3.23.17-6.44.46-9.66a85.53,85.53,0,0,1,2.39-13c.17-.71.65-.65,1.19-.62,2.33.16,4.66.3,7,.48a45.47,45.47,0,0,0,7.83-.24,69.78,69.78,0,0,0,20.06-5,67.52,67.52,0,0,0,16.94-9.72c1.47-1.19,1.13-1.28,2.72,0A67.84,67.84,0,0,0,214.19,1291a71.36,71.36,0,0,0,13.4,3.74,59.47,59.47,0,0,0,11.62,1c2.61-.06,5.21-.31,7.82-.52,1.44-.11,1.44-.12,1.77,1.17a76.91,76.91,0,0,1,2.11,11c.08.87.16,1.73.26,2.6.05.36,0,.79.45,1,.06,0,.21.08.13.12-.75.36-.07,1-.2,1.19-.33.54-.1,1-.09,1.48a115.29,115.29,0,0,1-.57,15.65,95.86,95.86,0,0,1-3.77,17.84,85.54,85.54,0,0,1-10.7,22.19,88.67,88.67,0,0,1-14.82,16.86,106.58,106.58,0,0,1-19.31,13.48c-2.37,1.31-4.82,2.47-7.22,3.71a1.5,1.5,0,0,1-1.48,0,125.81,125.81,0,0,1-17.13-9.82,93.53,93.53,0,0,1-21.81-20.82,86.62,86.62,0,0,1-15.4-34.25A97,97,0,0,1,137.13,1318.43Zm100.77-.24a83.15,83.15,0,0,0-.5-9.2c-.05-.51-.26-.72-.82-.74-1.33-.06-2.66-.16-4-.25a79.17,79.17,0,0,1-16.34-3,90.52,90.52,0,0,1-21.19-9.13,1.26,1.26,0,0,0-1.5,0,83.77,83.77,0,0,1-10,5.1,89.86,89.86,0,0,1-13.91,4.77,83.52,83.52,0,0,1-17.54,2.47c-.61,0-.83.27-.87.79-.15,2.38-.38,4.75-.47,7.13a91.22,91.22,0,0,0,.68,13.42c.11,1,.29,2,.46,3s.33,2,.53,3,.4,1.91.62,2.86.48,1.94.75,2.91a27.18,27.18,0,0,1,.87,2.88c.17.9.84,1.6.92,2.53a7.12,7.12,0,0,0,.67,1.87,73.35,73.35,0,0,0,18.32,27,92.86,92.86,0,0,0,19,13.6,1.45,1.45,0,0,0,1.61-.07,109.46,109.46,0,0,0,9.74-6.08,78.88,78.88,0,0,0,18.23-17.71,70.46,70.46,0,0,0,9.83-18.49c1-2.73,1.86-5.46,2.53-8.24A85.32,85.32,0,0,0,237.9,1318.19Z"/><path class="cls-7" d="M226.77,1326.85c0,.26-.26.39-.43.55q-5.16,4.77-10.32,9.52l-22.08,20.29c-1.79,1.64-3.61,3.26-5.36,4.94-.6.58-.94.45-1.48,0q-8.62-8-17.3-15.92c-2.58-2.36-5.05-4.82-7.76-7.06-.49-.41-.13-.67.17-.94l5.13-4.72c1.13-1,2.26-2.06,3.36-3.11a.76.76,0,0,1,1.24,0q4.78,4.44,9.6,8.85,2.88,2.67,5.75,5.35c.4.38.67.41,1.08,0q3.65-3.37,7.33-6.73l13.05-12,7.59-7c1-.89,1-.88,1.89,0l8.09,7.44C226.51,1326.42,226.77,1326.56,226.77,1326.85Z"/><g class="cls-19"><path class="cls-23" d="M249.52,1590.89c0,4.85-.17,9.71,0,14.55.31,6.74-4.07,12-10.84,13.3H161.92c-3.87-.91-7-2.75-9-6a11.73,11.73,0,0,1-1.33-3.17,1.39,1.39,0,0,0-1.21-1.14c-6.29-1.43-10.2-6.05-10.2-12q0-33,0-66"/><path class="cls-24" d="M140.3,1533.13c0-6.88-.15-25.14-.14-32,0-2.09.59-2.63,2.87-2.63H225.2c6.21,0,11.14,3.42,12.8,8.92a2,2,0,0,0,1.69,1.57c5.76,1.31,9.82,6,9.82,11.47,0,20.62.32,51.67.33,72.29"/><path class="cls-25" d="M225.23,1502.17c-.34,0-.68,0-1,0"/></g><path class="cls-1" d="M247.66,1590.89c0,4.85-.18,9.71.05,14.55.31,6.74-4.08,12-10.84,13.3H160.06c-3.87-.91-7-2.75-9-6a11.73,11.73,0,0,1-1.33-3.17,1.4,1.4,0,0,0-1.21-1.14c-6.29-1.43-10.2-6.05-10.2-12q0-33,0-66"/><path class="cls-1" d="M138.44,1533.13c0-6.88-.15-25.14-.15-32,0-2.09.59-2.63,2.88-2.63h82.17c6.21,0,11.14,3.42,12.8,8.92a2,2,0,0,0,1.69,1.57c5.76,1.31,9.81,6,9.82,11.47,0,20.62.32,51.67.32,72.29"/><path class="cls-1" d="M223.37,1502.17c-.34,0-.68,0-1,0"/><path class="cls-26" d="M160.68,1618.31c-3.87-.91-7-2.75-9-6a11.8,11.8,0,0,1-1.33-3.16,1.38,1.38,0,0,0-1.21-1.14c-6.29-1.43-10.2-6.06-10.2-12q0-33,0-66a7.42,7.42,0,0,1,0-.82,2,2,0,0,1,4-.2,9.69,9.69,0,0,1,.11,1.87q0,32.39,0,64.78a8.5,8.5,0,0,0,8.32,8.81c.47,0,.93,0,1.4,0q35.28,0,70.56,0a9.84,9.84,0,0,0,6.91-2.2,7.74,7.74,0,0,0,2.83-6q0-43.18,0-86.38c0-4.6-3.86-8-9.09-8.22-.34,0-.68,0-1,0H145c-1.93,0-1.93,0-1.93,1.82v17.36a4.72,4.72,0,0,1-.19,1.75,2.06,2.06,0,0,1-3.9-.16,4.58,4.58,0,0,1-.07-1.17q0-10.32,0-20.65c0-2.1.59-2.63,2.88-2.63H224c6.21,0,11.14,3.42,12.8,8.92a2,2,0,0,0,1.69,1.58c5.76,1.3,9.81,6,9.82,11.46q0,30.93,0,61.85a2.33,2.33,0,0,1-.68,1.94,2.06,2.06,0,0,1-3.3-.79,5.25,5.25,0,0,1-.19-2q0-30.22,0-60.44a8,8,0,0,0-5.09-7.88c-1.57-.72-1.77-.59-1.77,1.06q0,40.9,0,81.8c0,5.33-2.51,9.32-7.81,11.67a14.49,14.49,0,0,1-6,1q-33.62,0-67.24,0c-2.05,0-2.16.16-1.16,1.87,1.84,3.14,4.81,4.53,8.59,4.54,8.12,0,16.25,0,24.37,0h46.31c4.09,0,7.25-1.45,9-5a7.73,7.73,0,0,0,.71-3.66c0-5.12,0-10.25,0-15.37a4.65,4.65,0,0,1,.2-1.74,1.89,1.89,0,0,1,2.05-1.27,1.83,1.83,0,0,1,1.85,1.51,6.17,6.17,0,0,1,.06,1.29c0,4.85-.18,9.7.05,14.55.31,6.74-4.08,12-10.84,13.29Z"/><path class="cls-26" d="M188,1591.63c-9.4,0-18.8-.16-28.19,0-7.58.17-13-7.37-8.76-14,6.45-10.12,12.78-20.3,19.16-30.46,3-4.8,6-9.63,9.05-14.42a10.27,10.27,0,0,1,17.47,0c9.42,14.91,18.7,29.9,28.18,44.77,3.87,6.08,0,12.77-6.19,14a12.16,12.16,0,0,1-2.41.16Zm0-3.69c9.31,0,18.62,0,27.93,0,5.36,0,8.06-4.29,5.4-8.52q-13.94-22.26-27.93-44.49c-2.75-4.36-8-4.37-10.74,0q-10.44,16.61-20.85,33.21c-2.4,3.83-4.83,7.64-7.21,11.48a5.19,5.19,0,0,0,2.84,8,9.76,9.76,0,0,0,3.14.41Z"/><path class="cls-26" d="M188.14,1524a9.79,9.79,0,0,1-6.75-2.66,1.77,1.77,0,0,1-.18-2.72,2.17,2.17,0,0,1,3,0c2.85,2.13,4.89,2.14,7.72,0a2.17,2.17,0,0,1,3.05,0,1.79,1.79,0,0,1-.23,2.72A9.9,9.9,0,0,1,188.14,1524Z"/><path class="cls-26" d="M168.32,1518.35a11.88,11.88,0,0,1,0,2,2,2,0,0,1-4,0,22.77,22.77,0,0,1,0-4,1.81,1.81,0,0,1,2-1.65,2.1,2.1,0,0,1,2.12,2v1.63Z"/><path class="cls-26" d="M207.84,1518.28a16.67,16.67,0,0,1,0-2,1.73,1.73,0,0,1,1.76-1.57,1.8,1.8,0,0,1,2.13,1.3,9.88,9.88,0,0,1,0,4.65,1.78,1.78,0,0,1-2,1.33,1.82,1.82,0,0,1-1.89-1.6A16.51,16.51,0,0,1,207.84,1518.28Z"/><path class="cls-26" d="M188.09,1583.38H162c-2.09-.1-3-1.49-2-3.15,1.7-2.8,3.46-5.56,5.21-8.34l20.52-32.7c.11-.17.21-.34.32-.5,1.19-1.78,2.89-1.8,4,0q5,7.95,10,15.94l15.75,25.08c1.47,2.34.66,3.67-2.26,3.67Zm0-40.32c-.26.37-.38.53-.49.7q-10.87,17.31-21.74,34.65c-.71,1.12-.7,1.13.76,1.13h42.61c1.74,0,1.76,0,.9-1.38q-8.15-13-16.32-26Z"/><path class="cls-26" d="M185.55,1558.41c0-1,0-2,0-2.92,0-1.42.9-2.23,2.47-2.24a2.23,2.23,0,0,1,2.52,2.24c0,2.69-.21,5.38-.32,8.06,0,1.13-.09,2.26-.13,3.39a1.91,1.91,0,0,1-2,2.08,1.89,1.89,0,0,1-2.16-2.07c0-2.84,0-5.69,0-8.54Z"/><path class="cls-26" d="M188.05,1575.66a2.52,2.52,0,0,1-2.64-2.35,2.66,2.66,0,0,1,2.7-2.47,2.48,2.48,0,0,1,2.52,2.45A2.43,2.43,0,0,1,188.05,1575.66Z"/><rect class="cls-27" x="807.78" y="1149.49" width="535.55" height="145.34"/><rect class="cls-27" x="801.87" y="1367.01" width="535.55" height="145.34"/><rect class="cls-27" x="802.65" y="1593.81" width="535.55" height="145.34"/><path class="cls-7" d="M361.55,852.13V836.64c0-.23.13-.54-.14-.67s-.46.17-.66.3q-6.15,4.08-12.29,8.18a4,4,0,0,1-5.29-.55,3.28,3.28,0,0,1,1-4.91c2.4-1.57,4.78-3.18,7.17-4.77,3.88-2.57,7.74-5.16,11.62-7.73a4,4,0,0,1,4.5,0L386,838.9c2.17,1.45,2.51,3.78.78,5.36a3.64,3.64,0,0,1-4.36.47c-1.68-1-3.27-2.11-4.9-3.19l-7.87-5.23c-.21-.14-.42-.4-.68-.31s-.15.44-.15.66c0,6-.06,12,0,18,0,2.27.05,4.53,0,6.8a10.52,10.52,0,0,0,.18,1.77c.05.36-.2.66-.19,1a29.52,29.52,0,0,1,0,3.12,3.57,3.57,0,0,1-4.68,3.31,3.34,3.34,0,0,1-2.6-3.19c0-3.53,0-7.07,0-10.61Z"/><path class="cls-7" d="M365.38,879H387a5,5,0,0,1,3.07.75,3.21,3.21,0,0,1-.17,5.42,3.81,3.81,0,0,1-2.37.54H344.75c-.62,0-1.25,0-1.86,0a4.39,4.39,0,0,1-3.52-1.61c-.27-.28-.22-.62-.3-.93a3.3,3.3,0,0,1,3.08-4.1,20,20,0,0,1,2.05-.1Z"/><path class="cls-7" d="M804.27,842q0,7.71,0,15.41c0,.25-.15.61.13.74s.51-.18.74-.33l12.4-8.26a3.89,3.89,0,0,1,4.62.09,3.16,3.16,0,0,1,.76,4.31,3.11,3.11,0,0,1-1,1l-13.49,9c-1.85,1.23-3.68,2.46-5.53,3.68a3.88,3.88,0,0,1-4.5.06c-2.26-1.45-4.45-3-6.71-4.43-1.28-.82-2.48-1.72-3.82-2.47-.82-.45-1.52-1.08-2.3-1.61-2.11-1.43-4.24-2.82-6.33-4.27a3.11,3.11,0,0,1-.72-4.72,3.82,3.82,0,0,1,5-.68c2.64,1.71,5.24,3.48,7.85,5.22q2.4,1.6,4.81,3.2c.21.14.45.4.69.22s.18-.48,0-.72.12-.51.1-.82c-.11-1.13,0-2.28,0-3.42,0-8.59,0-17.18,0-25.78a3.71,3.71,0,0,1,5-4,3.27,3.27,0,0,1,2.29,3c0,2.24,0,4.48,0,6.72Z"/><path class="cls-7" d="M825.59,882.61a4.23,4.23,0,0,1-2.54.68c-3.07,0-6.14,0-9.21,0H778a3.5,3.5,0,0,1-3.53-2.23,3.17,3.17,0,0,1,1.2-3.74,5,5,0,0,1,3.15-.77h43.43a8.66,8.66,0,0,1,2,.19c2,.44,3.29,2.27,2.61,4A6.55,6.55,0,0,1,825.59,882.61Z"/></svg>