<svg xmlns="http://www.w3.org/2000/svg" xmlns:xlink="http://www.w3.org/1999/xlink" viewBox="0 0 638.66 751.45"><defs><style>.cls-1,.cls-4,.cls-5{fill:none;}.cls-1{stroke:#d1d1d1;stroke-width:20px;}.cls-1,.cls-4{stroke-miterlimit:10;}.cls-2,.cls-3{fill:#00277c;}.cls-3{font-size:28.78px;}.cls-3,.cls-6,.cls-8{font-family:COCOGOOSE-DemiBold, arial;font-weight:bold;}.cls-4,.cls-5{stroke-width:35px;}.cls-4{opacity:0.33;stroke:url(#Degradado_sin_nombre_2);}.cls-5{stroke-linecap:round;stroke-linejoin:round;stroke:url(#Degradado_sin_nombre_2-2);}.cls-6{font-size:23.36px;}.cls-6,.cls-7,.cls-8{fill:#362f70;}.cls-8{font-size:23.44px;}.cls-9{fill:#67277c;}</style><linearGradient id="Degradado_sin_nombre_2" x1="32.08" y1="285.96" x2="604.01" y2="285.96" gradientUnits="userSpaceOnUse"><stop offset="0" stop-color="#69267e"/><stop offset="0.5" stop-color="#512a78"/><stop offset="1" stop-color="#362f70"/></linearGradient><linearGradient id="Degradado_sin_nombre_2-2" x1="32.08" y1="151.73" x2="335.54" y2="151.73" xlink:href="#Degradado_sin_nombre_2"/></defs><g id="Capa_2" data-name="Capa 2"><g id="Capa_1-2" data-name="Capa 1"><rect class="cls-1" x="10" y="624.53" width="284.96" height="114.8" rx="29.16"/><path class="cls-2" d="M158.1,235.49c3.13,1.79,10.56,5,17.88,5,9.31,0,14.05-4.75,14-10.85,0-8.1-7.56-11.76-15.49-11.78H167.2V204.12h7c6,0,13.61-2.51,13.61-9.39,0-4.88-3.73-8.54-11.3-8.54-6.32,0-12.92,2.88-16,4.89l-3.69-13.77c4.65-3.17,13.81-6.19,23.77-6.19,16.43,0,25.5,9.17,25.5,20.39,0,8.58-4.64,15.44-14,19v.25c9.2,1.76,16.64,9.15,16.64,19.9,0,14.42-12,25-31.42,25-10,0-18.34-2.73-22.79-5.73Z"/><path class="cls-2" d="M277.28,213c0,25.17-9.61,42.57-29.19,42.57-19.87,0-28.65-19-28.72-42.05,0-23.73,9.36-42.41,29.23-42.41C269.14,171.12,277.28,190.61,277.28,213Zm-39.93.44c0,18.8,4.23,27.7,11.1,27.7s10.84-9.34,10.84-27.9c0-18.11-3.72-27.62-10.87-27.62C241.81,185.63,237.33,194.44,237.35,213.45Z"/><path class="cls-2" d="M380.17,221.8c-.38-10.27-.74-22.48-.7-34.9h-.32c-2.54,10.84-5.89,22.88-8.89,32.88l-9.75,33h-14l-8.58-32.73c-2.57-10-5.22-22-7.19-33.17h-.25c-.4,11.52-.84,24.6-1.32,35.15l-1.49,32.14H311l5.1-84.7h24l7.77,28.31c2.52,9.71,5,20.35,6.75,30.28H355c2.18-9.8,4.87-21,7.58-30.41l8.46-28.18h23.56l4.27,84.7h-17.5Z"/><path class="cls-2" d="M412.83,170.65a137.06,137.06,0,0,1,23.25-1.82c11,0,17.73,1.15,23.56,4.75a18.56,18.56,0,0,1,9.49,16.7c0,7.45-4.11,14.47-13.08,18v.32c9.1,2.53,15.86,9.91,15.86,20.76a23,23,0,0,1-8.29,18c-5.84,5-15.46,7.71-31.32,7.71a130.76,130.76,0,0,1-19.47-1.25Zm17.85,32.43h5.84c9.54,0,14.52-4.21,14.52-10.5s-4.59-9.83-12.72-9.83a36.43,36.43,0,0,0-7.64.59Zm0,37.48a41.69,41.69,0,0,0,6.91.35c8.18,0,15.37-3.37,15.37-12.29,0-8.47-7.14-11.86-16.12-11.87h-6.16Z"/><text class="cls-3" transform="translate(149.93 317.46) scale(0.94 1)">INTERNET FIBRA ÓPTICA</text><circle class="cls-4" cx="318.04" cy="285.96" r="268.46"/><path class="cls-5" d="M49.58,286C49.58,137.7,169.78,17.5,318,17.5"/><text class="cls-6" transform="translate(96.84 664.64)">V. DE SUBIDA</text><path class="cls-7" d="M103.21,707.2v-3.9l3.34-3.21c5.67-5.41,8.43-8.49,8.48-11.72,0-2.23-1.24-4-4.25-4a9.22,9.22,0,0,0-5.54,2.27l-1.7-4.61a13.74,13.74,0,0,1,8.46-2.84c5.89,0,9.09,3.65,9.09,8.64,0,4.62-3.12,8.34-6.89,11.88l-2.4,2.11v.09h9.8v5.31Z"/><path class="cls-7" d="M133.06,685.38H133l-4.93,2.49-1-4.84,6.87-3.39h5V707.2h-5.86Z"/><path class="cls-7" d="M179.2,696.27c-.13-3.47-.25-7.59-.24-11.78h-.11c-.85,3.66-2,7.72-3,11.1l-3.29,11.14h-4.73l-2.89-11c-.87-3.37-1.76-7.43-2.43-11.2h-.08c-.13,3.89-.28,8.3-.45,11.86l-.5,10.85h-5.62l1.72-28.58h8.1l2.62,9.55c.85,3.28,1.68,6.87,2.28,10.22h.13c.74-3.31,1.64-7.08,2.56-10.26l2.85-9.51h8l1.44,28.58h-5.9Z"/><path class="cls-7" d="M189.84,707.2c.08-1.37.16-3.84.16-6.2V677.09h6.07v11.83h.08A6.69,6.69,0,0,1,202,686c4.69,0,8.1,4.12,8.06,10.48,0,7.47-4.46,11.21-8.93,11.21a6.3,6.3,0,0,1-5.83-3.36h-.09L195,707.2Zm6.23-8.81a5.59,5.59,0,0,0,.1,1.13,3.77,3.77,0,0,0,3.57,3.08c2.58,0,4.19-2.14,4.19-5.87,0-3.23-1.36-5.77-4.18-5.77a3.78,3.78,0,0,0-3.56,3.18,5.65,5.65,0,0,0-.12,1.19Z"/><path class="cls-7" d="M213.84,693.42c0-2.73-.07-5-.16-7H219l.28,2.91h.08a7.38,7.38,0,0,1,6.5-3.37c4.26,0,8.1,3.95,8.1,10.57,0,7.57-4.53,11.12-8.87,11.12A5.88,5.88,0,0,1,220,705.3h-.08v10.3h-6.07Zm6.07,4.9a7,7,0,0,0,.12,1.34,3.73,3.73,0,0,0,3.55,3.06c2.62,0,4.18-2.35,4.18-5.87,0-3.3-1.38-5.82-4.08-5.82a3.88,3.88,0,0,0-3.63,3.26,4.91,4.91,0,0,0-.14,1.16Z"/><path class="cls-7" d="M237.66,701.58a11.34,11.34,0,0,0,5.21,1.54c1.83,0,2.61-.66,2.61-1.71s-.62-1.6-2.86-2.4c-4.06-1.42-5.59-3.77-5.56-6.21,0-3.9,3.09-6.82,7.93-6.82a12.32,12.32,0,0,1,5.5,1.21l-1.06,4.44a9.5,9.5,0,0,0-4.23-1.17c-1.48,0-2.33.63-2.33,1.67s.78,1.52,3.17,2.4c3.7,1.34,5.25,3.36,5.28,6.39,0,3.87-2.84,6.72-8.44,6.72a13.18,13.18,0,0,1-6.31-1.46Z"/><text class="cls-8" transform="translate(433.21 670.29)">V. DE BAJADA</text><path class="cls-7" d="M454,687.83h-.08l-4.95,2.5-1-4.86,6.91-3.41h5v27.68H454Z"/><path class="cls-7" d="M468.49,709.74v-3.92l3.35-3.22c5.7-5.44,8.47-8.53,8.52-11.77,0-2.24-1.25-4-4.26-4a9.31,9.31,0,0,0-5.57,2.27l-1.71-4.62a13.79,13.79,0,0,1,8.5-2.86c5.92,0,9.13,3.67,9.13,8.67,0,4.65-3.13,8.38-6.92,11.93l-2.42,2.13v.09H487v5.33Z"/><path class="cls-7" d="M522.59,698.76c-.12-3.48-.25-7.62-.23-11.82h-.11c-.86,3.67-2,7.75-3,11.14l-3.31,11.19h-4.74l-2.91-11.09c-.87-3.38-1.77-7.46-2.44-11.24h-.08c-.14,3.9-.29,8.33-.45,11.91l-.5,10.89h-5.65l1.73-28.7H509l2.63,9.59c.85,3.29,1.68,6.9,2.29,10.26h.13c.74-3.32,1.65-7.11,2.57-10.3l2.86-9.55h8l1.45,28.7H523Z"/><path class="cls-7" d="M533.28,709.74c.09-1.38.16-3.86.16-6.23v-24h6.1v11.88h.08a6.75,6.75,0,0,1,5.92-3c4.71,0,8.13,4.13,8.09,10.52,0,7.51-4.48,11.26-9,11.26a6.33,6.33,0,0,1-5.86-3.37h-.09l-.25,2.9Zm6.26-8.85a5.58,5.58,0,0,0,.11,1.14,3.79,3.79,0,0,0,3.58,3.09c2.59,0,4.21-2.15,4.21-5.89,0-3.25-1.37-5.8-4.19-5.8a3.82,3.82,0,0,0-3.59,3.19,6.51,6.51,0,0,0-.12,1.2Z"/><path class="cls-7" d="M557.4,695.9c0-2.74-.08-5-.16-7h5.29l.29,2.91h.08a7.42,7.42,0,0,1,6.53-3.38c4.28,0,8.14,4,8.14,10.61,0,7.6-4.55,11.17-8.92,11.17a5.9,5.9,0,0,1-5.08-2.38h-.08v10.34H557.4Zm6.09,4.92a6.38,6.38,0,0,0,.13,1.35,3.75,3.75,0,0,0,3.56,3.07c2.63,0,4.2-2.36,4.2-5.89,0-3.32-1.39-5.85-4.1-5.85a3.9,3.9,0,0,0-3.65,3.28,4.91,4.91,0,0,0-.14,1.16Z"/><path class="cls-7" d="M581.33,704.09a11.26,11.26,0,0,0,5.22,1.55c1.84,0,2.63-.66,2.63-1.72s-.62-1.6-2.88-2.41c-4.07-1.42-5.61-3.78-5.58-6.23,0-3.91,3.1-6.85,8-6.85a12.38,12.38,0,0,1,5.52,1.21l-1.06,4.46a9.56,9.56,0,0,0-4.25-1.17c-1.49,0-2.34.63-2.34,1.68s.78,1.52,3.18,2.4c3.72,1.35,5.28,3.38,5.3,6.42,0,3.89-2.85,6.76-8.47,6.76a13.38,13.38,0,0,1-6.35-1.47Z"/><path class="cls-9" d="M54.13,679.48V666.74c0-.19.1-.45-.1-.55s-.35.13-.51.24c-3.1,2.24-6.21,4.48-9.3,6.74a2.78,2.78,0,1,1-3.24-4.5c1.83-1.29,3.63-2.61,5.44-3.92l8.8-6.37a2.85,2.85,0,0,1,3.4,0L72.68,668.6c1.64,1.19,1.9,3.11.58,4.41a2.57,2.57,0,0,1-3.29.39c-1.28-.81-2.49-1.74-3.71-2.63l-6-4.31c-.15-.11-.31-.33-.51-.25s-.11.36-.11.55c0,4.94-.05,9.89,0,14.84,0,1.86,0,3.73,0,5.59a7.85,7.85,0,0,0,.14,1.46c0,.3-.16.54-.15.85,0,.85,0,1.71,0,2.57a2.76,2.76,0,1,1-5.51.1c0-2.91,0-5.83,0-8.74Z"/><path class="cls-9" d="M57,701.6H73.37a3.55,3.55,0,0,1,2.32.62,2.76,2.76,0,0,1-.13,4.46,2.67,2.67,0,0,1-1.79.44H41.41l-1.41,0a3.24,3.24,0,0,1-2.67-1.33c-.2-.23-.16-.51-.22-.77a2.69,2.69,0,0,1,2.33-3.37c.51-.05,1-.08,1.55-.08Z"/><rect class="cls-1" x="340.76" y="626.25" width="287.9" height="115.21" rx="29.16"/><path class="cls-9" d="M389.37,671.18q0,6.35,0,12.69c0,.21-.12.5.09.61s.39-.15.56-.27l9.4-6.81A2.77,2.77,0,0,1,403.5,681a2.31,2.31,0,0,1-.73.79l-10.22,7.41-4.18,3a2.76,2.76,0,0,1-3.41,0c-1.71-1.2-3.37-2.45-5.08-3.65-1-.67-1.88-1.42-2.89-2a20,20,0,0,1-1.74-1.33c-1.6-1.17-3.22-2.32-4.8-3.51a2.75,2.75,0,0,1,3.22-4.45c2,1.41,4,2.86,5.94,4.3l3.65,2.64c.15.11.33.32.52.17s.14-.39,0-.59.1-.42.07-.67c-.08-.93,0-1.88,0-2.82,0-7.07,0-14.14,0-21.22a3.51,3.51,0,0,1,.76-2.64,2.83,2.83,0,0,1,3-.7,2.68,2.68,0,0,1,1.74,2.52c0,1.84,0,3.68,0,5.53Z"/><path class="cls-9" d="M405.51,704.58a3,3,0,0,1-1.92.56H369.47a2.67,2.67,0,0,1-2.67-1.85,2.76,2.76,0,0,1,.91-3.08,3.68,3.68,0,0,1,2.39-.63H403a6.18,6.18,0,0,1,1.49.15,2.61,2.61,0,0,1,2,3.31A5.52,5.52,0,0,1,405.51,704.58Z"/></g></g></svg>