<svg id="Capa_1" data-name="Capa 1" xmlns="http://www.w3.org/2000/svg" xmlns:xlink="http://www.w3.org/1999/xlink" viewBox="0 0 1519.98 3094.76"><defs><style>.cls-1,.cls-27,.cls-8{fill:#fff;}.cls-2{fill:#e4e4e4;}.cls-3{fill:#d1d1d1;}.cls-12,.cls-13,.cls-20,.cls-21,.cls-22,.cls-23,.cls-24,.cls-25,.cls-4{fill:none;}.cls-4{stroke:#d1d1d1;stroke-width:20px;}.cls-12,.cls-20,.cls-21,.cls-22,.cls-23,.cls-24,.cls-25,.cls-26,.cls-27,.cls-4{stroke-miterlimit:10;}.cls-5,.cls-6{fill:#00277c;}.cls-6{font-size:45.26px;}.cls-16,.cls-18,.cls-6{font-family:'Poppins', sans-serif;font-weight:300;}.cls-26,.cls-7{fill:#67277c;}.cls-8{font-size:55.04px;}.cls-15,.cls-8{font-family:'Poppins', sans-serif;}.cls-9{letter-spacing:-0.1em;}.cls-10{opacity:0.31;fill:url(#Degradado_sin_nombre_2);}.cls-11{fill:url(#Degradado_sin_nombre_2-2);}.cls-12,.cls-13{stroke-width:35px;}.cls-12{opacity:0.33;stroke:url(#Degradado_sin_nombre_2-3);}.cls-13{stroke-linecap:round;stroke-linejoin:round;stroke:url(#Degradado_sin_nombre_2-4);}.cls-14{fill:url(#Degradado_sin_nombre_2-5);}.cls-15{font-size:52.65px;}.cls-15,.cls-16,.cls-17,.cls-18{fill:#362f70;}.cls-16{font-size:36.73px;}.cls-18{font-size:36.86px;}.cls-19{opacity:0.5;}.cls-20,.cls-21,.cls-23,.cls-24,.cls-25{stroke-width:15px;}.cls-20{stroke:url(#Degradado_sin_nombre_2-6);}.cls-21{stroke:url(#Degradado_sin_nombre_2-7);}.cls-22,.cls-26,.cls-27{stroke:#67277c;}.cls-22{stroke-width:5px;}.cls-23{stroke:url(#Degradado_sin_nombre_2-8);}.cls-24{stroke:url(#Degradado_sin_nombre_2-9);}.cls-25{stroke:url(#Degradado_sin_nombre_2-10);}</style><linearGradient id="Degradado_sin_nombre_2" x1="-10174.02" y1="76.69" x2="-8652.16" y2="76.69" gradientTransform="translate(10173.42 2926.85)" gradientUnits="userSpaceOnUse"><stop offset="0" stop-color="#69267e"/><stop offset="0.5" stop-color="#512a78"/><stop offset="1" stop-color="#362f70"/></linearGradient><linearGradient id="Degradado_sin_nombre_2-2" x1="-10174.69" y1="106.75" x2="-8652.16" y2="106.75" xlink:href="#Degradado_sin_nombre_2"/><linearGradient id="Degradado_sin_nombre_2-3" x1="301.88" y1="555.98" x2="1218.11" y2="555.98" gradientTransform="matrix(1, 0, 0, 1, 0, 0)" xlink:href="#Degradado_sin_nombre_2"/><linearGradient id="Degradado_sin_nombre_2-4" x1="301.88" y1="344.88" x2="777.49" y2="344.88" gradientTransform="matrix(1, 0, 0, 1, 0, 0)" xlink:href="#Degradado_sin_nombre_2"/><linearGradient id="Degradado_sin_nombre_2-5" x1="1672.55" y1="317.39" x2="1117.08" y2="-186.19" gradientTransform="matrix(1, 0, 0, 1, 0, 0)" xlink:href="#Degradado_sin_nombre_2"/><linearGradient id="Degradado_sin_nombre_2-6" x1="195.77" y1="1502.16" x2="422.62" y2="1502.16" gradientTransform="matrix(1, 0, 0, 1, 0, 0)" xlink:href="#Degradado_sin_nombre_2"/><linearGradient id="Degradado_sin_nombre_2-7" x1="224.97" y1="1944.67" x2="382.45" y2="1944.67" gradientTransform="matrix(1, 0, 0, 1, 0, 0)" xlink:href="#Degradado_sin_nombre_2"/><linearGradient id="Degradado_sin_nombre_2-8" x1="244.1" y1="2413.72" x2="395.1" y2="2413.72" gradientTransform="matrix(1, 0, 0, 1, 0, 0)" xlink:href="#Degradado_sin_nombre_2"/><linearGradient id="Degradado_sin_nombre_2-9" x1="244.11" y1="2368.7" x2="395.42" y2="2368.7" gradientTransform="matrix(1, 0, 0, 1, 0, 0)" xlink:href="#Degradado_sin_nombre_2"/><linearGradient id="Degradado_sin_nombre_2-10" x1="356" y1="2316.21" x2="357.63" y2="2316.21" gradientTransform="matrix(1, 0, 0, 1, 0, 0)" xlink:href="#Degradado_sin_nombre_2"/></defs><rect class="cls-1" width="1519.98" height="3094.76"/><rect class="cls-2" x="494.49" y="1442.75" width="797.65" height="156.86" rx="10.19"/><rect class="cls-2" x="490.96" y="1878.49" width="797.65" height="156.86" rx="10.19"/><rect class="cls-3" x="505.37" y="2319.5" width="797.65" height="156.86" rx="10.19"/><rect class="cls-4" x="254.42" y="1088.43" width="467.69" height="180.55" rx="29.16"/><path class="cls-5" d="M497.49,476.6c5.14,2.82,17.33,7.82,29.33,7.82,15.29,0,23.07-7.48,23-17.07-.06-12.74-12.4-18.49-25.42-18.53h-12V427.26h11.52c9.87,0,22.33-3.94,22.33-14.76,0-7.67-6.11-13.44-18.54-13.44-10.37,0-21.2,4.53-26.32,7.69l-6.05-21.65c7.62-5,22.66-9.73,39-9.73,27,0,41.85,14.42,41.85,32.06,0,13.5-7.61,24.28-23,29.8v.39c15.11,2.78,27.32,14.4,27.32,31.3,0,22.68-19.63,39.27-51.57,39.27-16.36,0-30.11-4.29-37.41-9Z"/><path class="cls-5" d="M693.09,441.25c0,39.58-15.77,66.94-47.91,66.94-32.62,0-47-29.79-47.14-66.13,0-37.33,15.37-66.69,48-66.69C679.74,375.37,693.09,406,693.09,441.25Zm-65.53.68c-.08,29.57,6.94,43.56,18.22,43.56,11.49,0,17.79-14.67,17.79-43.87,0-28.48-6.11-43.44-17.85-43.44C634.87,398.18,627.52,412,627.56,441.93Z"/><path class="cls-5" d="M862,455.06c-.61-16.14-1.21-35.35-1.14-54.88h-.53c-4.17,17.05-9.67,36-14.58,51.71l-16,51.94h-23l-14.08-51.48c-4.22-15.69-8.57-34.61-11.81-52.17h-.4c-.65,18.12-1.38,38.69-2.17,55.28L775.81,506H748.46l8.37-133.21h39.41L809,417.32c4.14,15.27,8.17,32,11.09,47.63h.63c3.57-15.42,8-33,12.44-47.83L847,372.8H885.7l7,133.21H864Z"/><path class="cls-5" d="M915.56,374.63c7.78-1.54,23.35-2.87,38.15-2.87,18,0,29.11,1.82,38.67,7.47A29,29,0,0,1,1008,405.5c0,11.72-6.74,22.76-21.47,28.33v.5c14.93,4,26,15.6,26,32.65a35.54,35.54,0,0,1-13.6,28.3c-9.59,7.84-25.37,12.12-51.41,12.12a224.21,224.21,0,0,1-32-2Zm29.3,51h9.58c15.66,0,23.84-6.62,23.84-16.52,0-10.12-7.54-15.45-20.89-15.45a62.55,62.55,0,0,0-12.53.92Zm0,58.95a72.3,72.3,0,0,0,11.33.54c13.43,0,25.23-5.29,25.23-19.32,0-13.33-11.72-18.66-26.46-18.67h-10.1Z"/><text class="cls-6" transform="translate(484.08 605.5) scale(0.98 1)">INTERNET FIBRA ÓPTICA</text><rect class="cls-7" x="517.71" y="657.03" width="484.57" height="106.95" rx="21.23"/><text class="cls-8" transform="translate(609.1 729.53) scale(0.98 1)">SOLICI<tspan class="cls-9" x="193.5" y="0">T</tspan><tspan x="224.77" y="0">AR</tspan></text><path class="cls-10" d="M1521.26,3095.16v-52.52s-220.68-224.36-733.81-85.22C446.19,3050,238.72,3046.25-.6,2931.51v163.65Z"/><path class="cls-11" d="M1521.26,3095.16v-52.52s-312.6-141.31-733.81-24.14C446.58,3113.32,238.72,3107.72-.6,2993c0,0-.68,94.15-.68,102.18Z"/><ellipse class="cls-12" cx="759.99" cy="555.98" rx="440.62" ry="422.2"/><path class="cls-13" d="M319.38,556c0-233.18,197.27-422.21,440.61-422.21"/><path class="cls-14" d="M1200.61,0s74.11,223.71,320.17,289.45V0Z"/><path class="cls-1" d="M1280.76,108.37a17.07,17.07,0,0,0,8,2.13c3.32,0,5.08-1.46,5.08-3.7,0-2.09-1.52-3.32-5.35-4.75-5.33-2-8.82-5.1-8.82-10.07,0-5.79,4.58-10.2,12.09-10.2a18,18,0,0,1,8.17,1.71l-1.6,6.16a14.66,14.66,0,0,0-6.67-1.61c-3.15,0-4.65,1.55-4.65,3.29,0,2.16,1.77,3.11,5.91,4.78,5.66,2.24,8.28,5.37,8.28,10.17,0,5.68-4.08,10.55-12.88,10.55a19.73,19.73,0,0,1-9-2.11Z"/><path class="cls-1" d="M1303.75,118.32l10.15-36.57h4.79l-10.17,36.57Z"/><path class="cls-1" d="M1321.05,112.2c0-2.73,1.77-4.67,4.26-4.67s4.22,1.89,4.25,4.67-1.7,4.65-4.26,4.65S1321,114.91,1321.05,112.2Z"/><path class="cls-1" d="M1397.64,59.59V70.46l-28.63,63h-17.25l28.64-59.4v-.23h-31.86V59.59Z"/><path class="cls-1" d="M1453.5,73.82h-27l-1.49,11.31a34.45,34.45,0,0,1,4.5-.24c6.63,0,13.44,1.64,18.33,5.33,5.22,3.81,8.42,10,8.42,18.58,0,13.79-11.11,25.91-29.84,25.91-8.41,0-15.44-2.05-19.35-4.19l3-13a37.17,37.17,0,0,0,15.65,3.69c6.76,0,13.92-3.43,13.9-11.29,0-7.57-5.71-12.27-19.56-12.27a62.06,62.06,0,0,0-9.35.68l4.51-38.75h38.28Z"/><text class="cls-15" transform="translate(511.19 1408.49) scale(1.04 1)">V. CONTRATADA</text><text class="cls-16" transform="translate(396.93 1151.51) scale(1.04 1)">V. DE SUBIDA</text><text class="cls-15" transform="translate(503.04 1850.9) scale(1.04 1)">V. GARANTIZADA</text><path class="cls-17" d="M702.77,1534.64a32.76,32.76,0,0,0,14.21,3.79c7.4,0,11.16-3.63,11.15-8.27,0-6.16-6-9-12.31-9H710v-10.44h5.58c4.78,0,10.81-1.9,10.81-7.14,0-3.72-3-6.51-9-6.51a26.89,26.89,0,0,0-12.75,3.73l-2.93-10.49c3.69-2.42,11-4.71,18.89-4.71,13,0,20.26,7,20.26,15.52,0,6.54-3.69,11.76-11.16,14.43v.19c7.32,1.34,13.23,7,13.23,15.15,0,11-9.51,19-25,19-7.92,0-14.58-2.07-18.11-4.35Z"/><path class="cls-17" d="M797.47,1517.52c0,19.17-7.64,32.41-23.2,32.41-15.79,0-22.76-14.42-22.82-32,0-18.07,7.44-32.29,23.23-32.29C791,1485.63,797.47,1500.47,797.47,1517.52Zm-31.73.34c0,14.31,3.36,21.09,8.82,21.09s8.62-7.11,8.62-21.24c0-13.79-3-21-8.65-21C769.28,1496.67,765.72,1503.38,765.74,1517.86Z"/><path class="cls-17" d="M879.22,1524.21c-.3-7.81-.59-17.11-.55-26.57h-.26c-2,8.26-4.68,17.43-7.06,25l-7.76,25.14H852.47l-6.82-24.92c-2-7.59-4.14-16.75-5.71-25.26h-.2c-.31,8.78-.66,18.73-1,26.76l-1.19,24.48H824.27l4.05-64.49H847.4l6.18,21.55c2,7.39,3.95,15.5,5.37,23.06h.3c1.73-7.47,3.87-16,6-23.16l6.73-21.45h18.72l3.4,64.49H880.2Z"/><path class="cls-17" d="M904.27,1548.88c.2-3.1.38-8.67.38-14v-54h14.29v26.69h.19c2.73-4,7.49-6.64,13.87-6.64,11,0,19.08,9.3,19,23.65,0,16.87-10.49,25.29-21,25.29-5.37,0-10.54-2-13.74-7.57H917l-.6,6.52ZM918.94,1529a12.56,12.56,0,0,0,.25,2.56,8.79,8.79,0,0,0,8.42,6.93c6.06,0,9.85-4.82,9.85-13.24,0-7.28-3.2-13-9.83-13a8.82,8.82,0,0,0-8.4,7.19,13.44,13.44,0,0,0-.29,2.69Z"/><path class="cls-17" d="M960.81,1517.78c0-6.15-.18-11.34-.38-15.74h12.42l.66,6.56h.19c3.41-4.94,8.64-7.61,15.31-7.61,10.06,0,19.1,8.91,19.1,23.86,0,17.07-10.68,25.08-20.91,25.08-5.49,0-9.88-2.25-11.91-5.34h-.19v23.24H960.81Zm14.29,11a13.83,13.83,0,0,0,.29,3,8.7,8.7,0,0,0,8.35,6.91c6.17,0,9.86-5.3,9.86-13.25,0-7.45-3.27-13.14-9.63-13.14a9,9,0,0,0-8.55,7.36,10.72,10.72,0,0,0-.32,2.61Z"/><path class="cls-17" d="M1016.91,1536.19a27.38,27.38,0,0,0,12.25,3.49c4.32,0,6.16-1.49,6.16-3.87s-1.46-3.6-6.74-5.42c-9.56-3.2-13.16-8.5-13.11-14,0-8.79,7.29-15.4,18.7-15.4a30,30,0,0,1,12.94,2.73l-2.49,10a23,23,0,0,0-9.95-2.64c-3.49,0-5.49,1.41-5.49,3.77s1.82,3.43,7.46,5.41c8.72,3,12.37,7.58,12.43,14.41,0,8.74-6.69,15.18-19.86,15.18a32.41,32.41,0,0,1-14.89-3.29Z"/><path class="cls-17" d="M692.09,1982.41v-8.81l7.85-7.23c13.36-12.22,19.87-19.17,20-26.44,0-5-2.92-9.07-10-9.07-5.25,0-9.84,2.68-13.06,5.11l-4-10.39a33.3,33.3,0,0,1,19.95-6.42c13.86,0,21.39,8.24,21.39,19.49,0,10.44-7.33,18.82-16.23,26.8l-5.65,4.78v.19H735.4v12Z"/><path class="cls-17" d="M762.38,1933.17h-.18l-11.61,5.62-2.36-10.91,16.18-7.67H776.2v62.2H762.38Z"/><path class="cls-17" d="M871.05,1957.74c-.29-7.81-.58-17.11-.55-26.57h-.25c-2,8.26-4.68,17.42-7.06,25l-7.76,25.14H844.31l-6.82-24.92c-2-7.6-4.14-16.76-5.71-25.26h-.2c-.31,8.78-.67,18.73-1.05,26.76l-1.18,24.48H816.11l4-64.49h19.08l6.18,21.55c2,7.39,4,15.5,5.36,23.06h.31c1.73-7.47,3.87-16,6-23.16l6.72-21.45h18.72l3.4,64.49H872Z"/><path class="cls-17" d="M896.11,1982.41c.2-3.1.38-8.67.38-14v-54h14.29v26.69H911c2.72-4,7.49-6.64,13.87-6.64,11,0,19.08,9.3,19,23.65,0,16.87-10.49,25.29-21,25.29-5.37,0-10.54-2-13.74-7.57h-.2l-.6,6.52Zm14.67-19.88a11.89,11.89,0,0,0,.25,2.56,8.77,8.77,0,0,0,8.41,6.93c6.07,0,9.86-4.82,9.86-13.24,0-7.28-3.2-13-9.83-13a8.82,8.82,0,0,0-8.4,7.19,12.75,12.75,0,0,0-.29,2.69Z"/><path class="cls-17" d="M952.64,1951.31c0-6.15-.17-11.35-.37-15.74h12.42l.66,6.56h.19c3.4-4.94,8.64-7.61,15.31-7.61,10,0,19.09,8.91,19.09,23.86,0,17.07-10.67,25.08-20.9,25.08-5.49,0-9.89-2.25-11.92-5.34h-.18v23.24h-14.3Zm14.3,11a14.49,14.49,0,0,0,.28,3,8.72,8.72,0,0,0,8.36,6.91c6.17,0,9.86-5.31,9.86-13.25,0-7.45-3.27-13.14-9.63-13.14a9,9,0,0,0-8.55,7.36,10.72,10.72,0,0,0-.32,2.61Z"/><path class="cls-17" d="M1008.75,1969.72a27.38,27.38,0,0,0,12.25,3.49c4.32,0,6.16-1.49,6.16-3.87s-1.46-3.6-6.75-5.42c-9.55-3.2-13.15-8.5-13.1-14,0-8.79,7.29-15.4,18.69-15.4a30,30,0,0,1,13,2.73l-2.49,10a23,23,0,0,0-10-2.64c-3.49,0-5.48,1.41-5.48,3.77s1.82,3.43,7.45,5.41c8.73,3,12.38,7.58,12.44,14.41,0,8.74-6.7,15.18-19.87,15.18a32.39,32.39,0,0,1-14.88-3.29Z"/><path class="cls-17" d="M407.4,1218.44v-6.14l5.47-5c9.31-8.52,13.85-13.36,13.92-18.43,0-3.52-2-6.32-7-6.32-3.66,0-6.86,1.87-9.11,3.56l-2.79-7.24a23.21,23.21,0,0,1,13.9-4.47c9.66,0,14.91,5.74,14.91,13.58,0,7.27-5.11,13.11-11.31,18.68l-3.94,3.33v.13h16.09v8.35Z"/><path class="cls-17" d="M456.39,1184.13h-.14l-8.08,3.92-1.65-7.61,11.28-5.34H466v43.34h-9.62Z"/><path class="cls-17" d="M532.11,1201.25c-.2-5.44-.4-11.92-.38-18.51h-.18c-1.41,5.75-3.26,12.14-4.92,17.44l-5.4,17.53h-7.75l-4.75-17.37c-1.43-5.29-2.89-11.68-4-17.6h-.13c-.22,6.11-.47,13-.73,18.65l-.83,17h-9.22l2.82-44.94H510l4.3,15c1.39,5.15,2.75,10.8,3.74,16.07h.21c1.21-5.2,2.7-11.13,4.2-16.14l4.68-15h13l2.37,44.94h-9.7Z"/><path class="cls-17" d="M549.57,1218.44c.14-2.16.27-6,.27-9.75V1171.1h10v18.6h.13c1.9-2.81,5.22-4.63,9.66-4.63,7.7,0,13.3,6.48,13.22,16.48,0,11.75-7.31,17.63-14.65,17.63a10.46,10.46,0,0,1-9.58-5.28h-.13l-.42,4.54Zm10.23-13.85a8.75,8.75,0,0,0,.17,1.78,6.12,6.12,0,0,0,5.86,4.83c4.23,0,6.87-3.35,6.87-9.22,0-5.08-2.23-9.08-6.85-9.08a6.14,6.14,0,0,0-5.85,5,9.42,9.42,0,0,0-.2,1.88Z"/><path class="cls-17" d="M589,1196.77c0-4.29-.12-7.9-.26-11h8.65l.47,4.57H598a12.31,12.31,0,0,1,10.66-5.3c7,0,13.31,6.21,13.31,16.63,0,11.89-7.44,17.48-14.56,17.48-3.83,0-6.89-1.57-8.31-3.73h-.13v16.2H589Zm10,7.7a10.11,10.11,0,0,0,.2,2.12,6.06,6.06,0,0,0,5.82,4.81c4.3,0,6.87-3.69,6.87-9.23,0-5.19-2.27-9.15-6.71-9.15a6.27,6.27,0,0,0-6,5.13,7.18,7.18,0,0,0-.23,1.81Z"/><path class="cls-17" d="M628.07,1209.6a19,19,0,0,0,8.54,2.43c3,0,4.29-1,4.29-2.7s-1-2.51-4.7-3.77c-6.66-2.23-9.17-5.93-9.13-9.76,0-6.13,5.07-10.73,13-10.73a21,21,0,0,1,9,1.9l-1.73,7a16.08,16.08,0,0,0-6.94-1.84c-2.43,0-3.82,1-3.82,2.63s1.27,2.39,5.19,3.77c6.08,2.1,8.63,5.28,8.67,10,0,6.09-4.67,10.58-13.84,10.58a22.63,22.63,0,0,1-10.38-2.29Z"/><text class="cls-15" transform="translate(513.97 2290.24) scale(1.04 1)">V. REGULADA</text><text class="cls-18" transform="translate(949.01 1160.39) scale(1.04 1)">V. DE BAJADA</text><path class="cls-17" d="M721.2,2369.37H721L709.4,2375,707,2364.07l16.19-7.67H735v62.2H721.2Z"/><path class="cls-17" d="M755.14,2418.6v-8.81l7.86-7.23c13.36-12.22,19.86-19.17,20-26.44,0-5-2.92-9.07-10-9.07-5.26,0-9.85,2.68-13.07,5.11l-4-10.39a33.27,33.27,0,0,1,19.94-6.42c13.87,0,21.4,8.24,21.4,19.49,0,10.44-7.34,18.82-16.23,26.81l-5.66,4.77v.19h23.1v12Z"/><path class="cls-17" d="M882,2393.93c-.3-7.81-.58-17.11-.55-26.56h-.26c-2,8.25-4.68,17.42-7.06,25l-7.75,25.14H855.25l-6.82-24.92c-2-7.59-4.15-16.75-5.72-25.25h-.2c-.31,8.77-.66,18.72-1,26.76l-1.18,24.47H827.05l4.05-64.49h19.08l6.17,21.55c2,7.4,3.95,15.5,5.37,23.06h.3c1.73-7.47,3.88-16,6-23.16l6.73-21.45h18.72l3.4,64.49H883Z"/><path class="cls-17" d="M907,2418.6c.2-3.1.38-8.67.38-14v-54h14.29v26.69h.19c2.73-4,7.5-6.64,13.87-6.64,11.05,0,19.08,9.3,19,23.65,0,16.87-10.49,25.29-21,25.29-5.37,0-10.54-2-13.74-7.57h-.19l-.61,6.52Zm14.67-19.88a12.41,12.41,0,0,0,.25,2.56,8.79,8.79,0,0,0,8.42,6.93c6.07,0,9.85-4.81,9.85-13.23,0-7.29-3.19-13-9.83-13a8.83,8.83,0,0,0-8.4,7.19,13.52,13.52,0,0,0-.29,2.69Z"/><path class="cls-17" d="M963.58,2387.5c0-6.15-.18-11.34-.38-15.73h12.42l.67,6.55h.18c3.41-4.94,8.64-7.61,15.31-7.61,10.06,0,19.1,8.91,19.1,23.86,0,17.07-10.68,25.08-20.91,25.08-5.48,0-9.88-2.25-11.91-5.34h-.19v23.24H963.58Zm14.29,11.05a14.46,14.46,0,0,0,.29,3,8.7,8.7,0,0,0,8.35,6.91c6.17,0,9.86-5.3,9.86-13.25,0-7.45-3.27-13.14-9.63-13.14a9,9,0,0,0-8.54,7.37,10.18,10.18,0,0,0-.33,2.6Z"/><path class="cls-17" d="M1019.68,2405.91a27.46,27.46,0,0,0,12.26,3.49c4.31,0,6.15-1.48,6.15-3.87s-1.46-3.6-6.74-5.42c-9.56-3.2-13.16-8.5-13.1-14,0-8.79,7.28-15.4,18.69-15.4a30,30,0,0,1,12.94,2.73l-2.48,10a23.2,23.2,0,0,0-10-2.64c-3.49,0-5.49,1.41-5.49,3.77s1.83,3.43,7.46,5.41c8.72,3,12.37,7.59,12.43,14.42,0,8.73-6.69,15.18-19.86,15.18a32.3,32.3,0,0,1-14.89-3.3Z"/><path class="cls-17" d="M983.15,1188H983l-8.13,3.93-1.65-7.64,11.33-5.37h8.25v43.55h-9.67Z"/><path class="cls-17" d="M1006.91,1222.44v-6.17l5.5-5.06c9.36-8.56,13.91-13.42,14-18.51,0-3.54-2.05-6.35-7-6.35-3.68,0-6.89,1.88-9.15,3.58l-2.8-7.28a23.31,23.31,0,0,1,14-4.49c9.71,0,15,5.76,15,13.64,0,7.31-5.13,13.17-11.36,18.77l-4,3.34v.13h16.17v8.4Z"/><path class="cls-17" d="M1095.71,1205.17c-.2-5.47-.4-12-.38-18.6h-.18c-1.41,5.78-3.28,12.19-4.94,17.52l-5.43,17.61H1077l-4.77-17.45c-1.43-5.32-2.9-11.73-4-17.68h-.14c-.22,6.14-.47,13.11-.73,18.73l-.83,17.14h-9.27l2.84-45.15h13.35l4.33,15.09c1.4,5.17,2.76,10.85,3.75,16.14h.22c1.21-5.23,2.71-11.18,4.21-16.21l4.71-15h13.11l2.37,45.15h-9.74Z"/><path class="cls-17" d="M1113.25,1222.44c.14-2.17.27-6.08.27-9.8v-37.77h10v18.69h.14c1.9-2.82,5.24-4.65,9.71-4.65,7.73,0,13.35,6.51,13.27,16.56,0,11.8-7.34,17.7-14.71,17.7a10.5,10.5,0,0,1-9.62-5.3h-.14l-.42,4.57Zm10.27-13.92a8.22,8.22,0,0,0,.18,1.79,6.14,6.14,0,0,0,5.89,4.85c4.25,0,6.9-3.37,6.9-9.26,0-5.1-2.24-9.13-6.88-9.13a6.16,6.16,0,0,0-5.88,5,8.75,8.75,0,0,0-.21,1.89Z"/><path class="cls-17" d="M1152.83,1200.67c0-4.31-.12-8-.26-11h8.69l.47,4.59h.13a12.36,12.36,0,0,1,10.72-5.33c7,0,13.37,6.24,13.37,16.7,0,12-7.48,17.56-14.64,17.56-3.84,0-6.92-1.57-8.34-3.74h-.13v16.27h-10Zm10,7.73a10.14,10.14,0,0,0,.2,2.13,6.09,6.09,0,0,0,5.85,4.83c4.32,0,6.9-3.71,6.9-9.27,0-5.22-2.29-9.2-6.74-9.2a6.31,6.31,0,0,0-6,5.16,7.82,7.82,0,0,0-.22,1.82Z"/><path class="cls-17" d="M1192.11,1213.55a19,19,0,0,0,8.58,2.44c3,0,4.31-1,4.31-2.71s-1-2.52-4.73-3.79c-6.69-2.24-9.21-6-9.17-9.8,0-6.15,5.1-10.78,13.09-10.78a21,21,0,0,1,9.06,1.91l-1.74,7a16.22,16.22,0,0,0-7-1.85c-2.45,0-3.84,1-3.84,2.64s1.27,2.4,5.22,3.79c6.1,2.11,8.66,5.31,8.7,10.09,0,6.12-4.68,10.63-13.91,10.63a22.59,22.59,0,0,1-10.41-2.31Z"/><g class="cls-19"><path class="cls-20" d="M411,1470.51q-18.56-17.91-37.24-35.7a13,13,0,0,0-4.85-3.28,11.08,11.08,0,0,0-11.9,2.73q-11.65,11.22-23.36,22.4c-.79.76-1.38,1.46-2.76.66-7.83-4.58-15.4-3.81-22,2.2a1.83,1.83,0,0,1-2.62.26c-6.2-3.68-12.5-3.66-18.71-.07a2,2,0,0,1-2.92-.38c-7.52-7.25-15.1-14.45-22.66-21.67-5.82-5.56-12-5.55-17.87,0Q226,1455,208,1472.26a18.64,18.64,0,0,0-4.72,6.41v5.14a15.82,15.82,0,0,0,4.34,6.17c3.32,3.07,6.53,6.25,9.81,9.36,4.76,4.53,10,4.94,15.37,1.14a1.49,1.49,0,0,1,2.27.15q11.22,10.8,22.5,21.55a1.4,1.4,0,0,1,.17,2.2c-5.1,7.11-1.87,15.37,6.8,17.41a2.17,2.17,0,0,1,2,1.87c1,4.64,4.06,7.58,8.87,8.61a2.27,2.27,0,0,1,2.07,2,10.73,10.73,0,0,0,9,8.49,2.14,2.14,0,0,1,2,1.9,11.13,11.13,0,0,0,9.68,8.76c5.4.51,9.8-1.86,12-6.62.55-1.23,1.21-1.43,2.48-1.34,5.75.38,10.4-2.85,11.72-8.22a2.83,2.83,0,0,1,2.57-2.48c4.66-1,7.57-3.89,8.43-8.45a2,2,0,0,1,1.89-1.87c4.85-.93,8-3.72,9-8.4a2.31,2.31,0,0,1,2-2c5.57-1.31,8.57-4.62,9.28-10.06a3.48,3.48,0,0,1,1-2.3q12.36-11.8,24.68-23.65a1.41,1.41,0,0,1,2.23-.15c5,3.77,10.49,3.51,15.07-.72,3.56-3.3,7-6.7,10.53-10.07C416.45,1481.68,416.55,1475.84,411,1470.51Zm-182,23.51"/></g><path class="cls-1" d="M408.1,1469.5q-18.57-17.91-37.24-35.7a13,13,0,0,0-4.86-3.28,11.07,11.07,0,0,0-11.9,2.73q-11.66,11.22-23.36,22.4c-.79.76-1.38,1.46-2.76.65-7.83-4.57-15.4-3.8-22,2.2a1.82,1.82,0,0,1-2.62.26c-6.2-3.68-12.5-3.65-18.71-.06a2,2,0,0,1-2.92-.38c-7.52-7.26-15.1-14.46-22.66-21.67-5.82-5.56-12-5.55-17.87,0q-18,17.28-36.1,34.55a18.73,18.73,0,0,0-4.72,6.41v5.15a16,16,0,0,0,4.34,6.17c3.32,3.07,6.53,6.25,9.81,9.36,4.77,4.52,10,4.93,15.37,1.14a1.48,1.48,0,0,1,2.27.15q11.22,10.8,22.5,21.55a1.39,1.39,0,0,1,.18,2.19c-5.11,7.12-1.88,15.38,6.79,17.42a2.14,2.14,0,0,1,1.95,1.87c1,4.63,4.06,7.57,8.88,8.6a2.28,2.28,0,0,1,2.06,2,10.72,10.72,0,0,0,9,8.48,2.12,2.12,0,0,1,1.94,1.91,11.13,11.13,0,0,0,9.69,8.75c5.39.51,9.79-1.85,11.95-6.62.56-1.22,1.21-1.42,2.48-1.34,5.75.39,10.4-2.85,11.72-8.22a2.86,2.86,0,0,1,2.57-2.48c4.67-1,7.58-3.88,8.43-8.44a2,2,0,0,1,1.9-1.87c4.84-.94,8-3.73,9-8.41a2.32,2.32,0,0,1,2-2c5.56-1.3,8.57-4.62,9.27-10.06a3.52,3.52,0,0,1,1-2.29q12.36-11.8,24.68-23.66a1.42,1.42,0,0,1,2.23-.15c5,3.78,10.49,3.52,15.07-.72,3.57-3.3,7-6.69,10.53-10.06C413.52,1480.67,413.62,1474.82,408.1,1469.5Zm-182,23.5"/><path class="cls-7" d="M200.33,1477.65a18.54,18.54,0,0,1,4.71-6.4q18.09-17.25,36.1-34.56c5.84-5.59,12.05-5.6,17.87,0,7.56,7.22,15.14,14.42,22.66,21.67a2,2,0,0,0,2.92.38c6.21-3.59,12.51-3.62,18.71.07a1.83,1.83,0,0,0,2.62-.26c6.64-6,14.21-6.78,22-2.21,1.38.81,2,.11,2.76-.65q11.68-11.2,23.36-22.4a11.08,11.08,0,0,1,11.9-2.73,13,13,0,0,1,4.86,3.28q18.63,17.84,37.24,35.7c5.52,5.32,5.42,11.17-.11,16.51-3.49,3.37-7,6.76-10.53,10.06-4.58,4.24-10.07,4.5-15.07.73a1.41,1.41,0,0,0-2.23.15q-12.3,11.85-24.68,23.65a3.53,3.53,0,0,0-1,2.3c-.7,5.44-3.71,8.75-9.27,10.06a2.3,2.3,0,0,0-2,2c-1.07,4.67-4.19,7.47-9,8.4a2,2,0,0,0-1.9,1.87c-.85,4.56-3.76,7.42-8.43,8.44a2.86,2.86,0,0,0-2.57,2.49c-1.32,5.37-6,8.6-11.72,8.22-1.27-.09-1.92.11-2.48,1.34-2.16,4.76-6.56,7.13-12,6.62a11.15,11.15,0,0,1-9.69-8.76,2.13,2.13,0,0,0-1.94-1.91,10.72,10.72,0,0,1-9-8.48,2.26,2.26,0,0,0-2.06-2c-4.82-1-7.86-4-8.88-8.61a2.15,2.15,0,0,0-1.95-1.87c-8.67-2-11.9-10.3-6.79-17.41a1.4,1.4,0,0,0-.18-2.2q-11.28-10.76-22.5-21.55a1.49,1.49,0,0,0-2.27-.15c-5.37,3.8-10.6,3.39-15.37-1.14-3.28-3.11-6.49-6.29-9.81-9.36a15.87,15.87,0,0,1-4.33-6.17Zm91.46,21.49a13,13,0,0,1-5.47-1,10.71,10.71,0,0,1-3.23-17.75c4.86-4.85,9.87-9.57,14.9-14.27,1.36-1.26.91-1.69-.52-2.23a10.22,10.22,0,0,0-11,2.52c-2.42,2.46-4.3,2.5-6.84.11-2.16-2-4.33-4.07-6.41-6.18-.91-.93-1.49-1-2.47,0q-16.6,16-33.3,31.92c-.92.87-1.07,1.44-.07,2.4q12.31,11.7,24.55,23.5a3.79,3.79,0,0,0,2.33,1.08c6,.67,9,3.24,10.67,8.89a2.14,2.14,0,0,0,1.89,1.75c4.95,1,8,4,9,8.69a1.92,1.92,0,0,0,1.78,1.72c4.86,1.07,8,3.85,9.12,8.63a2.1,2.1,0,0,0,2,1.92,11.88,11.88,0,0,1,6.56,3.49,32.75,32.75,0,0,0,2.54,2.33,3.82,3.82,0,0,0,5.07-.25,3.51,3.51,0,0,0,.4-5,14.71,14.71,0,0,0-1.41-1.44q-9.86-9.45-19.71-18.9c-2.29-2.2-2.59-4.5-.89-6s3.84-1.34,6.3,1l1.17,1.12q9.12,8.75,18.26,17.49a11.34,11.34,0,0,0,2.22,1.75,3.75,3.75,0,0,0,4.42-.42,3.28,3.28,0,0,0,.9-4.14,8.23,8.23,0,0,0-2.1-2.66q-9.5-9.1-19-18.21a12.85,12.85,0,0,1-1.89-2.09,3.19,3.19,0,0,1,.54-4.34,3.43,3.43,0,0,1,4.35-.56,11.82,11.82,0,0,1,2.36,1.88q9.45,9,18.86,18a16.26,16.26,0,0,0,2,1.72,4.44,4.44,0,0,0,5-.15,3.67,3.67,0,0,0,.48-4.73,14.13,14.13,0,0,0-2-2.25q-9.48-9.12-19-18.21a7.6,7.6,0,0,1-1.92-2.31,3.23,3.23,0,0,1,.89-4,3.4,3.4,0,0,1,4.18-.52,10,10,0,0,1,2,1.65q9.58,9.15,19.15,18.32a12.87,12.87,0,0,0,2.54,2,3.65,3.65,0,0,0,4.56-.48,3.37,3.37,0,0,0,.67-4.52,8.13,8.13,0,0,0-1.27-1.54q-16.71-16-33.42-32.08c-1.1-1.06-1.79-1-2.85,0-2.91,2.9-5.91,5.71-8.89,8.55A12.32,12.32,0,0,1,291.79,1499.14Zm26.65-38.48a9.49,9.49,0,0,0-7.23,2.9L289,1484.81a6.91,6.91,0,0,0-1.17,1.37,3.48,3.48,0,0,0,.06,4.1,3.85,3.85,0,0,0,4,1.48,5.82,5.82,0,0,0,3.08-1.86c4-3.88,8.07-7.76,12.13-11.61,1.93-1.83,3.37-2,5.55-.88,5.42,2.83,9.09,2.32,13.54-1.87,1.86-1.76,3.82-1.94,5.48-.51s1.64,3.38,0,5.3a15.53,15.53,0,0,1-8.31,5.24c-1.88.45-1.5.91-.45,1.91q13.38,12.76,26.7,25.61c1.21,1.18,1.9,1.17,3.11,0,6.66-6.49,13.4-12.9,20.12-19.33,3.05-2.93,3.05-2.92,0-5.8q-15.56-14.89-31.08-29.82c-1.18-1.14-1.93-1.29-3.11,0-1.9,2-4,3.86-6,5.75-2.59,2.43-4.55,2.4-7-.13A9.49,9.49,0,0,0,318.44,1460.66Zm-68.32-20.92a4.33,4.33,0,0,0-3.23,1.6q-18.76,18-37.53,36c-2.18,2.1-2.17,3.88,0,6q5.07,4.92,10.22,9.79c2.41,2.28,4.06,2.26,6.51-.07,3.66-3.49,7.31-7,11-10.49l28.18-27c.68-.65,1.75-1.15.48-2.34-4.29-4-8.49-8.09-12.74-12.14A3.72,3.72,0,0,0,250.12,1439.74Zm154.31,37.94a3.27,3.27,0,0,0-1.23-2.61q-19.14-18.32-38.29-36.64c-2-1.88-3.6-1.89-5.56,0-4.17,3.93-8.26,7.95-12.44,11.87-1.05,1-1,1.64,0,2.59q19.82,18.93,39.6,37.91c2,1.92,3.73,2,5.75.09,3.65-3.4,7.22-6.89,10.81-10.35A3.55,3.55,0,0,0,404.43,1477.68Zm-118.82,69.7a3.54,3.54,0,0,0-3.8,3.57,3.84,3.84,0,0,0,7.68.14A3.62,3.62,0,0,0,285.61,1547.38Zm-21.87-21a3.64,3.64,0,0,0-3.81,3.79,3.72,3.72,0,0,0,3.9,3.54,3.65,3.65,0,0,0,3.77-3.83A3.58,3.58,0,0,0,263.74,1526.42Zm32.83,38.7a3.7,3.7,0,0,0,3.93-3.52,3.92,3.92,0,0,0-3.89-3.83,4,4,0,0,0-3.95,3.59A3.75,3.75,0,0,0,296.57,1565.12Zm-21.86-21a3.73,3.73,0,0,0,3.94-3.72,4,4,0,0,0-7.88,0A3.76,3.76,0,0,0,274.71,1544.14Z"/><path class="cls-7" d="M222.79,1484.13a3.71,3.71,0,0,1-4-3.83,4,4,0,0,1,3.85-3.88,4.16,4.16,0,0,1,4.19,4A4,4,0,0,1,222.79,1484.13Z"/><path class="cls-7" d="M393.43,1477.82a4,4,0,0,1-4,3.76,3.9,3.9,0,1,1,.09-7.78A3.88,3.88,0,0,1,393.43,1477.82Z"/><g class="cls-19"><path class="cls-21" d="M232.47,1914.49c0-4.17.22-8.33.57-12.5a115.43,115.43,0,0,1,3-16.8c.21-.9.82-.83,1.48-.79,2.9.2,5.8.38,8.69.62a53.59,53.59,0,0,0,9.73-.31,89,89,0,0,0,46-19.1c1.83-1.54,1.4-1.65,3.39,0a83.49,83.49,0,0,0,23,13.36,85.64,85.64,0,0,0,16.65,4.84,70,70,0,0,0,14.44,1.26c3.25-.07,6.49-.39,9.72-.66,1.79-.14,1.79-.16,2.2,1.51a101.88,101.88,0,0,1,2.62,14.28c.11,1.12.2,2.25.33,3.37.06.47,0,1,.56,1.29.07,0,.26.1.16.15-.93.47-.09,1.28-.24,1.54-.41.71-.13,1.3-.12,1.92a155.81,155.81,0,0,1-.71,20.26,128.39,128.39,0,0,1-4.68,23.1,112.87,112.87,0,0,1-31.72,50.55,131.92,131.92,0,0,1-24,17.46c-2.94,1.69-6,3.2-9,4.8a1.77,1.77,0,0,1-1.83,0A154.65,154.65,0,0,1,281.35,2012a118.49,118.49,0,0,1-27.1-27,114.36,114.36,0,0,1-19.14-44.35A130.2,130.2,0,0,1,232.47,1914.49Z"/></g><path class="cls-1" d="M233.44,1915.25c0-4.18.22-8.34.57-12.5a116.79,116.79,0,0,1,3-16.8c.21-.91.82-.84,1.49-.79,2.89.2,5.79.37,8.69.62a54.55,54.55,0,0,0,9.73-.32,89.06,89.06,0,0,0,46-19.1c1.83-1.53,1.4-1.65,3.38,0a83.79,83.79,0,0,0,23,13.36,85.15,85.15,0,0,0,16.65,4.84,70.71,70.71,0,0,0,14.44,1.27c3.25-.08,6.49-.4,9.73-.67,1.78-.14,1.79-.16,2.19,1.51a100.85,100.85,0,0,1,2.62,14.29c.11,1.12.2,2.24.34,3.36.05.47,0,1,.55,1.3.08,0,.26.1.16.15-.93.46-.09,1.28-.24,1.54-.41.7-.12,1.29-.11,1.91a157.54,157.54,0,0,1-.72,20.26,128.21,128.21,0,0,1-4.68,23.1,113.08,113.08,0,0,1-31.71,50.56,133.3,133.3,0,0,1-24,17.46c-2.94,1.68-6,3.19-9,4.79a1.81,1.81,0,0,1-1.84,0,155.31,155.31,0,0,1-21.29-12.72,118.29,118.29,0,0,1-27.1-27,114.55,114.55,0,0,1-19.14-44.34A130.27,130.27,0,0,1,233.44,1915.25Z"/><path class="cls-22" d="M233.44,1915.23c0-4.17.21-8.33.56-12.5a118.18,118.18,0,0,1,3-16.8c.22-.9.82-.83,1.49-.79,2.9.2,5.8.38,8.69.62a53.59,53.59,0,0,0,9.73-.31,89,89,0,0,0,46-19.1c1.83-1.54,1.4-1.65,3.39,0a83.58,83.58,0,0,0,22.95,13.36,85.74,85.74,0,0,0,16.66,4.84,69.88,69.88,0,0,0,14.44,1.26c3.24-.07,6.48-.39,9.72-.66,1.79-.14,1.79-.16,2.2,1.51a103.35,103.35,0,0,1,2.62,14.28c.11,1.12.2,2.25.33,3.37.06.47,0,1,.56,1.29.07,0,.25.1.15.15-.93.47-.09,1.28-.24,1.54-.41.71-.12,1.3-.11,1.92a155.81,155.81,0,0,1-.71,20.26,129.26,129.26,0,0,1-4.68,23.1,112.87,112.87,0,0,1-31.72,50.55,132,132,0,0,1-24,17.46c-2.94,1.69-6,3.2-9,4.8a1.77,1.77,0,0,1-1.83,0,154.06,154.06,0,0,1-21.29-12.71,118.34,118.34,0,0,1-27.11-27,114.49,114.49,0,0,1-19.13-44.35A128.76,128.76,0,0,1,233.44,1915.23Zm125.23-.31a110.22,110.22,0,0,0-.62-11.91c-.06-.65-.32-.92-1-1-1.65-.07-3.31-.2-5-.32a94,94,0,0,1-20.32-3.84,110.05,110.05,0,0,1-26.33-11.83,1.52,1.52,0,0,0-1.86,0,106.07,106.07,0,0,1-12.42,6.6,109.81,109.81,0,0,1-17.29,6.18,100.12,100.12,0,0,1-21.8,3.18c-.75,0-1,.35-1.07,1-.19,3.07-.48,6.14-.59,9.22a122.94,122.94,0,0,0,.84,17.37c.14,1.29.37,2.56.57,3.84s.42,2.55.66,3.82.5,2.48.78,3.71.59,2.52.93,3.77a38.56,38.56,0,0,1,1.08,3.73c.21,1.16,1,2.07,1.14,3.28a9.51,9.51,0,0,0,.83,2.42,95.33,95.33,0,0,0,22.77,35,114.75,114.75,0,0,0,23.59,17.61,1.76,1.76,0,0,0,2-.09,136.22,136.22,0,0,0,12.1-7.87A99.8,99.8,0,0,0,340.34,1976,92.24,92.24,0,0,0,352.56,1952c1.18-3.53,2.3-7.06,3.15-10.67A114.83,114.83,0,0,0,358.67,1914.92Z"/><path class="cls-7" d="M344.84,1926.13c0,.34-.32.52-.54.73q-6.41,6.15-12.82,12.32-13.71,13.14-27.44,26.26c-2.23,2.13-4.49,4.23-6.67,6.41-.74.74-1.17.57-1.83-.06q-10.73-10.33-21.5-20.61c-3.2-3.06-6.28-6.24-9.64-9.14-.62-.54-.16-.87.2-1.22l6.39-6.11c1.39-1.34,2.8-2.66,4.16-4,.56-.55,1-.58,1.55,0,4,3.84,7.95,7.65,11.93,11.47,2.39,2.3,4.78,4.6,7.14,6.93.5.49.84.52,1.35,0,3-2.92,6.07-5.81,9.1-8.71l16.23-15.52q4.73-4.53,9.43-9.09c1.19-1.14,1.19-1.14,2.34,0l10.06,9.64C344.51,1925.58,344.84,1925.76,344.84,1926.13Z"/><g class="cls-19"><path class="cls-23" d="M387.53,2431.08c0,6.28-.22,12.57.05,18.84a16.24,16.24,0,0,1-13.46,17.21H278.66c-4.82-1.18-8.71-3.55-11.21-7.79a15.35,15.35,0,0,1-1.66-4.1,1.73,1.73,0,0,0-1.5-1.47c-7.82-1.85-12.68-7.84-12.68-15.58q0-42.69,0-85.39"/><path class="cls-24" d="M251.79,2356.3c0-8.91-.19-32.55-.18-41.46,0-2.71.73-3.41,3.57-3.41H357.3c7.72,0,13.84,4.43,15.91,11.55a2.48,2.48,0,0,0,2.1,2,15.46,15.46,0,0,1,12.2,14.84c0,26.69.4,66.9.41,93.59"/><path class="cls-25" d="M357.33,2316.21h-1.26"/></g><path class="cls-1" d="M385.21,2431.08c0,6.28-.22,12.57.06,18.84a16.26,16.26,0,0,1-13.47,17.21H276.34c-4.81-1.18-8.71-3.55-11.21-7.79a15.33,15.33,0,0,1-1.65-4.1,1.75,1.75,0,0,0-1.51-1.47c-7.82-1.85-12.67-7.84-12.68-15.58q0-42.69,0-85.39"/><path class="cls-1" d="M249.47,2356.3c0-8.91-.18-32.55-.18-41.46,0-2.71.73-3.41,3.58-3.41H355c7.72,0,13.85,4.43,15.91,11.55a2.48,2.48,0,0,0,2.1,2,15.47,15.47,0,0,1,12.21,14.84c0,26.69.39,66.9.4,93.59"/><path class="cls-1" d="M355,2316.21h-1.27"/><path class="cls-26" d="M277.11,2466.58c-4.81-1.18-8.71-3.56-11.21-7.8a15.39,15.39,0,0,1-1.65-4.09,1.77,1.77,0,0,0-1.51-1.48c-7.81-1.85-12.67-7.84-12.67-15.58q0-42.69,0-85.38c0-.36,0-.72,0-1.07a2.43,2.43,0,0,1,2.39-2.38,2.41,2.41,0,0,1,2.63,2.13,13.92,13.92,0,0,1,.13,2.42q0,41.93,0,83.86c0,3.87,1.23,7.05,4.47,9.41a10.09,10.09,0,0,0,5.87,2c.59,0,1.17,0,1.75,0q43.84,0,87.68,0c3.26,0,6.19-.62,8.59-2.84a10.2,10.2,0,0,0,3.52-7.71q0-55.9,0-111.82c0-6-4.8-10.4-11.3-10.65-.42,0-.85,0-1.27,0H257.64c-2.4,0-2.4,0-2.4,2.35v22.49a6.33,6.33,0,0,1-.23,2.25,2.53,2.53,0,0,1-4.85-.2,6.41,6.41,0,0,1-.1-1.52v-26.74c0-2.7.74-3.4,3.58-3.4q51.06,0,102.11,0c7.72,0,13.85,4.44,15.91,11.56a2.49,2.49,0,0,0,2.1,2A15.48,15.48,0,0,1,386,2339.32q0,40,0,80.07a3.1,3.1,0,0,1-.84,2.52,2.52,2.52,0,0,1-4.1-1,7.13,7.13,0,0,1-.24-2.56q0-39.12,0-78.24c0-4.66-1.95-8.1-6.32-10.2-1.95-.94-2.2-.77-2.2,1.37q0,53,0,105.9c0,6.91-3.13,12.07-9.71,15.11a17.29,17.29,0,0,1-7.41,1.36q-41.78,0-83.56,0c-2.55,0-2.69.2-1.44,2.41,2.28,4.07,6,5.87,10.67,5.88,10.1,0,20.19,0,30.29,0q28.77,0,57.56,0c5.07,0,9-1.88,11.24-6.46a10.48,10.48,0,0,0,.88-4.74q0-10,0-19.9a6.37,6.37,0,0,1,.25-2.26,2.32,2.32,0,0,1,2.55-1.63,2.29,2.29,0,0,1,2.3,1.94,8.43,8.43,0,0,1,.07,1.67c0,6.28-.22,12.57.06,18.84a16.25,16.25,0,0,1-13.47,17.21Z"/><path class="cls-26" d="M311.11,2432c-11.68,0-23.36-.2-35,.06-9.42.22-16.16-9.54-10.89-18.17,8-13.1,15.88-26.29,23.81-39.44,3.75-6.22,7.47-12.46,11.26-18.67a12.5,12.5,0,0,1,21.71-.06c11.7,19.3,23.23,38.7,35,58a11.84,11.84,0,0,1-7.69,18.11,14.43,14.43,0,0,1-3,.21Zm0-4.77c11.57,0,23.14,0,34.71,0,6.66,0,10-5.55,6.72-11q-17.32-28.82-34.71-57.59c-3.42-5.65-9.95-5.66-13.35,0q-13,21.48-25.91,43c-3,4.95-6,9.89-9,14.86-2.43,4.07-.81,8.79,3.53,10.3a11.9,11.9,0,0,0,3.9.52Z"/><path class="cls-26" d="M311.23,2344.48a11.89,11.89,0,0,1-8.38-3.44,2.36,2.36,0,0,1-.22-3.52,2.61,2.61,0,0,1,3.68,0c3.53,2.76,6.07,2.77,9.59.05,1.37-1.06,2.77-1.05,3.79,0a2.39,2.39,0,0,1-.29,3.53A12.07,12.07,0,0,1,311.23,2344.48Z"/><path class="cls-26" d="M286.61,2337.17a15.59,15.59,0,0,1,0,2.56,2.52,2.52,0,0,1-5-.05,30.3,30.3,0,0,1,0-5.13,2.29,2.29,0,0,1,2.44-2.13,2.5,2.5,0,0,1,2.59,2.18,2.3,2.3,0,0,1,.05.45v2.12Z"/><path class="cls-26" d="M335.72,2337.07a22.19,22.19,0,0,1,0-2.58,2.2,2.2,0,0,1,2.18-2,2.25,2.25,0,0,1,2.65,1.68,13.35,13.35,0,0,1,0,6,2.21,2.21,0,0,1-2.49,1.71,2.29,2.29,0,0,1-2.35-2.07A22.59,22.59,0,0,1,335.72,2337.07Z"/><path class="cls-26" d="M311.17,2421.36H280.11c-.47,0-.95,0-1.42,0-2.59-.13-3.7-1.92-2.44-4.08,2.12-3.62,4.31-7.2,6.48-10.79l25.5-42.33.41-.66c1.47-2.3,3.59-2.32,5,0q6.27,10.3,12.46,20.63l19.58,32.47c1.82,3,.82,4.75-2.81,4.76Zm0-52.21c-.33.49-.48.69-.61.91q-13.51,22.43-27,44.86c-.88,1.45-.88,1.46.94,1.46h53c2.16,0,2.18,0,1.12-1.78l-20.29-33.68Z"/><path class="cls-26" d="M308,2389c0-1.26,0-2.52,0-3.79,0-1.83,1.13-2.88,3.07-2.89a2.82,2.82,0,0,1,3.14,2.89c-.06,3.49-.26,7-.4,10.45-.06,1.46-.12,2.92-.17,4.39a2.42,2.42,0,0,1-2.51,2.69c-1.66.06-2.65-.86-2.68-2.68,0-3.69,0-7.37,0-11.06Z"/><path class="cls-26" d="M311.13,2411.37a3.2,3.2,0,0,1-3.28-3,3.35,3.35,0,0,1,3.35-3.19,3.13,3.13,0,0,1,3.13,3.16A3.08,3.08,0,0,1,311.13,2411.37Z"/><rect class="cls-27" x="560.13" y="1579.28" width="665.57" height="188.16"/><rect class="cls-27" x="560.52" y="2446.4" width="665.57" height="188.16"/><rect class="cls-27" x="560.52" y="2007.14" width="665.57" height="188.16"/><path class="cls-7" d="M326.85,1174.85q0-10,0-20c0-.3.16-.71-.17-.87s-.57.22-.82.39q-7.65,5.28-15.27,10.59a4.82,4.82,0,0,1-6.57-.71,4.35,4.35,0,0,1,1.26-6.37c3-2,5.94-4.1,8.91-6.16,4.82-3.34,9.62-6.69,14.45-10a4.84,4.84,0,0,1,5.59.06l23.06,16c2.7,1.87,3.12,4.9,1,6.94a4.37,4.37,0,0,1-5.42.61c-2.09-1.27-4.07-2.73-6.09-4.12l-9.78-6.78c-.26-.18-.52-.52-.84-.4s-.19.56-.19.86c0,7.78-.07,15.56,0,23.34,0,2.93.07,5.86,0,8.79a13.69,13.69,0,0,0,.22,2.31c.07.46-.25.84-.23,1.32.06,1.35.06,2.7,0,4a4.47,4.47,0,0,1-5.82,4.29,4.29,4.29,0,0,1-3.23-4.13c0-4.58,0-9.16,0-13.74C326.84,1179,326.85,1176.92,326.85,1174.85Z"/><path class="cls-7" d="M331.6,1209.64h26.81a6.1,6.1,0,0,1,3.82,1,4.25,4.25,0,0,1-.21,7,4.7,4.7,0,0,1-2.94.7H322.54c-5.52,0-11.05,0-16.57,0-.77,0-1.55,0-2.31.05a5.38,5.38,0,0,1-4.38-2.09c-.33-.36-.27-.81-.38-1.21a4.26,4.26,0,0,1,3.83-5.3,24.19,24.19,0,0,1,2.55-.13Z"/><rect class="cls-4" x="797.28" y="1091.13" width="472.51" height="181.18" rx="29.16"/><path class="cls-7" d="M877.05,1161.8c0,6.65,0,13.3,0,20,0,.33-.19.78.16,1s.64-.24.92-.43l15.42-10.7a4.7,4.7,0,0,1,5.74.12,4.21,4.21,0,0,1,.94,5.58,4,4,0,0,1-1.19,1.24l-16.77,11.64-6.87,4.77a4.67,4.67,0,0,1-5.6.07c-2.8-1.88-5.53-3.85-8.33-5.73-1.59-1.06-3.08-2.23-4.75-3.19-1-.59-1.89-1.41-2.86-2.09-2.62-1.85-5.27-3.66-7.87-5.53a4.12,4.12,0,0,1-.89-6.11,4.62,4.62,0,0,1,6.18-.88c3.28,2.21,6.5,4.5,9.75,6.75q3,2.08,6,4.16c.26.17.55.51.86.27s.22-.62,0-.93.16-.66.12-1c-.13-1.47,0-3,0-4.43,0-11.13,0-22.25,0-33.38,0-1.49.06-3,1.25-4.15a4.81,4.81,0,0,1,5-1.1,4.24,4.24,0,0,1,2.85,4c0,2.9,0,5.8,0,8.7C877.06,1154.11,877.05,1158,877.05,1161.8Z"/><path class="cls-7" d="M903.54,1214.32a5,5,0,0,1-3.15.89c-3.82,0-7.63,0-11.44,0q-22.28,0-44.55,0a4.36,4.36,0,0,1-4.39-2.89,4.23,4.23,0,0,1,1.49-4.84,6.18,6.18,0,0,1,3.93-1h54a10.52,10.52,0,0,1,2.44.23c2.45.58,4.1,3,3.24,5.2A8.4,8.4,0,0,1,903.54,1214.32Z"/></svg>