<svg id="Capa_1" data-name="Capa 1" xmlns="http://www.w3.org/2000/svg" xmlns:xlink="http://www.w3.org/1999/xlink" viewBox="0 0 1921.07 1102.34"><defs><style>.cls-1,.cls-13,.cls-14,.cls-23,.cls-25,.cls-26,.cls-27,.cls-28,.cls-29,.cls-5{fill:none;}.cls-2,.cls-31,.cls-8{fill:#fff;}.cls-3{fill:#e4e4e4;}.cls-4{fill:#d1d1d1;}.cls-5{stroke:#d1d1d1;stroke-width:20px;}.cls-13,.cls-23,.cls-25,.cls-26,.cls-27,.cls-28,.cls-29,.cls-30,.cls-31,.cls-5{stroke-miterlimit:10;}.cls-6,.cls-7{fill:#00277c;}.cls-7{font-size:28.78px;}.cls-19,.cls-21,.cls-7{font-family:'Poppins', sans-serif;font-weight:300;}.cls-8{font-size:35px;}.cls-18,.cls-8{font-family:'Poppins', sans-serif}.cls-9{letter-spacing:-0.1em;}.cls-10{letter-spacing:0em;}.cls-11{opacity:0.31;fill:url(#Degradado_sin_nombre_2);}.cls-12{fill:url(#Degradado_sin_nombre_2-2);}.cls-13,.cls-14{stroke-width:35px;}.cls-13{opacity:0.33;stroke:url(#Degradado_sin_nombre_2-3);}.cls-14{stroke-linecap:round;stroke-linejoin:round;stroke:url(#Degradado_sin_nombre_2-4);}.cls-15{fill:url(#Degradado_sin_nombre_2-5);}.cls-16{clip-path:url(#clip-path);}.cls-17{fill:#7dbdd3;}.cls-18{font-size:33.48px;}.cls-18,.cls-19,.cls-20,.cls-21{fill:#362f70;}.cls-19{font-size:23.36px;}.cls-21{font-size:23.44px;}.cls-22{opacity:0.5;}.cls-23,.cls-25,.cls-27,.cls-28,.cls-29{stroke-width:15px;}.cls-23{stroke:url(#Degradado_sin_nombre_2-6);}.cls-24,.cls-30{fill:#67277c;}.cls-25{stroke:url(#Degradado_sin_nombre_2-7);}.cls-26,.cls-30,.cls-31{stroke:#67277c;}.cls-26{stroke-width:5px;}.cls-27{stroke:url(#Degradado_sin_nombre_2-8);}.cls-28{stroke:url(#Degradado_sin_nombre_2-9);}.cls-29{stroke:url(#Degradado_sin_nombre_2-10);}.cls-32{font-size:20px;font-family:MyriadPro-Regular, Myriad Pro;}.cls-32,.cls-46{fill:#222221;}.cls-33{letter-spacing:0em;}.cls-34{letter-spacing:-0.01em;}.cls-35{letter-spacing:-0.01em;}.cls-36{letter-spacing:-0.01em;}.cls-37{letter-spacing:0.02em;}.cls-38{letter-spacing:-0.01em;}.cls-39{letter-spacing:-0.02em;}.cls-40{letter-spacing:0em;}.cls-41{letter-spacing:0em;}.cls-42{letter-spacing:-0.01em;}.cls-43{letter-spacing:0em;}.cls-44{letter-spacing:0em;}.cls-45{letter-spacing:-0.01em;}</style><linearGradient id="Degradado_sin_nombre_2" x1="-10174.03" y1="-1916.13" x2="-8252.35" y2="-1916.13" gradientTransform="translate(10173.42 2926.85)" gradientUnits="userSpaceOnUse"><stop offset="0" stop-color="#69267e"/><stop offset="0.5" stop-color="#512a78"/><stop offset="1" stop-color="#362f70"/></linearGradient><linearGradient id="Degradado_sin_nombre_2-2" x1="-10174.88" y1="-1886.07" x2="-8252.35" y2="-1886.07" xlink:href="#Degradado_sin_nombre_2"/><linearGradient id="Degradado_sin_nombre_2-3" x1="104" y1="379.86" x2="675.93" y2="379.86" gradientTransform="matrix(1, 0, 0, 1, 0, 0)" xlink:href="#Degradado_sin_nombre_2"/><linearGradient id="Degradado_sin_nombre_2-4" x1="104" y1="245.63" x2="407.47" y2="245.63" gradientTransform="matrix(1, 0, 0, 1, 0, 0)" xlink:href="#Degradado_sin_nombre_2"/><linearGradient id="Degradado_sin_nombre_2-5" x1="2071.87" y1="317.15" x2="1516.41" y2="-186.42" gradientTransform="matrix(1, 0, 0, 1, 0, 0)" xlink:href="#Degradado_sin_nombre_2"/><clipPath id="clip-path"><rect class="cls-1" x="1679.1" y="445.82" width="238.43" height="522.35"/></clipPath><linearGradient id="Degradado_sin_nombre_2-6" x1="766.66" y1="244.37" x2="910.74" y2="244.37" gradientTransform="matrix(1, 0, 0, 1, 0, 0)" xlink:href="#Degradado_sin_nombre_2"/><linearGradient id="Degradado_sin_nombre_2-7" x1="786.6" y1="430.79" x2="888.41" y2="430.79" gradientTransform="matrix(1, 0, 0, 1, 0, 0)" xlink:href="#Degradado_sin_nombre_2"/><linearGradient id="Degradado_sin_nombre_2-8" x1="789.48" y1="626.69" x2="887.35" y2="626.69" gradientTransform="matrix(1, 0, 0, 1, 0, 0)" xlink:href="#Degradado_sin_nombre_2"/><linearGradient id="Degradado_sin_nombre_2-9" x1="789.48" y1="595.33" x2="887.54" y2="595.33" gradientTransform="matrix(1, 0, 0, 1, 0, 0)" xlink:href="#Degradado_sin_nombre_2"/><linearGradient id="Degradado_sin_nombre_2-10" x1="860.57" y1="563.32" x2="861.71" y2="563.32" gradientTransform="matrix(1, 0, 0, 1, 0, 0)" xlink:href="#Degradado_sin_nombre_2"/></defs><rect class="cls-2" width="1919.98" height="1094.76"/><rect class="cls-3" x="951.6" y="206.59" width="486" height="99.74" rx="10.19"/><rect class="cls-3" x="951.6" y="388.7" width="486" height="99.74" rx="10.19"/><rect class="cls-4" x="951.6" y="565.41" width="486" height="99.74" rx="10.19"/><rect class="cls-5" x="81.92" y="718.43" width="284.96" height="114.8" rx="29.16"/><path class="cls-6" d="M278.09,282.14H248.28l-1.65,12.51a38,38,0,0,1,5-.27c7.33,0,14.86,1.82,20.27,5.9,5.78,4.2,9.31,11,9.31,20.54,0,15.26-12.28,28.66-33,28.66-9.31,0-17.08-2.28-21.4-4.64l3.27-14.36a41.17,41.17,0,0,0,17.31,4.08c7.47,0,15.39-3.8,15.37-12.49,0-8.37-6.31-13.57-21.63-13.57a68.88,68.88,0,0,0-10.34.76l5-42.85h42.33Z"/><path class="cls-6" d="M349.2,306.91c0,25.17-9.61,42.57-29.19,42.57-19.87,0-28.65-18.94-28.72-42.05,0-23.73,9.37-42.41,29.23-42.41C341.07,265,349.2,284.51,349.2,306.91Zm-39.93.44c0,18.8,4.23,27.7,11.11,27.7s10.84-9.34,10.84-27.9c0-18.11-3.72-27.62-10.88-27.62C313.73,279.53,309.25,288.34,309.27,307.35Z"/><path class="cls-6" d="M452.09,315.7c-.37-10.27-.74-22.48-.7-34.9h-.32c-2.54,10.84-5.89,22.88-8.89,32.88l-9.75,33h-14L409.85,314c-2.57-10-5.22-22-7.19-33.17h-.25c-.39,11.52-.84,24.6-1.32,35.15l-1.49,32.14H382.94l5.1-84.7h24l7.77,28.31c2.52,9.71,5,20.35,6.76,30.28H427c2.18-9.8,4.87-21,7.58-30.41L443,263.39h23.56l4.28,84.7H453.33Z"/><path class="cls-6" d="M484.75,264.55A137.06,137.06,0,0,1,508,262.73c11,0,17.73,1.15,23.56,4.75a18.56,18.56,0,0,1,9.49,16.7c0,7.45-4.1,14.48-13.08,18v.32c9.1,2.53,15.86,9.91,15.86,20.76a23,23,0,0,1-8.29,18c-5.84,5-15.46,7.71-31.32,7.71a130.87,130.87,0,0,1-19.47-1.25ZM502.6,297h5.84C518,297,523,292.77,523,286.48s-4.58-9.83-12.72-9.83a36.43,36.43,0,0,0-7.64.59Zm0,37.47a41.69,41.69,0,0,0,6.91.35c8.18,0,15.37-3.37,15.37-12.29,0-8.47-7.14-11.86-16.12-11.87H502.6Z"/><text class="cls-7" transform="translate(221.85 411.36) scale(0.94 1)">INTERNET FIBRA ÓPTICA</text><text class="cls-8" transform="translate(298.03 490.22) scale(0.94 1)">SOLICI<tspan class="cls-9" x="123.04" y="0">T</tspan><tspan class="cls-10" x="142.92" y="0">AR</tspan></text><path class="cls-11" d="M1921.07,1102.34v-52.52s-278.65-224.37-926.6-85.23c-430.91,92.54-692.89,88.84-995.09-25.9v163.65Z"/><path class="cls-12" d="M1921.07,1102.34v-52.52s-394.72-141.31-926.6-24.14C564.05,1120.5,301.58,1114.9-.62,1000.15c0,0-.84,94.15-.84,102.19Z"/><circle class="cls-13" cx="389.97" cy="379.86" r="268.46"/><path class="cls-14" d="M121.5,379.86C121.5,231.6,241.7,111.4,390,111.4"/><path class="cls-15" d="M1599.93-.24s74.12,223.71,320.17,289.46V-.24Z"/><path class="cls-2" d="M1718.33,108.13a17,17,0,0,0,8,2.14c3.32,0,5.08-1.47,5.08-3.71,0-2.08-1.52-3.31-5.35-4.75-5.33-2-8.82-5.1-8.82-10.06,0-5.8,4.58-10.21,12.09-10.21a18,18,0,0,1,8.16,1.71l-1.59,6.17a14.53,14.53,0,0,0-6.68-1.62c-3.14,0-4.64,1.55-4.64,3.29,0,2.16,1.77,3.12,5.91,4.78,5.66,2.25,8.28,5.37,8.28,10.18,0,5.67-4.08,10.54-12.88,10.54a19.69,19.69,0,0,1-9-2.11Z"/><path class="cls-2" d="M1741.32,118.08l10.15-36.56h4.79l-10.17,36.56Z"/><path class="cls-2" d="M1758.62,112c0-2.74,1.77-4.67,4.26-4.67s4.22,1.88,4.25,4.67-1.7,4.65-4.27,4.65S1758.61,114.67,1758.62,112Z"/><path class="cls-2" d="M1784.31,114c0-9,4.8-15,12.39-18.59V95.1c-6.74-3.71-10-9.75-10-16.23,0-12.52,10.58-20.76,24.48-20.76,16.29,0,23,10,23,18.94a18.23,18.23,0,0,1-10.11,16.32v.27c6.74,2.79,12.77,8.85,12.77,18.4,0,13.41-10.58,22.44-26.73,22.44C1792.43,134.48,1784.31,124,1784.31,114Zm36-.65c0-6.42-4.57-10.28-11-12.1-5.31,1.58-8.41,5.65-8.41,11s3.76,10.4,9.87,10.4C1816.45,122.57,1820.26,118.58,1820.26,113.3ZM1802,78.3c0,5,4.18,8.24,9.81,10.06a10,10,0,0,0,7.06-9.42c0-4.56-2.48-9.17-8.48-9.17C1804.84,69.77,1802,73.72,1802,78.3Z"/><path class="cls-2" d="M1891.07,73.58h-27l-1.5,11.32a34.51,34.51,0,0,1,4.5-.25c6.63,0,13.44,1.65,18.33,5.34,5.23,3.8,8.42,10,8.42,18.57,0,13.8-11.1,25.92-29.83,25.92-8.42,0-15.45-2.06-19.35-4.19l3-13a37.16,37.16,0,0,0,15.64,3.69c6.76,0,13.93-3.44,13.91-11.3,0-7.56-5.71-12.27-19.56-12.27a61.83,61.83,0,0,0-9.35.69l4.51-38.75h38.28Z"/><g class="cls-16"><path class="cls-17" d="M1920.92,682.44a6,6,0,1,0,6-5.65A5.82,5.82,0,0,0,1920.92,682.44Z"/><path class="cls-17" d="M1920.54,701a6.35,6.35,0,1,0,6.35-6A6.18,6.18,0,0,0,1920.54,701Z"/><ellipse class="cls-17" cx="1926.89" cy="719.47" rx="6.51" ry="6.16"/><path class="cls-17" d="M1920.54,738a6.35,6.35,0,1,0,6.35-6A6.18,6.18,0,0,0,1920.54,738Z"/><path class="cls-17" d="M1920.92,756.51a6,6,0,1,0,6-5.65A5.82,5.82,0,0,0,1920.92,756.51Z"/><path class="cls-17" d="M1907.11,441.7a.22.22,0,1,0,.22-.21A.21.21,0,0,0,1907.11,441.7Z"/><path class="cls-17" d="M1906.68,460.22a.65.65,0,0,0,1.3,0,.65.65,0,0,0-1.3,0Z"/><path class="cls-17" d="M1906.25,478.73a1.09,1.09,0,1,0,1.08-1A1.05,1.05,0,0,0,1906.25,478.73Z"/><path class="cls-17" d="M1905.76,497.25a1.57,1.57,0,1,0,1.57-1.49A1.53,1.53,0,0,0,1905.76,497.25Z"/><path class="cls-17" d="M1905.32,515.77a2,2,0,1,0,2-1.9A2,2,0,0,0,1905.32,515.77Z"/><path class="cls-17" d="M1904.84,534.29a2.5,2.5,0,1,0,2.49-2.36A2.43,2.43,0,0,0,1904.84,534.29Z"/><path class="cls-17" d="M1904.4,552.81a2.93,2.93,0,1,0,2.93-2.77A2.85,2.85,0,0,0,1904.4,552.81Z"/><path class="cls-17" d="M1904,571.33a3.36,3.36,0,1,0,3.36-3.19A3.28,3.28,0,0,0,1904,571.33Z"/><path class="cls-17" d="M1903.54,589.84a3.8,3.8,0,1,0,3.79-3.59A3.69,3.69,0,0,0,1903.54,589.84Z"/><path class="cls-17" d="M1903.05,608.36a4.29,4.29,0,1,0,4.28-4.05A4.18,4.18,0,0,0,1903.05,608.36Z"/><ellipse class="cls-17" cx="1907.33" cy="626.88" rx="4.72" ry="4.47"/><path class="cls-17" d="M1902.18,645.4a5.16,5.16,0,1,0,5.15-4.88A5,5,0,0,0,1902.18,645.4Z"/><ellipse class="cls-17" cx="1907.33" cy="663.92" rx="5.64" ry="5.34"/><ellipse class="cls-17" cx="1907.33" cy="682.44" rx="6.07" ry="5.75"/><ellipse class="cls-17" cx="1907.33" cy="700.96" rx="6.51" ry="6.16"/><path class="cls-17" d="M1900.5,719.47a6.84,6.84,0,1,0,6.83-6.47A6.65,6.65,0,0,0,1900.5,719.47Z"/><ellipse class="cls-17" cx="1907.33" cy="737.99" rx="6.56" ry="6.21"/><ellipse class="cls-17" cx="1907.33" cy="756.51" rx="6.13" ry="5.8"/><ellipse class="cls-17" cx="1907.33" cy="775.03" rx="5.64" ry="5.34"/><ellipse class="cls-17" cx="1907.33" cy="793.55" rx="5.21" ry="4.93"/><ellipse class="cls-17" cx="1907.33" cy="812.07" rx="4.77" ry="4.52"/><ellipse class="cls-17" cx="1907.33" cy="830.58" rx="4.28" ry="4.06"/><ellipse class="cls-17" cx="1907.33" cy="849.1" rx="3.85" ry="3.65"/><ellipse class="cls-17" cx="1907.33" cy="867.62" rx="3.42" ry="3.24"/><path class="cls-17" d="M1904.35,886.14a3,3,0,1,0,3-2.83A2.9,2.9,0,0,0,1904.35,886.14Z"/><path class="cls-17" d="M1904.84,904.66a2.5,2.5,0,1,0,2.49-2.37A2.43,2.43,0,0,0,1904.84,904.66Z"/><path class="cls-17" d="M1905.27,923.18a2.06,2.06,0,1,0,2.06-2A2,2,0,0,0,1905.27,923.18Z"/><path class="cls-17" d="M1905.76,941.69a1.57,1.57,0,1,0,1.57-1.49A1.53,1.53,0,0,0,1905.76,941.69Z"/><path class="cls-17" d="M1906.19,960.21a1.14,1.14,0,1,0,1.14-1.08A1.11,1.11,0,0,0,1906.19,960.21Z"/><path class="cls-17" d="M1906.63,978.73a.68.68,0,0,0,.7.67.67.67,0,1,0,0-1.34A.68.68,0,0,0,1906.63,978.73Z"/><path class="cls-17" d="M1907.06,997.25a.27.27,0,1,0,.27-.26A.27.27,0,0,0,1907.06,997.25Z"/><path class="cls-17" d="M1887.56,441.7a.2.2,0,0,0,.21.2.21.21,0,1,0,0-.41A.21.21,0,0,0,1887.56,441.7Z"/><path class="cls-17" d="M1887.12,460.22a.65.65,0,0,0,1.3,0,.65.65,0,0,0-1.3,0Z"/><path class="cls-17" d="M1886.69,478.73a1.09,1.09,0,1,0,1.08-1A1.06,1.06,0,0,0,1886.69,478.73Z"/><path class="cls-17" d="M1886.26,497.25a1.52,1.52,0,1,0,1.51-1.43A1.48,1.48,0,0,0,1886.26,497.25Z"/><path class="cls-17" d="M1885.77,515.77a2,2,0,1,0,2-1.9A2,2,0,0,0,1885.77,515.77Z"/><path class="cls-17" d="M1885.33,534.29a2.44,2.44,0,1,0,2.44-2.31A2.38,2.38,0,0,0,1885.33,534.29Z"/><path class="cls-17" d="M1884.9,552.81a2.88,2.88,0,1,0,2.87-2.72A2.8,2.8,0,0,0,1884.9,552.81Z"/><path class="cls-17" d="M1884.41,571.33a3.37,3.37,0,1,0,3.36-3.19A3.28,3.28,0,0,0,1884.41,571.33Z"/><ellipse class="cls-17" cx="1887.77" cy="589.84" rx="3.8" ry="3.59"/><path class="cls-17" d="M1883.54,608.36a4.24,4.24,0,1,0,4.23-4A4.12,4.12,0,0,0,1883.54,608.36Z"/><ellipse class="cls-17" cx="1887.77" cy="626.88" rx="4.66" ry="4.42"/><path class="cls-17" d="M1882.62,645.4a5.16,5.16,0,1,0,5.15-4.88A5,5,0,0,0,1882.62,645.4Z"/><ellipse class="cls-17" cx="1887.77" cy="663.92" rx="5.53" ry="5.24"/><path class="cls-17" d="M1881.81,682.44a6,6,0,1,0,6-5.65A5.81,5.81,0,0,0,1881.81,682.44Z"/><path class="cls-17" d="M1881.43,701a6.35,6.35,0,1,0,6.34-6A6.18,6.18,0,0,0,1881.43,701Z"/><path class="cls-17" d="M1881.21,719.47a6.58,6.58,0,1,0,6.56-6.21A6.4,6.4,0,0,0,1881.21,719.47Z"/><ellipse class="cls-17" cx="1887.77" cy="737.99" rx="6.4" ry="6.06"/><ellipse class="cls-17" cx="1887.77" cy="756.51" rx="6.02" ry="5.7"/><ellipse class="cls-17" cx="1887.77" cy="775.03" rx="5.59" ry="5.29"/><ellipse class="cls-17" cx="1887.77" cy="793.55" rx="5.15" ry="4.88"/><ellipse class="cls-17" cx="1887.77" cy="812.07" rx="4.72" ry="4.47"/><ellipse class="cls-17" cx="1887.77" cy="830.58" rx="4.28" ry="4.06"/><ellipse class="cls-17" cx="1887.77" cy="849.1" rx="3.85" ry="3.65"/><ellipse class="cls-17" cx="1887.77" cy="867.62" rx="3.36" ry="3.18"/><path class="cls-17" d="M1884.85,886.14a2.93,2.93,0,1,0,2.92-2.77A2.85,2.85,0,0,0,1884.85,886.14Z"/><ellipse class="cls-17" cx="1887.77" cy="904.66" rx="2.49" ry="2.36"/><path class="cls-17" d="M1885.77,923.18a2,2,0,1,0,2-1.9A2,2,0,0,0,1885.77,923.18Z"/><path class="cls-17" d="M1886.2,941.69a1.58,1.58,0,1,0,1.57-1.49A1.53,1.53,0,0,0,1886.2,941.69Z"/><path class="cls-17" d="M1886.64,960.21a1.14,1.14,0,1,0,1.13-1.08A1.11,1.11,0,0,0,1886.64,960.21Z"/><path class="cls-17" d="M1887.07,978.73a.68.68,0,0,0,.7.67.67.67,0,1,0,0-1.34A.68.68,0,0,0,1887.07,978.73Z"/><path class="cls-17" d="M1887.56,997.25a.2.2,0,0,0,.21.2.21.21,0,0,0,.22-.2.22.22,0,0,0-.22-.21A.21.21,0,0,0,1887.56,997.25Z"/><path class="cls-17" d="M1868.05,441.7a.17.17,0,0,0,.17.15.16.16,0,0,0,.16-.15.16.16,0,0,0-.16-.16A.17.17,0,0,0,1868.05,441.7Z"/><path class="cls-17" d="M1867.62,460.22a.58.58,0,0,0,.6.56.57.57,0,1,0,0-1.13A.58.58,0,0,0,1867.62,460.22Z"/><path class="cls-17" d="M1867.19,478.73a1,1,0,1,0,1-1A1,1,0,0,0,1867.19,478.73Z"/><path class="cls-17" d="M1866.7,497.25a1.52,1.52,0,1,0,1.52-1.43A1.48,1.48,0,0,0,1866.7,497.25Z"/><path class="cls-17" d="M1866.27,515.77a2,2,0,1,0,2-1.85A1.9,1.9,0,0,0,1866.27,515.77Z"/><path class="cls-17" d="M1865.83,534.29a2.39,2.39,0,1,0,2.39-2.26A2.33,2.33,0,0,0,1865.83,534.29Z"/><path class="cls-17" d="M1865.4,552.81a2.82,2.82,0,1,0,2.82-2.67A2.75,2.75,0,0,0,1865.4,552.81Z"/><path class="cls-17" d="M1865,571.33a3.26,3.26,0,1,0,3.26-3.08A3.17,3.17,0,0,0,1865,571.33Z"/><path class="cls-17" d="M1864.53,589.84a3.7,3.7,0,1,0,3.69-3.49A3.6,3.6,0,0,0,1864.53,589.84Z"/><path class="cls-17" d="M1864.1,608.36a4.13,4.13,0,1,0,4.12-3.9A4,4,0,0,0,1864.1,608.36Z"/><path class="cls-17" d="M1863.66,626.88a4.56,4.56,0,1,0,4.56-4.31A4.45,4.45,0,0,0,1863.66,626.88Z"/><path class="cls-17" d="M1863.23,645.4a5,5,0,1,0,5-4.72A4.86,4.86,0,0,0,1863.23,645.4Z"/><path class="cls-17" d="M1862.85,663.92a5.38,5.38,0,1,0,5.37-5.09A5.23,5.23,0,0,0,1862.85,663.92Z"/><path class="cls-17" d="M1862.52,682.44a5.7,5.7,0,1,0,5.7-5.4A5.55,5.55,0,0,0,1862.52,682.44Z"/><path class="cls-17" d="M1862.25,701a6,6,0,1,0,6-5.65A5.81,5.81,0,0,0,1862.25,701Z"/><path class="cls-17" d="M1862.09,719.47a6.14,6.14,0,1,0,6.13-5.8A6,6,0,0,0,1862.09,719.47Z"/><path class="cls-17" d="M1862.2,738a6,6,0,1,0,6-5.7A5.86,5.86,0,0,0,1862.2,738Z"/><path class="cls-17" d="M1862.47,756.51a5.76,5.76,0,1,0,5.75-5.44A5.6,5.6,0,0,0,1862.47,756.51Z"/><path class="cls-17" d="M1862.85,775a5.38,5.38,0,1,0,5.37-5.09A5.23,5.23,0,0,0,1862.85,775Z"/><path class="cls-17" d="M1863.17,793.55a5.05,5.05,0,1,0,5-4.78A4.92,4.92,0,0,0,1863.17,793.55Z"/><path class="cls-17" d="M1863.66,812.07a4.56,4.56,0,1,0,4.56-4.32A4.44,4.44,0,0,0,1863.66,812.07Z"/><path class="cls-17" d="M1864,830.58a4.18,4.18,0,1,0,4.18-4A4.07,4.07,0,0,0,1864,830.58Z"/><path class="cls-17" d="M1864.48,849.1a3.75,3.75,0,1,0,3.74-3.54A3.64,3.64,0,0,0,1864.48,849.1Z"/><path class="cls-17" d="M1864.91,867.62a3.32,3.32,0,1,0,3.31-3.13A3.22,3.22,0,0,0,1864.91,867.62Z"/><path class="cls-17" d="M1865.34,886.14a2.88,2.88,0,1,0,2.88-2.72A2.81,2.81,0,0,0,1865.34,886.14Z"/><path class="cls-17" d="M1865.78,904.66a2.44,2.44,0,1,0,2.44-2.31A2.38,2.38,0,0,0,1865.78,904.66Z"/><path class="cls-17" d="M1866.27,923.18a2,2,0,1,0,2-1.85A1.89,1.89,0,0,0,1866.27,923.18Z"/><path class="cls-17" d="M1866.7,941.69a1.52,1.52,0,1,0,1.52-1.43A1.48,1.48,0,0,0,1866.7,941.69Z"/><path class="cls-17" d="M1867.13,960.21a1.09,1.09,0,1,0,1.09-1A1.06,1.06,0,0,0,1867.13,960.21Z"/><path class="cls-17" d="M1867.57,978.73a.65.65,0,1,0,.65-.62A.64.64,0,0,0,1867.57,978.73Z"/><path class="cls-17" d="M1868,997.25a.21.21,0,0,0,.22.2.2.2,0,0,0,.21-.2.21.21,0,0,0-.21-.21A.22.22,0,0,0,1868,997.25Z"/><path class="cls-17" d="M1848.55,441.7a.11.11,0,0,0,.22,0,.11.11,0,0,0-.22,0Z"/><ellipse class="cls-17" cx="1848.66" cy="460.22" rx="0.54" ry="0.51"/><path class="cls-17" d="M1847.68,478.73a1,1,0,1,0,1-.92A1,1,0,0,0,1847.68,478.73Z"/><ellipse class="cls-17" cx="1848.66" cy="497.25" rx="1.41" ry="1.34"/><ellipse class="cls-17" cx="1848.66" cy="515.77" rx="1.84" ry="1.75"/><path class="cls-17" d="M1846.38,534.29a2.28,2.28,0,1,0,2.28-2.16A2.22,2.22,0,0,0,1846.38,534.29Z"/><ellipse class="cls-17" cx="1848.66" cy="552.81" rx="2.71" ry="2.57"/><path class="cls-17" d="M1845.52,571.33a3.15,3.15,0,1,0,3.14-3A3.06,3.06,0,0,0,1845.52,571.33Z"/><ellipse class="cls-17" cx="1848.66" cy="589.84" rx="3.52" ry="3.34"/><path class="cls-17" d="M1844.7,608.36a4,4,0,1,0,4-3.75A3.86,3.86,0,0,0,1844.7,608.36Z"/><ellipse class="cls-17" cx="1848.66" cy="626.88" rx="4.34" ry="4.11"/><path class="cls-17" d="M1843.94,645.4a4.73,4.73,0,1,0,4.72-4.47A4.6,4.6,0,0,0,1843.94,645.4Z"/><ellipse class="cls-17" cx="1848.66" cy="663.92" rx="5.1" ry="4.83"/><path class="cls-17" d="M1843.29,682.44a5.38,5.38,0,1,0,5.37-5.09A5.24,5.24,0,0,0,1843.29,682.44Z"/><ellipse class="cls-17" cx="1848.66" cy="700.96" rx="5.59" ry="5.29"/><ellipse class="cls-17" cx="1848.66" cy="719.47" rx="5.64" ry="5.34"/><ellipse class="cls-17" cx="1848.66" cy="737.99" rx="5.59" ry="5.29"/><path class="cls-17" d="M1843.29,756.51a5.38,5.38,0,1,0,5.37-5.08A5.23,5.23,0,0,0,1843.29,756.51Z"/><ellipse class="cls-17" cx="1848.66" cy="775.03" rx="5.1" ry="4.83"/><ellipse class="cls-17" cx="1848.66" cy="793.55" rx="4.77" ry="4.52"/><ellipse class="cls-17" cx="1848.66" cy="812.07" rx="4.39" ry="4.16"/><ellipse class="cls-17" cx="1848.66" cy="830.58" rx="4.01" ry="3.8"/><path class="cls-17" d="M1845.08,849.1a3.59,3.59,0,1,0,3.58-3.39A3.49,3.49,0,0,0,1845.08,849.1Z"/><ellipse class="cls-17" cx="1848.66" cy="867.62" rx="3.15" ry="2.98"/><path class="cls-17" d="M1845.89,886.14a2.77,2.77,0,1,0,2.77-2.62A2.7,2.7,0,0,0,1845.89,886.14Z"/><ellipse class="cls-17" cx="1848.66" cy="904.66" rx="2.28" ry="2.16"/><path class="cls-17" d="M1846.82,923.18a1.84,1.84,0,1,0,1.84-1.75A1.79,1.79,0,0,0,1846.82,923.18Z"/><ellipse class="cls-17" cx="1848.66" cy="941.69" rx="1.46" ry="1.39"/><path class="cls-17" d="M1847.63,960.21a1,1,0,1,0,1-1A1,1,0,0,0,1847.63,960.21Z"/><ellipse class="cls-17" cx="1848.66" cy="978.73" rx="0.6" ry="0.56"/><path class="cls-17" d="M1848.5,997.25a.16.16,0,0,0,.32,0,.16.16,0,0,0-.32,0Z"/><path class="cls-17" d="M1829.05,441.7a0,0,0,0,0,0,.05.05.05,0,1,0,0-.1A0,0,0,0,0,1829.05,441.7Z"/><ellipse class="cls-17" cx="1829.1" cy="460.22" rx="0.43" ry="0.41"/><path class="cls-17" d="M1828.24,478.73a.84.84,0,0,0,.86.83.83.83,0,1,0,0-1.65A.84.84,0,0,0,1828.24,478.73Z"/><path class="cls-17" d="M1827.86,497.25a1.25,1.25,0,0,0,2.49,0,1.25,1.25,0,0,0-2.49,0Z"/><path class="cls-17" d="M1827.42,515.77a1.68,1.68,0,1,0,1.68-1.59A1.63,1.63,0,0,0,1827.42,515.77Z"/><path class="cls-17" d="M1827,534.29a2.12,2.12,0,1,0,2.11-2A2.06,2.06,0,0,0,1827,534.29Z"/><path class="cls-17" d="M1826.55,552.81a2.55,2.55,0,1,0,2.55-2.42A2.49,2.49,0,0,0,1826.55,552.81Z"/><path class="cls-17" d="M1826.12,571.33a3,3,0,1,0,3-2.83A2.91,2.91,0,0,0,1826.12,571.33Z"/><path class="cls-17" d="M1825.74,589.84a3.37,3.37,0,1,0,3.36-3.18A3.28,3.28,0,0,0,1825.74,589.84Z"/><path class="cls-17" d="M1825.36,608.36a3.75,3.75,0,1,0,3.74-3.54A3.65,3.65,0,0,0,1825.36,608.36Z"/><path class="cls-17" d="M1825,626.88a4.13,4.13,0,1,0,4.12-3.9A4,4,0,0,0,1825,626.88Z"/><path class="cls-17" d="M1824.66,645.4a4.45,4.45,0,1,0,4.44-4.21A4.33,4.33,0,0,0,1824.66,645.4Z"/><path class="cls-17" d="M1824.39,663.92a4.72,4.72,0,1,0,4.71-4.47A4.59,4.59,0,0,0,1824.39,663.92Z"/><path class="cls-17" d="M1824.11,682.44a5,5,0,1,0,5-4.73A4.86,4.86,0,0,0,1824.11,682.44Z"/><path class="cls-17" d="M1824,701a5.16,5.16,0,1,0,5.15-4.88A5,5,0,0,0,1824,701Z"/><ellipse class="cls-17" cx="1829.1" cy="719.47" rx="5.21" ry="4.93"/><path class="cls-17" d="M1824,738a5.16,5.16,0,1,0,5.15-4.88A5,5,0,0,0,1824,738Z"/><path class="cls-17" d="M1824.06,756.51a5.05,5.05,0,1,0,5-4.78A4.92,4.92,0,0,0,1824.06,756.51Z"/><ellipse class="cls-17" cx="1829.1" cy="775.03" rx="4.77" ry="4.52"/><path class="cls-17" d="M1824.66,793.55a4.45,4.45,0,1,0,4.44-4.21A4.33,4.33,0,0,0,1824.66,793.55Z"/><path class="cls-17" d="M1825,812.07a4.13,4.13,0,1,0,4.12-3.91A4,4,0,0,0,1825,812.07Z"/><path class="cls-17" d="M1825.36,830.58a3.75,3.75,0,1,0,3.74-3.54A3.65,3.65,0,0,0,1825.36,830.58Z"/><path class="cls-17" d="M1825.74,849.1a3.37,3.37,0,1,0,3.36-3.18A3.28,3.28,0,0,0,1825.74,849.1Z"/><path class="cls-17" d="M1826.12,867.62a3,3,0,1,0,3-2.82A2.91,2.91,0,0,0,1826.12,867.62Z"/><ellipse class="cls-17" cx="1829.1" cy="886.14" rx="2.6" ry="2.46"/><ellipse class="cls-17" cx="1829.1" cy="904.66" rx="2.17" ry="2.05"/><ellipse class="cls-17" cx="1829.1" cy="923.18" rx="1.74" ry="1.64"/><ellipse class="cls-17" cx="1829.1" cy="941.69" rx="1.3" ry="1.23"/><path class="cls-17" d="M1828.24,960.21a.83.83,0,0,0,.86.82.82.82,0,1,0-.86-.82Z"/><ellipse class="cls-17" cx="1829.1" cy="978.73" rx="0.43" ry="0.41"/><path class="cls-17" d="M1829.05,997.25a0,0,0,0,0,0,0,.05.05,0,1,0,0-.1A0,0,0,0,0,1829.05,997.25Z"/><path class="cls-17" d="M1809.28,460.22a.27.27,0,1,0,.27-.26A.26.26,0,0,0,1809.28,460.22Z"/><path class="cls-17" d="M1808.84,478.73a.69.69,0,0,0,.71.67.67.67,0,1,0,0-1.33A.69.69,0,0,0,1808.84,478.73Z"/><path class="cls-17" d="M1808.41,497.25a1.14,1.14,0,1,0,1.14-1.08A1.11,1.11,0,0,0,1808.41,497.25Z"/><path class="cls-17" d="M1808,515.77a1.52,1.52,0,1,0,1.52-1.44A1.48,1.48,0,0,0,1808,515.77Z"/><path class="cls-17" d="M1807.59,534.29a2,2,0,1,0,2-1.85A1.91,1.91,0,0,0,1807.59,534.29Z"/><path class="cls-17" d="M1807.21,552.81a2.34,2.34,0,1,0,2.34-2.21A2.28,2.28,0,0,0,1807.21,552.81Z"/><path class="cls-17" d="M1806.83,571.33a2.72,2.72,0,1,0,2.72-2.57A2.65,2.65,0,0,0,1806.83,571.33Z"/><ellipse class="cls-17" cx="1809.55" cy="589.84" rx="3.09" ry="2.93"/><ellipse class="cls-17" cx="1809.55" cy="608.36" rx="3.47" ry="3.29"/><ellipse class="cls-17" cx="1809.55" cy="626.88" rx="3.8" ry="3.59"/><path class="cls-17" d="M1805.42,645.4a4.13,4.13,0,1,0,4.13-3.9A4,4,0,0,0,1805.42,645.4Z"/><ellipse class="cls-17" cx="1809.55" cy="663.92" rx="4.34" ry="4.11"/><path class="cls-17" d="M1805,682.44a4.56,4.56,0,1,0,4.56-4.32A4.44,4.44,0,0,0,1805,682.44Z"/><ellipse class="cls-17" cx="1809.55" cy="700.96" rx="4.72" ry="4.47"/><ellipse class="cls-17" cx="1809.55" cy="719.47" rx="4.77" ry="4.52"/><ellipse class="cls-17" cx="1809.55" cy="737.99" rx="4.72" ry="4.47"/><path class="cls-17" d="M1805,756.51a4.56,4.56,0,1,0,4.56-4.31A4.44,4.44,0,0,0,1805,756.51Z"/><ellipse class="cls-17" cx="1809.55" cy="775.03" rx="4.39" ry="4.16"/><path class="cls-17" d="M1805.42,793.55a4.13,4.13,0,1,0,4.13-3.91A4,4,0,0,0,1805.42,793.55Z"/><ellipse class="cls-17" cx="1809.55" cy="812.07" rx="3.85" ry="3.65"/><ellipse class="cls-17" cx="1809.55" cy="830.58" rx="3.52" ry="3.34"/><path class="cls-17" d="M1806.4,849.1a3.15,3.15,0,1,0,3.15-3A3.07,3.07,0,0,0,1806.4,849.1Z"/><path class="cls-17" d="M1806.78,867.62a2.77,2.77,0,1,0,2.77-2.62A2.7,2.7,0,0,0,1806.78,867.62Z"/><path class="cls-17" d="M1807.16,886.14a2.39,2.39,0,1,0,2.39-2.26A2.33,2.33,0,0,0,1807.16,886.14Z"/><path class="cls-17" d="M1807.59,904.66a2,2,0,1,0,2-1.85A1.91,1.91,0,0,0,1807.59,904.66Z"/><path class="cls-17" d="M1808,923.18a1.58,1.58,0,1,0,1.58-1.49A1.53,1.53,0,0,0,1808,923.18Z"/><ellipse class="cls-17" cx="1809.55" cy="941.69" rx="1.14" ry="1.08"/><path class="cls-17" d="M1808.79,960.21a.76.76,0,1,0,.76-.72A.74.74,0,0,0,1808.79,960.21Z"/><ellipse class="cls-17" cx="1809.55" cy="978.73" rx="0.33" ry="0.31"/><path class="cls-17" d="M1789.83,460.22a.16.16,0,0,0,.32,0,.16.16,0,0,0-.32,0Z"/><path class="cls-17" d="M1789.45,478.73a.54.54,0,1,0,.54-.51A.53.53,0,0,0,1789.45,478.73Z"/><path class="cls-17" d="M1789.07,497.25a.92.92,0,1,0,.92-.87A.9.9,0,0,0,1789.07,497.25Z"/><path class="cls-17" d="M1788.63,515.77a1.36,1.36,0,1,0,1.36-1.28A1.33,1.33,0,0,0,1788.63,515.77Z"/><path class="cls-17" d="M1788.25,534.29a1.74,1.74,0,1,0,1.74-1.64A1.69,1.69,0,0,0,1788.25,534.29Z"/><path class="cls-17" d="M1787.87,552.81a2.12,2.12,0,1,0,2.12-2A2.07,2.07,0,0,0,1787.87,552.81Z"/><path class="cls-17" d="M1787.49,571.33A2.5,2.5,0,1,0,1790,569,2.44,2.44,0,0,0,1787.49,571.33Z"/><path class="cls-17" d="M1787.17,589.84a2.82,2.82,0,1,0,2.82-2.67A2.75,2.75,0,0,0,1787.17,589.84Z"/><path class="cls-17" d="M1786.84,608.36a3.15,3.15,0,1,0,3.15-3A3.07,3.07,0,0,0,1786.84,608.36Z"/><ellipse class="cls-17" cx="1789.99" cy="626.88" rx="3.47" ry="3.29"/><path class="cls-17" d="M1786.25,645.4a3.75,3.75,0,1,0,3.74-3.54A3.64,3.64,0,0,0,1786.25,645.4Z"/><path class="cls-17" d="M1786,663.92a4,4,0,1,0,4-3.75A3.86,3.86,0,0,0,1786,663.92Z"/><path class="cls-17" d="M1785.87,682.44a4.13,4.13,0,1,0,4.12-3.91A4,4,0,0,0,1785.87,682.44Z"/><path class="cls-17" d="M1785.71,701a4.29,4.29,0,1,0,4.28-4.06A4.16,4.16,0,0,0,1785.71,701Z"/><path class="cls-17" d="M1785.71,719.47a4.29,4.29,0,1,0,4.28-4.05A4.17,4.17,0,0,0,1785.71,719.47Z"/><path class="cls-17" d="M1785.71,738a4.29,4.29,0,1,0,4.28-4.06A4.17,4.17,0,0,0,1785.71,738Z"/><path class="cls-17" d="M1785.81,756.51a4.19,4.19,0,1,0,4.18-4A4.07,4.07,0,0,0,1785.81,756.51Z"/><path class="cls-17" d="M1786,775a4,4,0,1,0,4-3.8A3.91,3.91,0,0,0,1786,775Z"/><path class="cls-17" d="M1786.25,793.55A3.75,3.75,0,1,0,1790,790,3.64,3.64,0,0,0,1786.25,793.55Z"/><path class="cls-17" d="M1786.46,812.07a3.53,3.53,0,1,0,3.53-3.34A3.43,3.43,0,0,0,1786.46,812.07Z"/><path class="cls-17" d="M1786.79,830.58a3.2,3.2,0,1,0,3.2-3A3.11,3.11,0,0,0,1786.79,830.58Z"/><path class="cls-17" d="M1787.12,849.1a2.87,2.87,0,1,0,2.87-2.72A2.8,2.8,0,0,0,1787.12,849.1Z"/><path class="cls-17" d="M1787.49,867.62a2.5,2.5,0,1,0,2.5-2.36A2.44,2.44,0,0,0,1787.49,867.62Z"/><path class="cls-17" d="M1787.87,886.14a2.12,2.12,0,1,0,2.12-2A2.07,2.07,0,0,0,1787.87,886.14Z"/><path class="cls-17" d="M1788.25,904.66A1.74,1.74,0,1,0,1790,903,1.7,1.7,0,0,0,1788.25,904.66Z"/><path class="cls-17" d="M1788.63,923.18a1.36,1.36,0,1,0,1.36-1.29A1.33,1.33,0,0,0,1788.63,923.18Z"/><path class="cls-17" d="M1789,941.69a1,1,0,1,0,1-.92A1,1,0,0,0,1789,941.69Z"/><path class="cls-17" d="M1789.39,960.21a.6.6,0,0,0,1.2,0,.6.6,0,0,0-1.2,0Z"/><path class="cls-17" d="M1789.83,978.73a.16.16,0,0,0,.32,0,.16.16,0,0,0-.32,0Z"/><path class="cls-17" d="M1770.11,478.73a.31.31,0,0,0,.32.31.32.32,0,0,0,.33-.31.31.31,0,0,0-.33-.3A.31.31,0,0,0,1770.11,478.73Z"/><path class="cls-17" d="M1769.73,497.25a.68.68,0,0,0,.7.67.69.69,0,0,0,.71-.67.68.68,0,0,0-.71-.66A.68.68,0,0,0,1769.73,497.25Z"/><path class="cls-17" d="M1769.35,515.77a1.09,1.09,0,1,0,1.08-1A1.05,1.05,0,0,0,1769.35,515.77Z"/><path class="cls-17" d="M1769,534.29a1.47,1.47,0,1,0,1.46-1.39A1.42,1.42,0,0,0,1769,534.29Z"/><ellipse class="cls-17" cx="1770.43" cy="552.81" rx="1.84" ry="1.75"/><ellipse class="cls-17" cx="1770.43" cy="571.33" rx="2.17" ry="2.05"/><ellipse class="cls-17" cx="1770.43" cy="589.84" rx="2.55" ry="2.41"/><path class="cls-17" d="M1767.61,608.36a2.82,2.82,0,1,0,2.82-2.67A2.75,2.75,0,0,0,1767.61,608.36Z"/><ellipse class="cls-17" cx="1770.43" cy="626.88" rx="3.15" ry="2.98"/><path class="cls-17" d="M1767.07,645.4a3.37,3.37,0,1,0,3.36-3.18A3.27,3.27,0,0,0,1767.07,645.4Z"/><ellipse class="cls-17" cx="1770.43" cy="663.92" rx="3.58" ry="3.39"/><path class="cls-17" d="M1766.69,682.44a3.75,3.75,0,1,0,3.74-3.55A3.65,3.65,0,0,0,1766.69,682.44Z"/><ellipse class="cls-17" cx="1770.43" cy="700.96" rx="3.8" ry="3.59"/><path class="cls-17" d="M1766.58,719.47a3.86,3.86,0,1,0,3.85-3.64A3.76,3.76,0,0,0,1766.58,719.47Z"/><ellipse class="cls-17" cx="1770.43" cy="737.99" rx="3.85" ry="3.65"/><path class="cls-17" d="M1766.69,756.51a3.75,3.75,0,1,0,3.74-3.54A3.64,3.64,0,0,0,1766.69,756.51Z"/><ellipse class="cls-17" cx="1770.43" cy="775.03" rx="3.58" ry="3.39"/><path class="cls-17" d="M1767.07,793.55a3.36,3.36,0,1,0,3.36-3.19A3.27,3.27,0,0,0,1767.07,793.55Z"/><path class="cls-17" d="M1767.29,812.07a3.15,3.15,0,1,0,3.14-3A3.06,3.06,0,0,0,1767.29,812.07Z"/><path class="cls-17" d="M1767.56,830.58a2.88,2.88,0,1,0,2.87-2.72A2.8,2.8,0,0,0,1767.56,830.58Z"/><ellipse class="cls-17" cx="1770.43" cy="849.1" rx="2.55" ry="2.41"/><ellipse class="cls-17" cx="1770.43" cy="867.62" rx="2.22" ry="2.11"/><path class="cls-17" d="M1768.59,886.14a1.85,1.85,0,1,0,1.84-1.75A1.79,1.79,0,0,0,1768.59,886.14Z"/><path class="cls-17" d="M1768.91,904.66a1.52,1.52,0,1,0,1.52-1.44A1.48,1.48,0,0,0,1768.91,904.66Z"/><path class="cls-17" d="M1769.29,923.18a1.14,1.14,0,1,0,1.14-1.08A1.11,1.11,0,0,0,1769.29,923.18Z"/><ellipse class="cls-17" cx="1770.43" cy="941.69" rx="0.76" ry="0.72"/><path class="cls-17" d="M1770.05,960.21a.38.38,0,1,0,.38-.36A.37.37,0,0,0,1770.05,960.21Z"/><circle class="cls-17" cx="1770.43" cy="978.73" r="0.05"/><path class="cls-17" d="M1750.77,478.73a.11.11,0,0,0,.11.11.1.1,0,0,0,.1-.11.1.1,0,0,0-.1-.1A.11.11,0,0,0,1750.77,478.73Z"/><path class="cls-17" d="M1750.39,497.25a.48.48,0,0,0,.49.47.47.47,0,1,0,0-.93A.48.48,0,0,0,1750.39,497.25Z"/><ellipse class="cls-17" cx="1750.88" cy="515.77" rx="0.87" ry="0.82"/><path class="cls-17" d="M1749.68,534.29a1.2,1.2,0,1,0,1.2-1.13A1.17,1.17,0,0,0,1749.68,534.29Z"/><path class="cls-17" d="M1749.3,552.81a1.58,1.58,0,1,0,1.58-1.49A1.54,1.54,0,0,0,1749.3,552.81Z"/><path class="cls-17" d="M1749,571.33a1.9,1.9,0,1,0,1.9-1.8A1.85,1.85,0,0,0,1749,571.33Z"/><ellipse class="cls-17" cx="1750.88" cy="589.84" rx="2.17" ry="2.05"/><path class="cls-17" d="M1748.38,608.36a2.5,2.5,0,1,0,2.5-2.36A2.44,2.44,0,0,0,1748.38,608.36Z"/><path class="cls-17" d="M1748.11,626.88a2.77,2.77,0,1,0,2.77-2.62A2.7,2.7,0,0,0,1748.11,626.88Z"/><path class="cls-17" d="M1747.89,645.4a3,3,0,1,0,3-2.82A2.91,2.91,0,0,0,1747.89,645.4Z"/><path class="cls-17" d="M1747.73,663.92a3.15,3.15,0,1,0,3.15-3A3.07,3.07,0,0,0,1747.73,663.92Z"/><path class="cls-17" d="M1747.57,682.44a3.31,3.31,0,1,0,3.31-3.14A3.22,3.22,0,0,0,1747.57,682.44Z"/><path class="cls-17" d="M1747.51,701a3.37,3.37,0,1,0,3.37-3.19A3.28,3.28,0,0,0,1747.51,701Z"/><path class="cls-17" d="M1747.46,719.47a3.42,3.42,0,1,0,3.42-3.23A3.33,3.33,0,0,0,1747.46,719.47Z"/><path class="cls-17" d="M1747.51,738a3.37,3.37,0,1,0,3.37-3.18A3.29,3.29,0,0,0,1747.51,738Z"/><path class="cls-17" d="M1747.57,756.51a3.31,3.31,0,1,0,3.31-3.13A3.22,3.22,0,0,0,1747.57,756.51Z"/><path class="cls-17" d="M1747.73,775a3.15,3.15,0,1,0,3.15-3A3.07,3.07,0,0,0,1747.73,775Z"/><path class="cls-17" d="M1747.89,793.55a3,3,0,1,0,3-2.83A2.91,2.91,0,0,0,1747.89,793.55Z"/><path class="cls-17" d="M1748.11,812.07a2.77,2.77,0,1,0,2.77-2.62A2.69,2.69,0,0,0,1748.11,812.07Z"/><path class="cls-17" d="M1748.38,830.58a2.5,2.5,0,1,0,2.5-2.36A2.44,2.44,0,0,0,1748.38,830.58Z"/><path class="cls-17" d="M1748.65,849.1a2.23,2.23,0,1,0,2.23-2.1A2.18,2.18,0,0,0,1748.65,849.1Z"/><path class="cls-17" d="M1749,867.62a1.9,1.9,0,1,0,1.9-1.8A1.85,1.85,0,0,0,1749,867.62Z"/><path class="cls-17" d="M1749.3,886.14a1.58,1.58,0,1,0,1.58-1.49A1.54,1.54,0,0,0,1749.3,886.14Z"/><path class="cls-17" d="M1749.63,904.66a1.25,1.25,0,1,0,1.25-1.18A1.22,1.22,0,0,0,1749.63,904.66Z"/><ellipse class="cls-17" cx="1750.88" cy="923.18" rx="0.87" ry="0.82"/><path class="cls-17" d="M1750.33,941.69a.54.54,0,0,0,.55.52.52.52,0,1,0,0-1A.53.53,0,0,0,1750.33,941.69Z"/><path class="cls-17" d="M1750.71,960.21a.17.17,0,0,0,.17.16.16.16,0,0,0,.16-.16.16.16,0,0,0-.16-.15A.17.17,0,0,0,1750.71,960.21Z"/><path class="cls-17" d="M1731.1,497.25a.22.22,0,1,0,.22-.2A.21.21,0,0,0,1731.1,497.25Z"/><path class="cls-17" d="M1730.72,515.77a.59.59,0,0,0,.6.57.58.58,0,0,0,.59-.57.57.57,0,0,0-.59-.56A.58.58,0,0,0,1730.72,515.77Z"/><ellipse class="cls-17" cx="1731.32" cy="534.29" rx="0.92" ry="0.87"/><path class="cls-17" d="M1730.07,552.81a1.25,1.25,0,1,0,1.25-1.18A1.22,1.22,0,0,0,1730.07,552.81Z"/><path class="cls-17" d="M1729.75,571.33a1.57,1.57,0,1,0,1.57-1.49A1.53,1.53,0,0,0,1729.75,571.33Z"/><ellipse class="cls-17" cx="1731.32" cy="589.84" rx="1.84" ry="1.75"/><path class="cls-17" d="M1729.2,608.36a2.12,2.12,0,1,0,2.12-2A2.07,2.07,0,0,0,1729.2,608.36Z"/><path class="cls-17" d="M1728.93,626.88a2.39,2.39,0,1,0,2.39-2.26A2.33,2.33,0,0,0,1728.93,626.88Z"/><path class="cls-17" d="M1728.77,645.4a2.55,2.55,0,1,0,2.55-2.41A2.48,2.48,0,0,0,1728.77,645.4Z"/><ellipse class="cls-17" cx="1731.32" cy="663.92" rx="2.71" ry="2.57"/><path class="cls-17" d="M1728.44,682.44a2.88,2.88,0,1,0,2.88-2.72A2.81,2.81,0,0,0,1728.44,682.44Z"/><ellipse class="cls-17" cx="1731.32" cy="700.96" rx="2.93" ry="2.77"/><path class="cls-17" d="M1728.34,719.47a3,3,0,1,0,3-2.82A2.91,2.91,0,0,0,1728.34,719.47Z"/><ellipse class="cls-17" cx="1731.32" cy="737.99" rx="2.93" ry="2.77"/><path class="cls-17" d="M1728.44,756.51a2.88,2.88,0,1,0,2.88-2.72A2.81,2.81,0,0,0,1728.44,756.51Z"/><path class="cls-17" d="M1728.55,775a2.77,2.77,0,1,0,2.77-2.62A2.7,2.7,0,0,0,1728.55,775Z"/><ellipse class="cls-17" cx="1731.32" cy="793.55" rx="2.6" ry="2.46"/><path class="cls-17" d="M1728.93,812.07a2.39,2.39,0,1,0,2.39-2.26A2.32,2.32,0,0,0,1728.93,812.07Z"/><ellipse class="cls-17" cx="1731.32" cy="830.58" rx="2.12" ry="2"/><path class="cls-17" d="M1729.47,849.1a1.85,1.85,0,1,0,1.85-1.74A1.8,1.8,0,0,0,1729.47,849.1Z"/><path class="cls-17" d="M1729.75,867.62a1.57,1.57,0,1,0,1.57-1.49A1.53,1.53,0,0,0,1729.75,867.62Z"/><path class="cls-17" d="M1730,886.14a1.3,1.3,0,1,0,1.3-1.23A1.26,1.26,0,0,0,1730,886.14Z"/><ellipse class="cls-17" cx="1731.32" cy="904.66" rx="0.98" ry="0.92"/><path class="cls-17" d="M1730.72,923.18a.58.58,0,0,0,.6.56.57.57,0,1,0,0-1.13A.58.58,0,0,0,1730.72,923.18Z"/><path class="cls-17" d="M1731.05,941.69a.27.27,0,1,0,.27-.25A.26.26,0,0,0,1731.05,941.69Z"/><path class="cls-17" d="M1711.71,497.25a0,0,0,0,0,0,.05.05.05,0,1,0,0-.1A0,0,0,0,0,1711.71,497.25Z"/><path class="cls-17" d="M1711.49,515.77a.27.27,0,1,0,.27-.26A.27.27,0,0,0,1711.49,515.77Z"/><path class="cls-17" d="M1711.17,534.29a.57.57,0,0,0,.59.56.58.58,0,0,0,.6-.56.59.59,0,0,0-.6-.57A.58.58,0,0,0,1711.17,534.29Z"/><ellipse class="cls-17" cx="1711.76" cy="552.81" rx="0.92" ry="0.87"/><ellipse class="cls-17" cx="1711.76" cy="571.33" rx="1.25" ry="1.18"/><path class="cls-17" d="M1710.3,589.84a1.47,1.47,0,1,0,1.46-1.38A1.42,1.42,0,0,0,1710.3,589.84Z"/><path class="cls-17" d="M1710,608.36a1.74,1.74,0,1,0,1.73-1.64A1.69,1.69,0,0,0,1710,608.36Z"/><path class="cls-17" d="M1709.81,626.88a2,2,0,1,0,2-1.85A1.9,1.9,0,0,0,1709.81,626.88Z"/><path class="cls-17" d="M1709.65,645.4a2.12,2.12,0,1,0,2.11-2A2.05,2.05,0,0,0,1709.65,645.4Z"/><path class="cls-17" d="M1709.48,663.92a2.28,2.28,0,1,0,2.28-2.16A2.22,2.22,0,0,0,1709.48,663.92Z"/><path class="cls-17" d="M1709.38,682.44a2.39,2.39,0,1,0,2.38-2.26A2.32,2.32,0,0,0,1709.38,682.44Z"/><path class="cls-17" d="M1709.27,701a2.5,2.5,0,1,0,2.49-2.37A2.43,2.43,0,0,0,1709.27,701Z"/><path class="cls-17" d="M1709.27,719.47a2.5,2.5,0,1,0,2.49-2.36A2.43,2.43,0,0,0,1709.27,719.47Z"/><path class="cls-17" d="M1709.27,738a2.5,2.5,0,1,0,2.49-2.36A2.42,2.42,0,0,0,1709.27,738Z"/><path class="cls-17" d="M1709.32,756.51a2.44,2.44,0,1,0,2.44-2.31A2.37,2.37,0,0,0,1709.32,756.51Z"/><path class="cls-17" d="M1709.48,775a2.28,2.28,0,1,0,2.28-2.16A2.22,2.22,0,0,0,1709.48,775Z"/><ellipse class="cls-17" cx="1711.76" cy="793.55" rx="2.17" ry="2.05"/><path class="cls-17" d="M1709.81,812.07a2,2,0,1,0,2-1.85A1.89,1.89,0,0,0,1709.81,812.07Z"/><path class="cls-17" d="M1710,830.58a1.74,1.74,0,1,0,1.73-1.64A1.69,1.69,0,0,0,1710,830.58Z"/><path class="cls-17" d="M1710.24,849.1a1.52,1.52,0,1,0,1.52-1.44A1.48,1.48,0,0,0,1710.24,849.1Z"/><ellipse class="cls-17" cx="1711.76" cy="867.62" rx="1.25" ry="1.18"/><path class="cls-17" d="M1710.79,886.14a1,1,0,0,0,2,0,1,1,0,0,0-2,0Z"/><path class="cls-17" d="M1711.11,904.66a.65.65,0,0,0,1.3,0,.65.65,0,0,0-1.3,0Z"/><path class="cls-17" d="M1711.44,923.18a.31.31,0,0,0,.32.3.31.31,0,0,0,.33-.3.32.32,0,0,0-.33-.31A.31.31,0,0,0,1711.44,923.18Z"/><path class="cls-17" d="M1711.71,941.69a0,0,0,0,0,0,0,.06.06,0,0,0,.06,0,.06.06,0,0,0-.06-.05A.05.05,0,0,0,1711.71,941.69Z"/><circle class="cls-17" cx="1692.2" cy="515.77" r="0.05"/><path class="cls-17" d="M1691.88,534.29a.31.31,0,0,0,.32.31.31.31,0,1,0,0-.62A.31.31,0,0,0,1691.88,534.29Z"/><path class="cls-17" d="M1691.61,552.81a.6.6,0,0,0,1.19,0,.6.6,0,0,0-1.19,0Z"/><path class="cls-17" d="M1691.34,571.33a.87.87,0,1,0,.86-.82A.85.85,0,0,0,1691.34,571.33Z"/><path class="cls-17" d="M1691.07,589.84a1.14,1.14,0,1,0,1.13-1.07A1.11,1.11,0,0,0,1691.07,589.84Z"/><path class="cls-17" d="M1690.85,608.36a1.36,1.36,0,1,0,1.35-1.28A1.33,1.33,0,0,0,1690.85,608.36Z"/><path class="cls-17" d="M1690.63,626.88a1.58,1.58,0,1,0,1.57-1.49A1.54,1.54,0,0,0,1690.63,626.88Z"/><ellipse class="cls-17" cx="1692.2" cy="645.4" rx="1.74" ry="1.64"/><ellipse class="cls-17" cx="1692.2" cy="663.92" rx="1.84" ry="1.75"/><path class="cls-17" d="M1690.25,682.44a2,2,0,1,0,2-1.85A1.91,1.91,0,0,0,1690.25,682.44Z"/><path class="cls-17" d="M1690.2,701a2,2,0,1,0,2-1.91A2,2,0,0,0,1690.2,701Z"/><path class="cls-17" d="M1690.14,719.47a2.07,2.07,0,1,0,2.06-2A2,2,0,0,0,1690.14,719.47Z"/><path class="cls-17" d="M1690.2,738a2,2,0,1,0,2-1.9A2,2,0,0,0,1690.2,738Z"/><path class="cls-17" d="M1690.25,756.51a2,2,0,1,0,2-1.85A1.91,1.91,0,0,0,1690.25,756.51Z"/><ellipse class="cls-17" cx="1692.2" cy="775.03" rx="1.84" ry="1.75"/><ellipse class="cls-17" cx="1692.2" cy="793.55" rx="1.74" ry="1.64"/><path class="cls-17" d="M1690.63,812.07a1.58,1.58,0,1,0,1.57-1.49A1.53,1.53,0,0,0,1690.63,812.07Z"/><ellipse class="cls-17" cx="1692.2" cy="830.58" rx="1.36" ry="1.28"/><path class="cls-17" d="M1691.07,849.1a1.14,1.14,0,1,0,1.13-1.08A1.11,1.11,0,0,0,1691.07,849.1Z"/><path class="cls-17" d="M1691.34,867.62a.87.87,0,1,0,.86-.82A.85.85,0,0,0,1691.34,867.62Z"/><path class="cls-17" d="M1691.61,886.14a.6.6,0,0,0,1.19,0,.6.6,0,0,0-1.19,0Z"/><ellipse class="cls-17" cx="1692.2" cy="904.66" rx="0.33" ry="0.31"/><path class="cls-17" d="M1692.15,923.18a.05.05,0,0,0,0,.05.06.06,0,1,0,0-.11A.06.06,0,0,0,1692.15,923.18Z"/><circle class="cls-17" cx="1672.65" cy="534.29" r="0.05"/><path class="cls-17" d="M1672.43,552.81a.21.21,0,0,0,.22.2.2.2,0,0,0,.21-.2.21.21,0,0,0-.21-.21A.21.21,0,0,0,1672.43,552.81Z"/><ellipse class="cls-17" cx="1672.65" cy="571.33" rx="0.49" ry="0.46"/><path class="cls-17" d="M1671.89,589.84a.76.76,0,1,0,.76-.71A.74.74,0,0,0,1671.89,589.84Z"/><path class="cls-17" d="M1671.67,608.36a1,1,0,0,0,1.95,0,1,1,0,0,0-1.95,0Z"/><path class="cls-17" d="M1671.51,626.88a1.14,1.14,0,1,0,1.14-1.08A1.11,1.11,0,0,0,1671.51,626.88Z"/><ellipse class="cls-17" cx="1672.65" cy="645.4" rx="1.3" ry="1.23"/><path class="cls-17" d="M1671.24,663.92a1.41,1.41,0,1,0,1.41-1.34A1.37,1.37,0,0,0,1671.24,663.92Z"/><path class="cls-17" d="M1671.13,682.44a1.52,1.52,0,1,0,1.52-1.44A1.48,1.48,0,0,0,1671.13,682.44Z"/><path class="cls-17" d="M1671.07,701a1.58,1.58,0,1,0,1.58-1.49A1.53,1.53,0,0,0,1671.07,701Z"/><path class="cls-17" d="M1671.07,719.47a1.58,1.58,0,1,0,1.58-1.49A1.53,1.53,0,0,0,1671.07,719.47Z"/><path class="cls-17" d="M1671.07,738a1.58,1.58,0,1,0,1.58-1.49A1.54,1.54,0,0,0,1671.07,738Z"/><path class="cls-17" d="M1671.13,756.51a1.52,1.52,0,1,0,1.52-1.44A1.48,1.48,0,0,0,1671.13,756.51Z"/><path class="cls-17" d="M1671.18,775a1.47,1.47,0,1,0,1.47-1.39A1.43,1.43,0,0,0,1671.18,775Z"/><ellipse class="cls-17" cx="1672.65" cy="793.55" rx="1.3" ry="1.23"/><path class="cls-17" d="M1671.51,812.07a1.14,1.14,0,1,0,1.14-1.08A1.11,1.11,0,0,0,1671.51,812.07Z"/><path class="cls-17" d="M1671.67,830.58a1,1,0,0,0,1.95,0,1,1,0,0,0-1.95,0Z"/><path class="cls-17" d="M1671.89,849.1a.76.76,0,1,0,.76-.72A.74.74,0,0,0,1671.89,849.1Z"/><path class="cls-17" d="M1672.11,867.62a.54.54,0,1,0,.54-.51A.53.53,0,0,0,1672.11,867.62Z"/><path class="cls-17" d="M1672.38,886.14a.27.27,0,1,0,.27-.26A.27.27,0,0,0,1672.38,886.14Z"/><circle class="cls-17" cx="1672.65" cy="904.66" r="0.05"/><path class="cls-17" d="M1652.93,571.33a.16.16,0,0,0,.32,0,.16.16,0,0,0-.32,0Z"/><ellipse class="cls-17" cx="1653.09" cy="589.84" rx="0.38" ry="0.36"/><path class="cls-17" d="M1652.55,608.36a.54.54,0,1,0,.54-.51A.53.53,0,0,0,1652.55,608.36Z"/><path class="cls-17" d="M1652.39,626.88a.68.68,0,0,0,.7.67.67.67,0,1,0,0-1.34A.68.68,0,0,0,1652.39,626.88Z"/><ellipse class="cls-17" cx="1653.09" cy="645.4" rx="0.87" ry="0.82"/><ellipse class="cls-17" cx="1653.09" cy="663.92" rx="0.98" ry="0.92"/><path class="cls-17" d="M1652,682.44a1.09,1.09,0,0,0,2.17,0,1.09,1.09,0,0,0-2.17,0Z"/><path class="cls-17" d="M1652,701a1.14,1.14,0,1,0,1.14-1.08A1.11,1.11,0,0,0,1652,701Z"/><path class="cls-17" d="M1652,719.47a1.14,1.14,0,1,0,1.14-1.07A1.11,1.11,0,0,0,1652,719.47Z"/><path class="cls-17" d="M1652,738a1.14,1.14,0,1,0,1.14-1.08A1.11,1.11,0,0,0,1652,738Z"/><path class="cls-17" d="M1652,756.51a1.09,1.09,0,1,0,1.08-1A1.05,1.05,0,0,0,1652,756.51Z"/><path class="cls-17" d="M1652.06,775a1,1,0,1,0,1-1A1,1,0,0,0,1652.06,775Z"/><ellipse class="cls-17" cx="1653.09" cy="793.55" rx="0.87" ry="0.82"/><path class="cls-17" d="M1652.33,812.07a.76.76,0,1,0,.76-.72A.74.74,0,0,0,1652.33,812.07Z"/><path class="cls-17" d="M1652.49,830.58a.6.6,0,1,0,.6-.56A.58.58,0,0,0,1652.49,830.58Z"/><ellipse class="cls-17" cx="1653.09" cy="849.1" rx="0.38" ry="0.36"/><path class="cls-17" d="M1652.93,867.62a.16.16,0,0,0,.32,0,.16.16,0,0,0-.32,0Z"/><path class="cls-17" d="M1633.48,589.84a.06.06,0,0,0,0,.06.06.06,0,1,0,0-.11A.05.05,0,0,0,1633.48,589.84Z"/><path class="cls-17" d="M1633.37,608.36a.16.16,0,0,0,.16.16.16.16,0,1,0,0-.31A.16.16,0,0,0,1633.37,608.36Z"/><ellipse class="cls-17" cx="1633.53" cy="626.88" rx="0.33" ry="0.31"/><ellipse class="cls-17" cx="1633.53" cy="645.4" rx="0.43" ry="0.41"/><ellipse class="cls-17" cx="1633.53" cy="663.92" rx="0.54" ry="0.51"/><path class="cls-17" d="M1632.88,682.44a.65.65,0,0,0,1.3,0,.65.65,0,0,0-1.3,0Z"/><path class="cls-17" d="M1632.83,701a.68.68,0,0,0,.7.66.67.67,0,1,0,0-1.33A.68.68,0,0,0,1632.83,701Z"/><path class="cls-17" d="M1632.83,719.47a.68.68,0,0,0,.7.67.69.69,0,0,0,.71-.67.68.68,0,0,0-.71-.66A.68.68,0,0,0,1632.83,719.47Z"/><path class="cls-17" d="M1632.83,738a.68.68,0,0,0,.7.67.67.67,0,1,0,0-1.34A.68.68,0,0,0,1632.83,738Z"/><path class="cls-17" d="M1632.88,756.51a.65.65,0,1,0,.65-.62A.64.64,0,0,0,1632.88,756.51Z"/><path class="cls-17" d="M1632.94,775a.57.57,0,0,0,.59.56.58.58,0,0,0,.6-.56.59.59,0,0,0-.6-.57A.58.58,0,0,0,1632.94,775Z"/><ellipse class="cls-17" cx="1633.53" cy="793.55" rx="0.43" ry="0.41"/><path class="cls-17" d="M1633.21,812.07a.31.31,0,0,0,.32.3.31.31,0,1,0,0-.61A.31.31,0,0,0,1633.21,812.07Z"/><path class="cls-17" d="M1633.37,830.58a.16.16,0,0,0,.16.16.16.16,0,1,0,0-.31A.16.16,0,0,0,1633.37,830.58Z"/><path class="cls-17" d="M1633.48,849.1a0,0,0,0,0,0,0,.05.05,0,1,0,0-.1A0,0,0,0,0,1633.48,849.1Z"/><path class="cls-17" d="M1613.92,645.4a.06.06,0,0,0,.06.05.05.05,0,0,0,0-.1A.06.06,0,0,0,1613.92,645.4Z"/><path class="cls-17" d="M1613.87,663.92a.11.11,0,0,0,.22,0,.11.11,0,0,0-.22,0Z"/><path class="cls-17" d="M1613.76,682.44a.21.21,0,0,0,.22.2.2.2,0,0,0,.21-.2.21.21,0,0,0-.21-.21A.21.21,0,0,0,1613.76,682.44Z"/><path class="cls-17" d="M1613.76,701a.21.21,0,0,0,.22.2.2.2,0,0,0,.21-.2.21.21,0,0,0-.21-.21A.21.21,0,0,0,1613.76,701Z"/><path class="cls-17" d="M1613.71,719.47a.27.27,0,1,0,.27-.25A.26.26,0,0,0,1613.71,719.47Z"/><path class="cls-17" d="M1613.76,738a.21.21,0,0,0,.22.21.21.21,0,0,0,.21-.21.2.2,0,0,0-.21-.2A.21.21,0,0,0,1613.76,738Z"/><path class="cls-17" d="M1613.76,756.51a.22.22,0,0,0,.22.21.21.21,0,0,0,0-.42A.22.22,0,0,0,1613.76,756.51Z"/><path class="cls-17" d="M1613.81,775a.17.17,0,0,0,.17.15.16.16,0,0,0,.16-.15.16.16,0,0,0-.16-.16A.17.17,0,0,0,1613.81,775Z"/><circle class="cls-17" cx="1613.98" cy="793.55" r="0.05"/></g><text class="cls-18" transform="translate(961.78 184.81)">V. CONTRATADA</text><text class="cls-19" transform="translate(168.76 758.54)">V. DE SUBIDA</text><text class="cls-18" transform="translate(958.95 371.16)">V. GARANTIZADA</text><path class="cls-20" d="M1101.77,242.15h-14.43l-.8,6a18.85,18.85,0,0,1,2.41-.13,16.55,16.55,0,0,1,9.81,2.86c2.8,2,4.51,5.33,4.51,9.94,0,7.39-5.94,13.87-16,13.87a22.83,22.83,0,0,1-10.36-2.24l1.58-6.95a20.06,20.06,0,0,0,8.38,2c3.62,0,7.45-1.84,7.45-6s-3.06-6.57-10.48-6.57a32.27,32.27,0,0,0-5,.37l2.41-20.75h20.49Z"/><path class="cls-20" d="M1136.2,254.14c0,12.18-4.65,20.6-14.13,20.6s-13.87-9.16-13.91-20.35c0-11.49,4.54-20.53,14.16-20.53C1132.26,233.86,1136.2,243.3,1136.2,254.14Zm-19.33.21c0,9.1,2.05,13.41,5.38,13.41s5.24-4.52,5.24-13.51c0-8.76-1.8-13.37-5.26-13.37C1119,240.88,1116.86,245.15,1116.87,254.35Z"/><path class="cls-20" d="M1186,258.39c-.18-5-.36-10.88-.34-16.89h-.15c-1.23,5.25-2.85,11.08-4.3,15.92l-4.73,16h-6.77l-4.16-15.84c-1.24-4.83-2.52-10.65-3.48-16.06H1162c-.19,5.58-.41,11.91-.64,17l-.72,15.57h-8.07l2.47-41h11.63l3.76,13.71c1.22,4.7,2.41,9.85,3.27,14.66h.18c1.06-4.75,2.36-10.16,3.67-14.73l4.1-13.64H1193l2.07,41h-8.48Z"/><path class="cls-20" d="M1201.28,274.08c.12-2,.23-5.52.23-8.9v-34.3h8.7v17h.12a9.64,9.64,0,0,1,8.45-4.22c6.73,0,11.62,5.91,11.56,15,0,10.73-6.4,16.08-12.81,16.08a9,9,0,0,1-8.38-4.81H1209l-.36,4.15Zm8.93-12.64a8,8,0,0,0,.16,1.62,5.4,5.4,0,0,0,5.12,4.41c3.7,0,6-3.06,6-8.42,0-4.63-2-8.28-6-8.28a5.45,5.45,0,0,0-5.12,4.57,8.38,8.38,0,0,0-.18,1.71Z"/><path class="cls-20" d="M1235.72,254.3c0-3.91-.11-7.21-.23-10h7.57l.4,4.17h.12a10.6,10.6,0,0,1,9.33-4.84c6.12,0,11.63,5.66,11.63,15.17,0,10.85-6.5,15.94-12.74,15.94-3.34,0-6-1.43-7.25-3.39h-.12v14.77h-8.71Zm8.71,7a9,9,0,0,0,.18,1.93,5.36,5.36,0,0,0,5.09,4.39c3.75,0,6-3.37,6-8.42,0-4.74-2-8.35-5.87-8.35a5.56,5.56,0,0,0-5.2,4.68,6.9,6.9,0,0,0-.2,1.65Z"/><path class="cls-20" d="M1269.91,266a16.23,16.23,0,0,0,7.46,2.21c2.63,0,3.75-.94,3.75-2.46s-.89-2.29-4.11-3.44c-5.82-2-8-5.4-8-8.9,0-5.59,4.44-9.79,11.39-9.79a17.71,17.71,0,0,1,7.89,1.73l-1.52,6.38a13.66,13.66,0,0,0-6.07-1.68c-2.12,0-3.34.9-3.34,2.4s1.11,2.18,4.55,3.44c5.31,1.91,7.54,4.82,7.57,9.16,0,5.56-4.08,9.65-12.1,9.65a19,19,0,0,1-9.07-2.09Z"/><path class="cls-20" d="M1075.68,445.73a19.36,19.36,0,0,0,8.66,2.4c4.5,0,6.8-2.3,6.79-5.25,0-3.92-3.66-5.69-7.5-5.7h-3.54v-6.64h3.39c2.92,0,6.59-1.21,6.59-4.54,0-2.36-1.8-4.14-5.47-4.14a16,16,0,0,0-7.76,2.37l-1.79-6.67c2.25-1.53,6.69-3,11.51-3,8,0,12.34,4.44,12.34,9.87,0,4.15-2.24,7.47-6.79,9.17v.12a9.62,9.62,0,0,1,8.05,9.63c0,7-5.79,12.09-15.21,12.09-4.82,0-8.88-1.32-11-2.77Z"/><path class="cls-20" d="M1130.71,422.85h-14.43l-.8,6.06a18.65,18.65,0,0,1,2.41-.13,16.66,16.66,0,0,1,9.81,2.85c2.79,2,4.5,5.33,4.5,9.95,0,7.38-5.94,13.87-16,13.87a22.9,22.9,0,0,1-10.36-2.24l1.59-7a19.84,19.84,0,0,0,8.37,2c3.62,0,7.46-1.84,7.45-6.05,0-4.05-3.06-6.56-10.47-6.56a33.83,33.83,0,0,0-5,.36l2.42-20.74h20.49Z"/><path class="cls-20" d="M1183.19,439.1c-.18-5-.36-10.88-.34-16.89h-.16c-1.23,5.24-2.85,11.07-4.3,15.91l-4.72,16h-6.78l-4.15-15.85c-1.25-4.82-2.53-10.65-3.48-16.05h-.12c-.19,5.57-.41,11.9-.64,17l-.72,15.56h-8.07l2.47-41h11.62l3.77,13.7c1.21,4.7,2.4,9.85,3.27,14.66h.18c1.06-4.75,2.36-10.15,3.67-14.72l4.1-13.64h11.4l2.07,41h-8.47Z"/><path class="cls-20" d="M1198.45,454.78c.12-2,.23-5.51.23-8.89v-34.3h8.71v17h.12a9.63,9.63,0,0,1,8.45-4.22c6.73,0,11.62,5.92,11.55,15,0,10.72-6.39,16.08-12.81,16.08a9,9,0,0,1-8.37-4.82h-.12l-.37,4.15Zm8.94-12.64a8.08,8.08,0,0,0,.15,1.63,5.42,5.42,0,0,0,5.13,4.41c3.7,0,6-3.07,6-8.42,0-4.63-1.94-8.28-6-8.28a5.44,5.44,0,0,0-5.11,4.56,8.54,8.54,0,0,0-.18,1.71Z"/><path class="cls-20" d="M1232.9,435c0-3.91-.11-7.21-.23-10h7.57l.4,4.17h.12a10.62,10.62,0,0,1,9.32-4.84c6.13,0,11.64,5.67,11.64,15.17,0,10.86-6.51,15.95-12.74,15.95-3.34,0-6-1.43-7.26-3.4h-.11v14.78h-8.71Zm8.71,7a9.76,9.76,0,0,0,.17,1.93,5.38,5.38,0,0,0,5.09,4.39c3.76,0,6-3.37,6-8.42,0-4.74-2-8.36-5.87-8.36a5.57,5.57,0,0,0-5.21,4.68,7.61,7.61,0,0,0-.19,1.66Z"/><path class="cls-20" d="M1267.08,446.71a16.15,16.15,0,0,0,7.47,2.22c2.63,0,3.75-.94,3.75-2.46s-.89-2.29-4.11-3.44c-5.82-2-8-5.41-8-8.9,0-5.6,4.44-9.8,11.39-9.8a17.55,17.55,0,0,1,7.88,1.74l-1.51,6.38a13.53,13.53,0,0,0-6.07-1.68c-2.12,0-3.34.9-3.34,2.39s1.11,2.18,4.54,3.44c5.32,1.92,7.54,4.83,7.58,9.17,0,5.55-4.08,9.65-12.11,9.65a19.06,19.06,0,0,1-9.06-2.09Z"/><path class="cls-20" d="M192.42,778.85H182.36l-.56,4.22a13.11,13.11,0,0,1,1.68-.09,11.48,11.48,0,0,1,6.84,2c2,1.41,3.14,3.71,3.14,6.93,0,5.14-4.14,9.67-11.13,9.67a15.77,15.77,0,0,1-7.21-1.57l1.1-4.84a13.94,13.94,0,0,0,5.83,1.37c2.53,0,5.2-1.28,5.19-4.21s-2.13-4.58-7.29-4.58a22.85,22.85,0,0,0-3.49.26l1.68-14.46h14.28Z"/><path class="cls-20" d="M216.41,787.2c0,8.5-3.24,14.37-9.85,14.37s-9.66-6.39-9.69-14.19c0-8,3.16-14.31,9.87-14.31C213.67,773.07,216.41,779.65,216.41,787.2Zm-13.47.15c0,6.35,1.43,9.35,3.75,9.35s3.65-3.15,3.65-9.42c0-6.11-1.25-9.32-3.67-9.32C204.44,778,202.93,780.94,202.94,787.35Z"/><path class="cls-20" d="M251.12,790.17c-.13-3.46-.25-7.59-.23-11.78h-.11c-.86,3.66-2,7.72-3,11.1l-3.29,11.14h-4.73l-2.89-11c-.87-3.37-1.76-7.43-2.43-11.2h-.08c-.13,3.89-.28,8.3-.44,11.86l-.51,10.85h-5.62l1.72-28.58h8.1l2.62,9.55c.85,3.28,1.68,6.87,2.28,10.22h.13c.74-3.31,1.65-7.08,2.56-10.26l2.85-9.51H256l1.44,28.58h-5.9Z"/><path class="cls-20" d="M261.76,801.1c.08-1.37.16-3.84.16-6.2V771H268v11.83h.08a6.69,6.69,0,0,1,5.89-2.94c4.68,0,8.09,4.12,8.05,10.48,0,7.47-4.46,11.21-8.93,11.21a6.3,6.3,0,0,1-5.83-3.36h-.09l-.25,2.89Zm6.23-8.81a5.59,5.59,0,0,0,.1,1.13,3.78,3.78,0,0,0,3.58,3.08c2.57,0,4.18-2.14,4.18-5.87,0-3.23-1.36-5.77-4.17-5.77a3.79,3.79,0,0,0-3.57,3.18,6.48,6.48,0,0,0-.12,1.19Z"/><path class="cls-20" d="M285.76,787.32c0-2.73-.07-5-.16-7h5.28l.28,2.91h.08a7.38,7.38,0,0,1,6.5-3.37c4.27,0,8.11,4,8.11,10.57,0,7.57-4.54,11.12-8.88,11.12a5.88,5.88,0,0,1-5.06-2.37h-.08v10.3h-6.07Zm6.07,4.9a7,7,0,0,0,.12,1.34,3.75,3.75,0,0,0,3.55,3.06c2.62,0,4.19-2.35,4.19-5.87,0-3.3-1.39-5.82-4.09-5.82a3.88,3.88,0,0,0-3.63,3.26,4.91,4.91,0,0,0-.14,1.16Z"/><path class="cls-20" d="M309.59,795.48a11.26,11.26,0,0,0,5.2,1.54c1.83,0,2.61-.66,2.61-1.71s-.62-1.6-2.86-2.4c-4.06-1.42-5.59-3.77-5.56-6.21,0-3.9,3.09-6.82,7.93-6.82a12.32,12.32,0,0,1,5.5,1.21l-1.06,4.44a9.5,9.5,0,0,0-4.23-1.17c-1.48,0-2.33.63-2.33,1.67s.78,1.52,3.17,2.4c3.7,1.34,5.25,3.36,5.28,6.39,0,3.87-2.84,6.72-8.44,6.72a13.18,13.18,0,0,1-6.31-1.46Z"/><text class="cls-18" transform="translate(956.84 546.81)">V. REGULADA</text><text class="cls-21" transform="translate(505.14 764.19)">V. DE BAJADA</text><path class="cls-20" d="M1072,628.43v-5.6l4.78-4.6c8.14-7.77,12.1-12.19,12.17-16.81,0-3.21-1.78-5.77-6.09-5.77-3.2,0-6,1.71-8,3.25l-2.44-6.6a19.72,19.72,0,0,1,12.15-4.08c8.45,0,13,5.23,13,12.39,0,6.63-4.47,12-9.89,17l-3.44,3v.12h14.07v7.62Z"/><path class="cls-20" d="M1131.26,608.49c0,12.19-4.65,20.61-14.13,20.61s-13.87-9.17-13.91-20.36c0-11.49,4.54-20.52,14.16-20.52C1127.32,588.22,1131.26,597.65,1131.26,608.49Zm-19.33.22c0,9.1,2,13.4,5.37,13.4s5.25-4.52,5.25-13.5c0-8.77-1.8-13.37-5.26-13.37C1114.09,595.24,1111.92,599.5,1111.93,608.71Z"/><path class="cls-20" d="M1181.07,612.75c-.18-5-.36-10.89-.34-16.9h-.15c-1.23,5.25-2.86,11.08-4.31,15.92l-4.72,16h-6.78l-4.15-15.85c-1.24-4.83-2.53-10.65-3.48-16.06H1157c-.19,5.58-.41,11.91-.64,17l-.72,15.56h-8.07l2.47-41h11.63l3.76,13.71c1.22,4.7,2.41,9.85,3.27,14.66h.18c1.06-4.75,2.36-10.16,3.67-14.72l4.1-13.65h11.4l2.07,41h-8.47Z"/><path class="cls-20" d="M1196.34,628.43c.12-2,.22-5.52.22-8.9v-34.3h8.71v17h.12a9.63,9.63,0,0,1,8.45-4.22c6.73,0,11.62,5.91,11.55,15,0,10.72-6.39,16.08-12.8,16.08a9,9,0,0,1-8.38-4.82h-.12l-.36,4.15Zm8.93-12.64a7.45,7.45,0,0,0,.16,1.63,5.41,5.41,0,0,0,5.12,4.41c3.7,0,6-3.07,6-8.42,0-4.63-2-8.29-6-8.29a5.44,5.44,0,0,0-5.12,4.57,8.54,8.54,0,0,0-.18,1.71Z"/><path class="cls-20" d="M1230.78,608.66c0-3.92-.11-7.22-.23-10h7.57l.4,4.17h.12A10.62,10.62,0,0,1,1248,598c6.13,0,11.64,5.67,11.64,15.17,0,10.86-6.5,16-12.74,16-3.34,0-6-1.43-7.26-3.4h-.11v14.77h-8.71Zm8.71,7a8.92,8.92,0,0,0,.18,1.93,5.36,5.36,0,0,0,5.08,4.39c3.76,0,6-3.37,6-8.42,0-4.73-2-8.35-5.87-8.35a5.56,5.56,0,0,0-5.2,4.68,7,7,0,0,0-.2,1.66Z"/><path class="cls-20" d="M1265,620.36a16.11,16.11,0,0,0,7.46,2.22c2.63,0,3.75-.94,3.75-2.46s-.89-2.29-4.11-3.45c-5.82-2-8-5.4-8-8.9,0-5.59,4.44-9.79,11.39-9.79a17.6,17.6,0,0,1,7.89,1.74l-1.52,6.37a13.66,13.66,0,0,0-6.07-1.68c-2.12,0-3.34.9-3.34,2.4s1.11,2.18,4.54,3.44c5.32,1.92,7.54,4.82,7.58,9.17,0,5.55-4.08,9.65-12.1,9.65a19,19,0,0,1-9.07-2.1Z"/><path class="cls-20" d="M535.55,781.29H525.44l-.56,4.24a13.27,13.27,0,0,1,1.69-.09,11.6,11.6,0,0,1,6.87,2c2,1.42,3.15,3.73,3.15,7,0,5.17-4.16,9.71-11.17,9.71a16,16,0,0,1-7.26-1.57l1.11-4.87a13.94,13.94,0,0,0,5.87,1.38c2.53,0,5.21-1.28,5.21-4.23s-2.14-4.6-7.33-4.6a23.24,23.24,0,0,0-3.51.26L521.2,776h14.35Z"/><path class="cls-20" d="M559.65,789.69c0,8.52-3.26,14.42-9.9,14.42s-9.7-6.42-9.73-14.25c0-8,3.18-14.37,9.91-14.37C556.89,775.49,559.65,782.09,559.65,789.69Zm-13.53.14c0,6.38,1.43,9.39,3.76,9.39s3.67-3.16,3.67-9.45-1.26-9.36-3.68-9.36C547.63,780.41,546.11,783.39,546.12,789.83Z"/><path class="cls-20" d="M594.51,792.66c-.12-3.48-.24-7.62-.23-11.82h-.11c-.86,3.67-2,7.75-3,11.14l-3.31,11.19h-4.74l-2.91-11.09c-.87-3.38-1.77-7.46-2.44-11.24h-.08c-.13,3.9-.28,8.33-.45,11.91l-.5,10.89h-5.65l1.73-28.7H581l2.63,9.59c.85,3.29,1.69,6.9,2.29,10.26H586c.74-3.32,1.65-7.11,2.57-10.3l2.86-9.55h8l1.45,28.7h-5.94Z"/><path class="cls-20" d="M605.21,803.64c.08-1.38.16-3.86.16-6.23v-24h6.09v11.88h.08a6.75,6.75,0,0,1,5.92-2.95c4.71,0,8.13,4.13,8.09,10.52,0,7.51-4.48,11.26-9,11.26a6.33,6.33,0,0,1-5.86-3.37h-.08l-.26,2.9Zm6.25-8.85a5.58,5.58,0,0,0,.11,1.14,3.79,3.79,0,0,0,3.59,3.09c2.58,0,4.2-2.15,4.2-5.89,0-3.25-1.36-5.8-4.19-5.8a3.8,3.8,0,0,0-3.58,3.19,5.73,5.73,0,0,0-.13,1.2Z"/><path class="cls-20" d="M629.32,789.8c0-2.74-.08-5-.16-7h5.3l.28,2.91h.08a7.42,7.42,0,0,1,6.53-3.38c4.29,0,8.14,4,8.14,10.61,0,7.6-4.55,11.17-8.91,11.17a5.92,5.92,0,0,1-5.09-2.38h-.08v10.34h-6.09Zm6.09,4.92a6.31,6.31,0,0,0,.13,1.35,3.75,3.75,0,0,0,3.56,3.07c2.63,0,4.2-2.35,4.2-5.89,0-3.32-1.39-5.85-4.1-5.85a3.9,3.9,0,0,0-3.65,3.28,4.91,4.91,0,0,0-.14,1.16Z"/><path class="cls-20" d="M653.25,798a11.27,11.27,0,0,0,5.23,1.55c1.84,0,2.62-.66,2.62-1.72s-.62-1.6-2.88-2.41c-4.07-1.42-5.61-3.78-5.58-6.23,0-3.91,3.1-6.85,8-6.85a12.38,12.38,0,0,1,5.52,1.21L665.07,788a9.56,9.56,0,0,0-4.25-1.17c-1.49,0-2.34.63-2.34,1.68s.78,1.52,3.18,2.41c3.72,1.34,5.28,3.37,5.31,6.41,0,3.89-2.86,6.76-8.48,6.76a13.31,13.31,0,0,1-6.34-1.47Z"/><g class="cls-22"><path class="cls-23" d="M900.74,224.24q-11.29-11.38-22.69-22.7a7.86,7.86,0,0,0-2.95-2.08,6.55,6.55,0,0,0-7.25,1.73q-7.11,7.14-14.24,14.25c-.48.48-.84.93-1.68.41-4.77-2.9-9.38-2.41-13.43,1.4a1.07,1.07,0,0,1-1.59.17,10.24,10.24,0,0,0-11.41,0,1.18,1.18,0,0,1-1.77-.24c-4.59-4.62-9.21-9.19-13.81-13.78-3.55-3.54-7.33-3.53-10.89,0q-11,11-22,22a11.76,11.76,0,0,0-2.88,4.07v3.27a10,10,0,0,0,2.65,3.92c2,2,4,4,6,6,2.91,2.87,6.09,3.14,9.37.72a.87.87,0,0,1,1.38.1q6.84,6.85,13.71,13.7a.92.92,0,0,1,.11,1.4c-3.11,4.52-1.15,9.77,4.14,11.07a1.36,1.36,0,0,1,1.19,1.19,6.66,6.66,0,0,0,5.4,5.47,1.41,1.41,0,0,1,1.26,1.26,6.68,6.68,0,0,0,5.47,5.4A1.32,1.32,0,0,1,826,284.1a6.89,6.89,0,0,0,5.9,5.57,6.8,6.8,0,0,0,7.28-4.21,1.26,1.26,0,0,1,1.52-.86,6.58,6.58,0,0,0,7.13-5.22,1.79,1.79,0,0,1,1.57-1.58,6.29,6.29,0,0,0,5.14-5.37,1.22,1.22,0,0,1,1.15-1.19,6.53,6.53,0,0,0,5.5-5.34,1.47,1.47,0,0,1,1.24-1.31,6.87,6.87,0,0,0,5.65-6.39,2.28,2.28,0,0,1,.61-1.46q7.53-7.52,15-15c.48-.48.79-.55,1.36-.1,3,2.4,6.4,2.24,9.18-.46,2.18-2.1,4.29-4.26,6.42-6.4C904.05,231.35,904.11,227.63,900.74,224.24ZM789.87,239.19"/></g><path class="cls-2" d="M899,223.6q-11.31-11.39-22.69-22.7a7.84,7.84,0,0,0-3-2.09,6.56,6.56,0,0,0-7.25,1.74c-4.73,4.75-9.49,9.49-14.23,14.24-.48.49-.84.93-1.68.42-4.77-2.91-9.39-2.42-13.43,1.4a1.08,1.08,0,0,1-1.6.16,10.24,10.24,0,0,0-11.4,0,1.19,1.19,0,0,1-1.78-.24c-4.58-4.61-9.2-9.19-13.8-13.78-3.55-3.53-7.34-3.53-10.89,0q-11,11-22,22a12,12,0,0,0-2.87,4.07v3.28A10,10,0,0,0,775,236c2,2,4,4,6,6,2.9,2.88,6.09,3.14,9.36.73a.89.89,0,0,1,1.39.09q6.84,6.87,13.7,13.7a.92.92,0,0,1,.11,1.4c-3.11,4.53-1.14,9.78,4.14,11.07a1.34,1.34,0,0,1,1.19,1.19,6.67,6.67,0,0,0,5.41,5.48,1.42,1.42,0,0,1,1.26,1.26,6.64,6.64,0,0,0,5.47,5.39,1.34,1.34,0,0,1,1.19,1.21,6.88,6.88,0,0,0,5.9,5.57,6.79,6.79,0,0,0,7.28-4.21c.34-.78.74-.9,1.51-.85a6.59,6.59,0,0,0,7.14-5.23,1.79,1.79,0,0,1,1.57-1.58,6.29,6.29,0,0,0,5.13-5.37,1.23,1.23,0,0,1,1.16-1.18,6.55,6.55,0,0,0,5.5-5.35,1.44,1.44,0,0,1,1.23-1.3,6.88,6.88,0,0,0,5.65-6.4,2.28,2.28,0,0,1,.61-1.46q7.54-7.5,15-15c.47-.47.79-.54,1.36-.09a6.49,6.49,0,0,0,9.18-.46c2.17-2.1,4.29-4.26,6.42-6.4C902.27,230.7,902.33,227,899,223.6Zm-110.88,15"/><path class="cls-24" d="M772.37,228.79a11.91,11.91,0,0,1,2.87-4.08q11-11,22-22c3.56-3.56,7.35-3.56,10.89,0,4.61,4.59,9.23,9.17,13.81,13.78a1.18,1.18,0,0,0,1.78.24,10.22,10.22,0,0,1,11.4.05,1.09,1.09,0,0,0,1.6-.17c4-3.82,8.65-4.31,13.42-1.4.85.51,1.2.07,1.69-.42q7.11-7.11,14.23-14.24a6.56,6.56,0,0,1,7.25-1.74,8,8,0,0,1,3,2.09q11.36,11.34,22.69,22.7c3.36,3.39,3.3,7.11-.07,10.5-2.12,2.14-4.24,4.3-6.41,6.4a6.48,6.48,0,0,1-9.18.46c-.57-.45-.89-.38-1.36.09q-7.5,7.55-15,15.05a2.24,2.24,0,0,0-.61,1.45,6.88,6.88,0,0,1-5.65,6.4,1.43,1.43,0,0,0-1.23,1.3,6.55,6.55,0,0,1-5.5,5.35,1.23,1.23,0,0,0-1.16,1.19,6.31,6.31,0,0,1-5.13,5.37,1.77,1.77,0,0,0-1.57,1.57A6.59,6.59,0,0,1,838.9,284a1.25,1.25,0,0,0-1.51.85A6.8,6.8,0,0,1,830.1,289a6.88,6.88,0,0,1-5.89-5.56,1.34,1.34,0,0,0-1.19-1.22,6.66,6.66,0,0,1-5.48-5.39,1.4,1.4,0,0,0-1.25-1.26,6.68,6.68,0,0,1-5.41-5.47,1.32,1.32,0,0,0-1.19-1.19c-5.28-1.3-7.25-6.55-4.14-11.08a.9.9,0,0,0-.11-1.39q-6.87-6.84-13.71-13.71a.88.88,0,0,0-1.38-.09c-3.27,2.41-6.46,2.15-9.36-.73-2-2-4-4-6-6a10,10,0,0,1-2.64-3.92Zm55.72,13.66a7.65,7.65,0,0,1-3.33-.65,7,7,0,0,1-2-11.28c3-3.08,6-6.09,9.08-9.07.83-.81.56-1.08-.32-1.42a6.05,6.05,0,0,0-6.67,1.6c-1.47,1.56-2.62,1.59-4.16.07-1.32-1.3-2.64-2.59-3.91-3.93-.55-.59-.9-.62-1.51,0q-10.11,10.19-20.28,20.3c-.56.55-.66.91,0,1.52,5,5,10,10,15,14.94a2.21,2.21,0,0,0,1.42.69c3.63.43,5.51,2.07,6.5,5.66A1.35,1.35,0,0,0,819,262a6.67,6.67,0,0,1,5.5,5.52,1.18,1.18,0,0,0,1.08,1.1,6.76,6.76,0,0,1,5.55,5.48,1.33,1.33,0,0,0,1.21,1.23,7.15,7.15,0,0,1,4,2.22,17.76,17.76,0,0,0,1.54,1.47,2.25,2.25,0,0,0,3.09-.15,2.32,2.32,0,0,0,.25-3.19,9.3,9.3,0,0,0-.87-.91l-12-12c-1.39-1.4-1.57-2.86-.54-3.84s2.34-.86,3.84.62l.71.71,11.13,11.12a6.76,6.76,0,0,0,1.35,1.11,2.2,2.2,0,0,0,2.7-.27,2.14,2.14,0,0,0,.54-2.63,5.05,5.05,0,0,0-1.28-1.69q-5.77-5.79-11.56-11.58a8.08,8.08,0,0,1-1.15-1.33,2.09,2.09,0,0,1,.33-2.76,2,2,0,0,1,2.65-.36A7.17,7.17,0,0,1,838.5,253c3.83,3.81,7.66,7.65,11.49,11.47a9.61,9.61,0,0,0,1.21,1.09,2.62,2.62,0,0,0,3-.09,2.41,2.41,0,0,0,.29-3,8.65,8.65,0,0,0-1.21-1.43q-5.77-5.81-11.57-11.58a4.79,4.79,0,0,1-1.17-1.47,2.11,2.11,0,0,1,.54-2.52,2,2,0,0,1,2.55-.33,6.84,6.84,0,0,1,1.25,1c3.89,3.88,7.77,7.78,11.67,11.65a7.82,7.82,0,0,0,1.54,1.28,2.16,2.16,0,0,0,2.78-.31,2.21,2.21,0,0,0,.41-2.87,4.61,4.61,0,0,0-.78-1c-6.78-6.8-13.59-13.59-20.36-20.4-.67-.67-1.09-.66-1.73,0-1.78,1.84-3.61,3.63-5.42,5.44A7.4,7.4,0,0,1,828.09,242.45ZM844.33,218a5.69,5.69,0,0,0-4.4,1.84q-6.76,6.77-13.53,13.52a4,4,0,0,0-.72.87,2.33,2.33,0,0,0,2.47,3.54,3.48,3.48,0,0,0,1.89-1.18c2.46-2.46,4.91-4.93,7.38-7.38,1.18-1.17,2.06-1.28,3.39-.56,3.3,1.8,5.53,1.48,8.25-1.19,1.13-1.11,2.33-1.23,3.34-.32s1,2.15,0,3.37a9.46,9.46,0,0,1-5.07,3.33c-1.14.29-.91.58-.27,1.21,5.44,5.42,10.87,10.83,16.27,16.29.74.75,1.16.74,1.89,0,4.06-4.13,8.17-8.2,12.26-12.3,1.86-1.85,1.86-1.85,0-3.68q-9.48-9.48-18.94-19c-.72-.73-1.17-.82-1.9,0-1.15,1.27-2.41,2.45-3.63,3.65-1.58,1.55-2.77,1.53-4.28-.08A5.69,5.69,0,0,0,844.33,218Zm-41.63-13.3a2.58,2.58,0,0,0-2,1q-11.44,11.42-22.87,22.86c-1.33,1.33-1.32,2.47,0,3.81q3.09,3.13,6.23,6.23c1.46,1.45,2.47,1.43,4,0l6.68-6.67,17.17-17.18c.41-.41,1.07-.73.29-1.49-2.61-2.54-5.17-5.14-7.76-7.72A2.21,2.21,0,0,0,802.7,204.68Zm94,24.12a2.1,2.1,0,0,0-.74-1.66l-23.33-23.3c-1.2-1.19-2.2-1.2-3.39,0-2.54,2.5-5,5.06-7.58,7.55-.64.63-.58,1,0,1.65q12.07,12,24.13,24.1c1.23,1.22,2.28,1.25,3.5.06,2.23-2.16,4.41-4.38,6.59-6.58A2.27,2.27,0,0,0,896.72,228.8Zm-72.39,44.32a2.19,2.19,0,0,0-2.31,2.27,2.34,2.34,0,1,0,4.67.09A2.24,2.24,0,0,0,824.33,273.12ZM811,259.79a2.27,2.27,0,0,0-2.32,2.41,2.34,2.34,0,1,0,4.67-.18A2.22,2.22,0,0,0,811,259.79Zm20,24.61a2.29,2.29,0,0,0,2.39-2.24,2.43,2.43,0,0,0-2.37-2.43,2.46,2.46,0,0,0-2.4,2.28A2.33,2.33,0,0,0,831,284.4Zm-13.32-13.34a2.32,2.32,0,0,0,2.4-2.36,2.4,2.4,0,0,0-4.8,0A2.32,2.32,0,0,0,817.69,271.06Z"/><path class="cls-24" d="M786.06,232.9a2.3,2.3,0,0,1-2.45-2.43A2.48,2.48,0,0,1,786,228a2.59,2.59,0,0,1,2.55,2.56A2.44,2.44,0,0,1,786.06,232.9Z"/><path class="cls-24" d="M890,228.89a2.48,2.48,0,0,1-2.43,2.39,2.47,2.47,0,1,1,0-4.94A2.43,2.43,0,0,1,890,228.89Z"/><g class="cls-22"><path class="cls-25" d="M794.1,411.6c0-2.66.13-5.3.35-8A75.38,75.38,0,0,1,796.26,393c.13-.58.5-.54.9-.51,1.77.13,3.53.24,5.3.4a31.77,31.77,0,0,0,5.93-.2,49.4,49.4,0,0,0,15.18-4.14,50.07,50.07,0,0,0,12.83-8c1.12-1,.85-1.05,2.06,0A53.63,53.63,0,0,0,862.6,392.1a41.25,41.25,0,0,0,8.8.81c2-.05,4-.25,5.92-.42,1.09-.1,1.09-.1,1.34,1a67.92,67.92,0,0,1,1.6,9.08c.06.71.12,1.43.2,2.14,0,.3,0,.65.34.82,0,0,.15.07.09.1-.56.29,0,.81-.14,1-.25.44-.08.82-.07,1.21a102.71,102.71,0,0,1-.44,12.89,84.37,84.37,0,0,1-2.85,14.69,73.32,73.32,0,0,1-8.1,18.26,71.47,71.47,0,0,1-11.22,13.88,80.67,80.67,0,0,1-14.63,11.1c-1.79,1.08-3.64,2-5.47,3a1,1,0,0,1-1.11,0,92.86,92.86,0,0,1-13-8.08,72.94,72.94,0,0,1-28.17-45.34A86.1,86.1,0,0,1,794.1,411.6Z"/></g><path class="cls-2" d="M794.69,412.07c0-2.65.14-5.3.35-7.94a77.23,77.23,0,0,1,1.81-10.69c.13-.57.5-.53.91-.5,1.76.13,3.53.24,5.29.4a32.62,32.62,0,0,0,5.93-.2A49.53,49.53,0,0,0,824.17,389,50.19,50.19,0,0,0,837,381c1.12-1,.86-1.05,2.07,0a53.54,53.54,0,0,0,24.13,11.57,41.31,41.31,0,0,0,8.8.81c2-.05,4-.25,5.92-.42,1.09-.1,1.09-.11,1.34.95a68.35,68.35,0,0,1,1.6,9.09c.07.71.12,1.42.2,2.14,0,.3,0,.65.34.82,0,0,.16.06.1.1-.57.29-.06.81-.15,1-.25.44-.08.82-.07,1.21a104.64,104.64,0,0,1-.43,12.89A86,86,0,0,1,878,435.83a73.62,73.62,0,0,1-8.11,18.27A71.1,71.1,0,0,1,858.66,468,80.67,80.67,0,0,1,844,479.08c-1.79,1.08-3.64,2-5.47,3.05a1,1,0,0,1-1.11,0,91.9,91.9,0,0,1-13-8.09A73.42,73.42,0,0,1,808,456.92a74.45,74.45,0,0,1-11.66-28.2A86.92,86.92,0,0,1,794.69,412.07Z"/><path class="cls-26" d="M794.69,412.07c0-2.66.13-5.3.35-7.95a75.38,75.38,0,0,1,1.81-10.68c.13-.58.49-.54.9-.51,1.77.13,3.53.24,5.29.4a31.75,31.75,0,0,0,5.93-.2A49.38,49.38,0,0,0,824.16,389,50.07,50.07,0,0,0,837,381c1.11-1,.85-1.05,2.06,0a53.63,53.63,0,0,0,24.14,11.57,41.22,41.22,0,0,0,8.79.81c2-.05,4-.25,5.93-.42,1.09-.09,1.09-.1,1.34,1a66.6,66.6,0,0,1,1.59,9.08c.07.71.13,1.43.21,2.14,0,.3,0,.65.34.82,0,0,.15.07.09.1-.56.3-.05.81-.15,1-.25.44-.07.82-.06,1.22a104.55,104.55,0,0,1-.44,12.88A84.37,84.37,0,0,1,878,435.83a73.69,73.69,0,0,1-8.1,18.26A71.15,71.15,0,0,1,858.65,468,81.11,81.11,0,0,1,844,479.08c-1.79,1.07-3.65,2-5.47,3a1,1,0,0,1-1.11,0,92.86,92.86,0,0,1-13-8.08,72.94,72.94,0,0,1-28.17-45.34A86.1,86.1,0,0,1,794.69,412.07Zm76.3-.2a70.92,70.92,0,0,0-.37-7.57c0-.42-.2-.59-.62-.61-1-.05-2-.13-3-.21A55.63,55.63,0,0,1,854.59,401a65.62,65.62,0,0,1-16-7.52.9.9,0,0,0-1.13,0,62.81,62.81,0,0,1-7.57,4.2,64.82,64.82,0,0,1-10.54,3.93,58.46,58.46,0,0,1-13.28,2c-.46,0-.63.22-.65.65-.12,2-.29,3.91-.36,5.87a81.46,81.46,0,0,0,.51,11c.09.82.23,1.63.35,2.44s.26,1.63.4,2.44.3,1.57.48,2.35.36,1.6.56,2.4.53,1.57.66,2.37.64,1.32.69,2.09a6.4,6.4,0,0,0,.51,1.53,61,61,0,0,0,13.87,22.26,70.29,70.29,0,0,0,14.38,11.2,1,1,0,0,0,1.22-.06,83,83,0,0,0,7.37-5,62.71,62.71,0,0,0,13.81-14.58,60,60,0,0,0,7.44-15.23c.72-2.24,1.41-4.49,1.92-6.78A76.58,76.58,0,0,0,871,411.87Z"/><path class="cls-24" d="M862.57,419c0,.21-.2.32-.33.46-2.6,2.61-5.2,5.23-7.81,7.83L837.71,444c-1.36,1.36-2.74,2.69-4.06,4.07-.46.48-.72.37-1.12,0q-6.54-6.57-13.1-13.1c-1.95-1.95-3.83-4-5.87-5.82-.38-.34-.1-.55.12-.77l3.89-3.89c.85-.85,1.71-1.69,2.54-2.56.33-.35.59-.37.94,0,2.41,2.44,4.85,4.86,7.27,7.29,1.46,1.47,2.91,2.93,4.35,4.41.3.31.51.33.82,0,1.84-1.85,3.7-3.69,5.55-5.54l9.88-9.86,5.75-5.78c.73-.73.73-.73,1.43,0l6.12,6.13C862.37,418.64,862.57,418.76,862.57,419Z"/><g class="cls-22"><path class="cls-27" d="M879.8,636.37c0,4-.14,8,0,12,.24,5.55-3.08,9.87-8.2,10.95H813.46a10.34,10.34,0,0,1-6.83-5,10.14,10.14,0,0,1-1-2.6,1.09,1.09,0,0,0-.92-.94,9.82,9.82,0,0,1-7.72-9.91q0-27.14,0-54.29"/><path class="cls-28" d="M797.09,588.82c0-5.67-.11-20.7-.11-26.37,0-1.72.45-2.17,2.18-2.17h62.22a9.73,9.73,0,0,1,9.69,7.34,1.55,1.55,0,0,0,1.28,1.3,9.75,9.75,0,0,1,7.44,9.44c0,17,.24,42.53.25,59.51"/><path class="cls-29" d="M861.4,563.32c-.26,0-.51,0-.77,0"/></g><path class="cls-2" d="M878.39,636.37c0,4-.14,8,0,12,.24,5.55-3.08,9.87-8.2,10.95H812.05a10.32,10.32,0,0,1-6.83-5,9.79,9.79,0,0,1-1-2.6,1.1,1.1,0,0,0-.92-.94,9.83,9.83,0,0,1-7.73-9.91V586.59"/><path class="cls-2" d="M795.68,588.82c0-5.67-.11-20.7-.11-26.37,0-1.72.45-2.17,2.18-2.17H860a9.74,9.74,0,0,1,9.69,7.34,1.54,1.54,0,0,0,1.28,1.3,9.76,9.76,0,0,1,7.44,9.44c0,17,.24,42.53.24,59.51"/><path class="cls-2" d="M860,563.32c-.26,0-.52,0-.77,0"/><path class="cls-30" d="M812.52,658.93a10.36,10.36,0,0,1-6.83-4.95,9.79,9.79,0,0,1-1-2.6,1.1,1.1,0,0,0-.92-.94,9.84,9.84,0,0,1-7.73-9.91V586.24c0-.23,0-.46,0-.68a1.51,1.51,0,0,1,1.46-1.51,1.48,1.48,0,0,1,1.6,1.35,8.74,8.74,0,0,1,.08,1.54q0,26.65,0,53.32a6.94,6.94,0,0,0,2.72,6,6,6,0,0,0,3.58,1.28l1.06,0q26.72,0,53.43,0a7.08,7.08,0,0,0,5.23-1.81,6.62,6.62,0,0,0,2.15-4.9q0-35.55,0-71.11a6.8,6.8,0,0,0-6.88-6.77h-59.8c-1.46,0-1.46,0-1.46,1.49,0,4.77,0,9.53,0,14.3a4.29,4.29,0,0,1-.13,1.43,1.53,1.53,0,0,1-3-.13,4.39,4.39,0,0,1-.06-1v-17c0-1.73.45-2.17,2.18-2.17h62.22a9.74,9.74,0,0,1,9.69,7.35,1.56,1.56,0,0,0,1.28,1.3,9.75,9.75,0,0,1,7.44,9.43q0,25.47,0,50.92a2,2,0,0,1-.51,1.6,1.51,1.51,0,0,1-2.5-.65,4.71,4.71,0,0,1-.14-1.63q0-24.87,0-49.75a6.66,6.66,0,0,0-3.85-6.49c-1.19-.59-1.34-.49-1.34.88q0,33.66,0,67.33a9.9,9.9,0,0,1-5.91,9.61,10.12,10.12,0,0,1-4.51.87q-25.47,0-50.92,0c-1.55,0-1.64.13-.88,1.53A6.87,6.87,0,0,0,814.8,656c6.15,0,12.3,0,18.45,0h35.07c3.09,0,5.49-1.2,6.85-4.11a7,7,0,0,0,.54-3q0-6.32,0-12.65a4.12,4.12,0,0,1,.16-1.44,1.53,1.53,0,0,1,2.95.2,5.38,5.38,0,0,1,.05,1.06c0,4-.14,8,0,12,.24,5.55-3.08,9.87-8.2,10.94Z"/><path class="cls-30" d="M833.24,637c-7.12,0-14.24-.13-21.35,0a7.58,7.58,0,0,1-6.63-11.55c4.88-8.33,9.68-16.72,14.51-25.08,2.28-4,4.55-7.92,6.86-11.87,3.12-5.34,10.12-5.38,13.22,0,7.14,12.27,14.16,24.61,21.34,36.85a7.61,7.61,0,0,1-4.69,11.52,8.54,8.54,0,0,1-1.82.13Zm0-3c7,0,14.1,0,21.15,0,4.06,0,6.1-3.53,4.09-7q-10.56-18.31-21.15-36.62c-2.08-3.59-6.06-3.6-8.13,0q-7.91,13.66-15.79,27.34c-1.82,3.15-3.65,6.29-5.46,9.45a4.41,4.41,0,0,0,2.15,6.55,6.82,6.82,0,0,0,2.38.33Z"/><path class="cls-30" d="M833.31,581.3a7.13,7.13,0,0,1-5.11-2.19,1.54,1.54,0,1,1,2.11-2.25c2.16,1.75,3.7,1.76,5.84,0a1.56,1.56,0,1,1,2.14,2.26A7.19,7.19,0,0,1,833.31,581.3Z"/><path class="cls-30" d="M818.31,576.65a9.85,9.85,0,0,1,0,1.63,1.52,1.52,0,0,1-1.49,1.38,1.51,1.51,0,0,1-1.55-1.42,20.87,20.87,0,0,1,0-3.26,1.42,1.42,0,0,1,1.49-1.35,1.55,1.55,0,0,1,1.58,1.39l0,.28v1.35Z"/><path class="cls-30" d="M848.23,576.59a14.94,14.94,0,0,1,0-1.64,1.51,1.51,0,0,1,3-.23,8.84,8.84,0,0,1,0,3.83,1.36,1.36,0,0,1-1.51,1.09,1.41,1.41,0,0,1-1.43-1.32A14.24,14.24,0,0,1,848.23,576.59Z"/><path class="cls-30" d="M833.28,630.18H814.35c-.29,0-.58,0-.87,0-1.58-.08-2.25-1.22-1.48-2.6,1.29-2.3,2.62-4.57,3.94-6.86l15.55-26.92.24-.41c.9-1.47,2.19-1.48,3,0q3.81,6.55,7.59,13.12l11.93,20.65c1.11,1.92.5,3-1.71,3Q842.93,630.2,833.28,630.18Zm0-33.19c-.2.31-.29.43-.37.57l-16.46,28.53c-.54.92-.53.93.57.93h32.27c1.32,0,1.33,0,.68-1.14q-6.16-10.71-12.36-21.41C836.19,602,834.77,599.58,833.27,597Z"/><path class="cls-30" d="M831.36,609.63c0-.81,0-1.61,0-2.41a1.7,1.7,0,0,1,1.87-1.84,1.75,1.75,0,0,1,1.91,1.84c0,2.21-.15,4.43-.24,6.64,0,.93-.07,1.86-.1,2.79,0,1.09-.55,1.67-1.53,1.71s-1.62-.55-1.63-1.7c0-2.35,0-4.69,0-7Z"/><path class="cls-30" d="M833.25,623.83a2,2,0,0,1-2-1.94,2.09,2.09,0,0,1,2-2,2,2,0,0,1,1.91,2A1.92,1.92,0,0,1,833.25,623.83Z"/><rect class="cls-31" x="1302.52" y="273" width="405.53" height="119.65"/><rect class="cls-31" x="1298.05" y="452.06" width="405.53" height="119.65"/><rect class="cls-31" x="1298.64" y="638.76" width="405.53" height="119.65"/><path class="cls-24" d="M126.05,773.39V760.64c0-.19.1-.45-.1-.55s-.35.13-.5.24q-4.67,3.36-9.31,6.74a2.78,2.78,0,1,1-3.24-4.5c1.83-1.29,3.63-2.61,5.44-3.92l8.8-6.37a2.84,2.84,0,0,1,3.4.05L144.6,762.5c1.64,1.19,1.9,3.11.58,4.41a2.57,2.57,0,0,1-3.29.39c-1.28-.81-2.48-1.74-3.71-2.62l-6-4.32c-.15-.11-.31-.33-.51-.25s-.11.36-.11.55c0,4.94,0,9.89,0,14.84,0,1.86,0,3.73,0,5.59a7.85,7.85,0,0,0,.14,1.46c0,.3-.16.54-.14.85,0,.85,0,1.71,0,2.57a2.76,2.76,0,1,1-5.52.1q0-4.37,0-8.74Z"/><path class="cls-24" d="M129,795.51h16.34a3.54,3.54,0,0,1,2.32.62,2.76,2.76,0,0,1-.13,4.46,2.67,2.67,0,0,1-1.79.44H113.33c-.47,0-.94,0-1.4,0a3.24,3.24,0,0,1-2.68-1.33c-.2-.23-.16-.51-.22-.76a2.69,2.69,0,0,1,2.33-3.38c.52-.05,1-.08,1.55-.08Z"/><rect class="cls-5" x="412.68" y="720.15" width="287.9" height="115.21" rx="29.16"/><path class="cls-24" d="M461.29,765.08q0,6.34,0,12.69c0,.21-.12.5.1.61s.38-.15.55-.27l9.4-6.81a2.77,2.77,0,0,1,4.07,3.63,2.37,2.37,0,0,1-.73.78l-10.22,7.41c-1.39,1-2.78,2-4.18,3a2.75,2.75,0,0,1-3.41.05c-1.71-1.2-3.37-2.45-5.08-3.65-1-.67-1.88-1.42-2.89-2-.62-.37-1.15-.89-1.74-1.32-1.6-1.18-3.21-2.33-4.8-3.52a2.7,2.7,0,0,1-.54-3.89,2.74,2.74,0,0,1,3.76-.56c2,1.41,4,2.86,6,4.3l3.64,2.64c.15.11.34.32.52.17s.14-.39,0-.59.1-.42.08-.67c-.09-.93,0-1.88,0-2.82,0-7.07,0-14.14,0-21.22a3.51,3.51,0,0,1,.76-2.64,2.86,2.86,0,0,1,3-.7,2.68,2.68,0,0,1,1.74,2.52c0,1.84,0,3.68,0,5.53Z"/><path class="cls-24" d="M477.43,798.48a3,3,0,0,1-1.92.56H441.4a2.67,2.67,0,0,1-2.68-1.85,2.75,2.75,0,0,1,.91-3.07,3.63,3.63,0,0,1,2.39-.64h32.89a6.23,6.23,0,0,1,1.49.15,2.6,2.6,0,0,1,2,3.31A5.52,5.52,0,0,1,477.43,798.48Z"/><text class="cls-32" transform="translate(1343.79 327.51)">Disfruta<tspan class="cls-33" x="65.58" y="0">r</tspan><tspan x="72.02" y="0">as del 100% de tu </tspan><tspan class="cls-34" x="222.36" y="0">v</tspan><tspan x="231.78" y="0">elocidad la </tspan><tspan x="60.86" y="24">m</tspan><tspan class="cls-35" x="77.54" y="24">a</tspan><tspan class="cls-36" x="87.02" y="24">y</tspan><tspan x="96.24" y="24">or pa</tspan><tspan class="cls-37" x="139.02" y="24">r</tspan><tspan class="cls-38" x="146.04" y="24">t</tspan><tspan x="152.54" y="24">e del tiemp</tspan><tspan class="cls-39" x="246.44" y="24">o</tspan><tspan x="256.94" y="24">. </tspan></text><text class="cls-32" transform="translate(1320.91 483.86)">En ho<tspan class="cls-33" x="47.26" y="0">r</tspan><tspan x="53.7" y="0">as pi</tspan><tspan class="cls-38" x="91.56" y="0">c</tspan><tspan x="100.4" y="0">o (m</tspan><tspan class="cls-35" x="137.98" y="0">a</tspan><tspan class="cls-36" x="147.46" y="0">y</tspan><tspan x="156.68" y="0">or afluencia de usua</tspan><tspan class="cls-40" x="323.33" y="0">r</tspan><tspan x="329.95" y="0">ios) </tspan><tspan x="-4.51" y="24">tu </tspan><tspan class="cls-34" x="17.37" y="24">v</tspan><tspan x="26.79" y="24">elocidad pod</tspan><tspan class="cls-41" x="136.23" y="24">r</tspan><tspan x="142.85" y="24">ía bajar hasta un 80% de la </tspan><tspan class="cls-34" x="108.05" y="48">v</tspan><tspan x="117.47" y="48">eloc </tspan><tspan class="cls-42" x="156.39" y="48">c</tspan><tspan class="cls-43" x="165.23" y="48">o</tspan><tspan class="cls-44" x="176.21" y="48">n</tspan><tspan x="187.23" y="48">t</tspan><tspan class="cls-45" x="193.85" y="48">r</tspan><tspan class="cls-44" x="200.29" y="48">a</tspan><tspan x="209.85" y="48">tada.</tspan></text><path class="cls-46" d="M1331.26,666.8a13.3,13.3,0,0,0-2.5,8.21,13.48,13.48,0,0,0,2.5,8.1h-1.37a13,13,0,0,1-2.62-8.12,13.37,13.37,0,0,1,2.62-8.19Z"/><path class="cls-46" d="M1338.26,667.67l-1.91,2.5v0l3-.4v1.36l-3-.38v.06l1.93,2.4L1337,674l-1.21-2.8h0l-1.29,2.82-1.14-.72,1.9-2.44v-.06l-3,.4v-1.36l3,.38v0l-1.89-2.47,1.22-.7,1.25,2.81h0l1.21-2.83Z"/><path class="cls-46" d="M1340.37,683.11a14.55,14.55,0,0,0,0-16.31h1.36a13,13,0,0,1,2.62,8.15,13.12,13.12,0,0,1-2.62,8.16Z"/><path class="cls-46" d="M1357.4,668.68h-4.1v-1.47h10v1.47h-4.12v12h-1.76Z"/><path class="cls-46" d="M1372.06,675.77a4.74,4.74,0,0,1-4.82,5.14,4.62,4.62,0,0,1-4.65-5c0-3.22,2.14-5.12,4.81-5.12S1372.06,672.83,1372.06,675.77Zm-7.67.1c0,2.12,1.21,3.72,2.93,3.72s2.94-1.58,2.94-3.76c0-1.64-.82-3.7-2.9-3.7S1364.39,674.05,1364.39,675.87Z"/><path class="cls-46" d="M1382.62,666.48v11.71c0,.86,0,1.84.08,2.5h-1.56l-.08-1.68H1381a3.51,3.51,0,0,1-3.27,1.9c-2.34,0-4.16-2-4.16-4.92,0-3.22,2-5.18,4.35-5.18a3.24,3.24,0,0,1,2.92,1.46h0v-5.79Zm-1.74,8.47a3.11,3.11,0,0,0-.08-.74,2.59,2.59,0,0,0-2.54-2c-1.83,0-2.91,1.6-2.91,3.72,0,2,1,3.58,2.87,3.58a2.68,2.68,0,0,0,2.58-2.1,3.06,3.06,0,0,0,.08-.76Z"/><path class="cls-46" d="M1392.36,678.37a16.24,16.24,0,0,0,.14,2.32h-1.58l-.14-1.22h-.06a3.61,3.61,0,0,1-3,1.44,2.76,2.76,0,0,1-3-2.78c0-2.34,2.08-3.62,5.83-3.6v-.2a2,2,0,0,0-2.2-2.22,4.67,4.67,0,0,0-2.55.72l-.4-1.18a6.28,6.28,0,0,1,3.21-.84c3,0,3.68,2,3.68,3.94Zm-1.7-2.62c-1.93,0-4.11.3-4.11,2.18a1.54,1.54,0,0,0,1.64,1.68,2.46,2.46,0,0,0,2.39-1.62,2,2,0,0,0,.08-.56Z"/><path class="cls-46" d="M1399.43,673.63c0-1,0-1.82-.08-2.62h1.54l.08,1.58h.06a3.35,3.35,0,0,1,3.07-1.78,2.85,2.85,0,0,1,2.72,1.94h0a3.82,3.82,0,0,1,1.1-1.26,3.25,3.25,0,0,1,2.12-.68c1.3,0,3.2.84,3.2,4.2v5.68h-1.72v-5.46c0-1.88-.7-3-2.1-3a2.31,2.31,0,0,0-2.1,1.58,3,3,0,0,0-.14.88v6h-1.72v-5.8c0-1.54-.68-2.64-2-2.64a2.43,2.43,0,0,0-2.18,1.76,2.35,2.35,0,0,0-.14.86v5.82h-1.72Z"/><path class="cls-46" d="M1417.09,676.17a3.09,3.09,0,0,0,3.33,3.36,6.3,6.3,0,0,0,2.68-.5l.32,1.26a7.89,7.89,0,0,1-3.24.62c-3,0-4.77-2-4.77-4.9s1.72-5.2,4.54-5.2c3.19,0,4,2.76,4,4.54a4.29,4.29,0,0,1-.06.82Zm5.17-1.26a2.5,2.5,0,0,0-2.45-2.84,2.88,2.88,0,0,0-2.7,2.84Z"/><path class="cls-46" d="M1434.47,666.48v11.71c0,.86,0,1.84.08,2.5H1433l-.08-1.68h-.07a3.48,3.48,0,0,1-3.26,1.9c-2.34,0-4.16-2-4.16-4.92,0-3.22,2-5.18,4.34-5.18a3.23,3.23,0,0,1,2.92,1.46h0v-5.79Zm-1.74,8.47a2.67,2.67,0,0,0-.08-.74,2.59,2.59,0,0,0-2.54-2c-1.82,0-2.9,1.6-2.9,3.72,0,2,1,3.58,2.86,3.58a2.77,2.77,0,0,0,2.66-2.86Z"/><path class="cls-46" d="M1439.37,668.29a1.06,1.06,0,0,1-1.12,1.08,1,1,0,0,1-1.06-1.08,1.09,1.09,0,1,1,2.18,0Zm-2,12.4V671h1.76v9.68Z"/><path class="cls-46" d="M1449,680.35a6.8,6.8,0,0,1-2.78.56,4.6,4.6,0,0,1-4.82-4.94,4.93,4.93,0,0,1,5.2-5.16,5.51,5.51,0,0,1,2.44.52l-.39,1.34a4.36,4.36,0,0,0-2.05-.46,3.36,3.36,0,0,0-3.42,3.66,3.32,3.32,0,0,0,3.36,3.62,5,5,0,0,0,2.16-.46Z"/><path class="cls-46" d="M1453,668.29a1.06,1.06,0,0,1-1.12,1.08,1,1,0,0,1-1.06-1.08,1.09,1.09,0,1,1,2.18,0Zm-2,12.4V671h1.76v9.68Z"/><path class="cls-46" d="M1464.5,675.77a4.75,4.75,0,0,1-4.83,5.14c-2.6,0-4.64-1.92-4.64-5,0-3.22,2.14-5.12,4.8-5.12S1464.5,672.83,1464.5,675.77Zm-7.67.1c0,2.12,1.2,3.72,2.92,3.72s2.94-1.58,2.94-3.76c0-1.64-.82-3.7-2.9-3.7S1456.83,674.05,1456.83,675.87Zm5.56-9-2.44,2.87h-1.24l1.74-2.87Z"/><path class="cls-46" d="M1466.71,673.63c0-1,0-1.82-.08-2.62h1.56l.1,1.6h0a3.58,3.58,0,0,1,3.2-1.8c1.34,0,3.42.8,3.42,4.12v5.76h-1.76v-5.58c0-1.56-.58-2.86-2.24-2.86a2.58,2.58,0,0,0-2.48,2.62v5.82h-1.76Z"/><path class="cls-46" d="M1490.39,666.48v11.71c0,.86,0,1.84.08,2.5h-1.56l-.08-1.68h-.06a3.5,3.5,0,0,1-3.26,1.9c-2.34,0-4.16-2-4.16-4.92,0-3.22,2-5.18,4.34-5.18a3.24,3.24,0,0,1,2.92,1.46h0v-5.79Zm-1.74,8.47a3.11,3.11,0,0,0-.08-.74,2.59,2.59,0,0,0-2.54-2c-1.82,0-2.9,1.6-2.9,3.72,0,2,1,3.58,2.86,3.58a2.67,2.67,0,0,0,2.58-2.1,3.06,3.06,0,0,0,.08-.76Z"/><path class="cls-46" d="M1494.31,676.17a3.09,3.09,0,0,0,3.32,3.36,6.3,6.3,0,0,0,2.68-.5l.32,1.26a7.89,7.89,0,0,1-3.24.62c-3,0-4.76-2-4.76-4.9s1.72-5.2,4.54-5.2c3.18,0,4,2.76,4,4.54a4.29,4.29,0,0,1-.06.82Zm5.16-1.26c0-1.1-.46-2.84-2.44-2.84a2.88,2.88,0,0,0-2.7,2.84Z"/><path class="cls-46" d="M1503.35,666.48h1.74v6.09h0a3.59,3.59,0,0,1,3.3-1.76c2.42,0,4.1,2,4.1,4.92,0,3.46-2.2,5.18-4.36,5.18a3.52,3.52,0,0,1-3.26-1.8h0l-.1,1.58h-1.5c0-.66.08-1.64.08-2.5Zm1.74,10.33a2.25,2.25,0,0,0,.08.64,2.7,2.7,0,0,0,2.64,2.06c1.86,0,2.94-1.5,2.94-3.72,0-1.94-1-3.6-2.9-3.6a2.82,2.82,0,0,0-2.66,2.16,2.76,2.76,0,0,0-.1.74Z"/><path class="cls-46" d="M1515.71,676.17a3.09,3.09,0,0,0,3.32,3.36,6.3,6.3,0,0,0,2.68-.5l.32,1.26a7.89,7.89,0,0,1-3.24.62c-3,0-4.76-2-4.76-4.9s1.72-5.2,4.54-5.2c3.18,0,4,2.76,4,4.54a4.29,4.29,0,0,1-.06.82Zm5.16-1.26c0-1.1-.46-2.84-2.44-2.84a2.88,2.88,0,0,0-2.7,2.84Z"/><path class="cls-46" d="M1529,674c0-1.14,0-2.12-.08-3h1.54l.08,1.92h.06a2.93,2.93,0,0,1,2.7-2.12,3.58,3.58,0,0,1,.48,0v1.66a2.74,2.74,0,0,0-.6,0,2.45,2.45,0,0,0-2.36,2.24,5.27,5.27,0,0,0-.06.82v5.16H1529Z"/><path class="cls-46" d="M1536.31,676.17a3.09,3.09,0,0,0,3.32,3.36,6.3,6.3,0,0,0,2.68-.5l.32,1.26a7.89,7.89,0,0,1-3.24.62c-3,0-4.76-2-4.76-4.9s1.72-5.2,4.54-5.2c3.18,0,4,2.76,4,4.54a4.29,4.29,0,0,1-.06.82Zm5.16-1.26c0-1.1-.46-2.84-2.44-2.84a2.88,2.88,0,0,0-2.7,2.84Z"/><path class="cls-46" d="M1552.15,678.37a16.24,16.24,0,0,0,.14,2.32h-1.58l-.14-1.22h-.06a3.61,3.61,0,0,1-3,1.44,2.76,2.76,0,0,1-3-2.78c0-2.34,2.08-3.62,5.82-3.6v-.2a2,2,0,0,0-2.2-2.22,4.66,4.66,0,0,0-2.54.72l-.4-1.18a6.27,6.27,0,0,1,3.2-.84c3,0,3.68,2,3.68,3.94Zm-1.7-2.62c-1.92,0-4.1.3-4.1,2.18a1.54,1.54,0,0,0,1.64,1.68,2.44,2.44,0,0,0,2.38-1.62,2,2,0,0,0,.08-.56Z"/><path class="cls-46" d="M1555,666.48h1.76v14.21H1555Z"/><path class="cls-46" d="M1561.67,668.29a1.06,1.06,0,0,1-1.12,1.08,1,1,0,0,1-1.06-1.08,1.09,1.09,0,1,1,2.18,0Zm-2,12.4V671h1.76v9.68Z"/><path class="cls-46" d="M1563.29,679.67l4.36-5.7c.44-.54.84-1,1.28-1.52v0h-5.24V671h7.36v1.1l-4.32,5.62c-.42.54-.8,1-1.24,1.52v0h5.64v1.4h-7.84Z"/><path class="cls-46" d="M1579.75,678.37a16.24,16.24,0,0,0,.14,2.32h-1.58l-.14-1.22h-.06a3.61,3.61,0,0,1-3,1.44,2.76,2.76,0,0,1-3-2.78c0-2.34,2.08-3.62,5.82-3.6v-.2a2,2,0,0,0-2.2-2.22,4.66,4.66,0,0,0-2.54.72l-.4-1.18a6.27,6.27,0,0,1,3.2-.84c3,0,3.68,2,3.68,3.94Zm-1.7-2.62c-1.92,0-4.1.3-4.1,2.18a1.54,1.54,0,0,0,1.64,1.68A2.44,2.44,0,0,0,1578,678a2,2,0,0,0,.08-.56Z"/><path class="cls-46" d="M1582.59,674c0-1.14,0-2.12-.08-3h1.54l.08,1.92h.06a2.93,2.93,0,0,1,2.7-2.12,3.58,3.58,0,0,1,.48,0v1.66a2.74,2.74,0,0,0-.6,0,2.45,2.45,0,0,0-2.36,2.24,5.27,5.27,0,0,0-.06.82v5.16h-1.76Z"/><path class="cls-46" d="M1588.89,678.91a5,5,0,0,0,2.34.68c1.26,0,1.86-.62,1.86-1.44s-.5-1.28-1.78-1.76c-1.76-.64-2.58-1.58-2.58-2.74,0-1.56,1.28-2.84,3.34-2.84a4.49,4.49,0,0,1,2.36.6l-.42,1.28a3.75,3.75,0,0,0-2-.58c-1,0-1.6.6-1.6,1.32s.56,1.16,1.82,1.66c1.66.62,2.54,1.46,2.54,2.9,0,1.72-1.34,2.92-3.6,2.92a5.52,5.52,0,0,1-2.72-.68Z"/><path class="cls-46" d="M1598,676.17a3.09,3.09,0,0,0,3.32,3.36,6.3,6.3,0,0,0,2.68-.5l.32,1.26a7.89,7.89,0,0,1-3.24.62c-3,0-4.76-2-4.76-4.9s1.72-5.2,4.54-5.2c3.18,0,4,2.76,4,4.54a4.29,4.29,0,0,1-.06.82Zm5.16-1.26c0-1.1-.46-2.84-2.44-2.84a2.88,2.88,0,0,0-2.7,2.84Z"/><path class="cls-46" d="M1618.11,678.37a16.24,16.24,0,0,0,.14,2.32h-1.58l-.14-1.22h-.06a3.61,3.61,0,0,1-3,1.44,2.76,2.76,0,0,1-3-2.78c0-2.34,2.08-3.62,5.82-3.6v-.2a2,2,0,0,0-2.2-2.22,4.66,4.66,0,0,0-2.54.72l-.4-1.18a6.27,6.27,0,0,1,3.2-.84c3,0,3.68,2,3.68,3.94Zm-1.7-2.62c-1.92,0-4.1.3-4.1,2.18a1.54,1.54,0,0,0,1.64,1.68,2.44,2.44,0,0,0,2.38-1.62,2,2,0,0,0,.08-.56Z"/><path class="cls-46" d="M1627.31,668.68V671h2.52v1.34h-2.52v5.22c0,1.2.34,1.88,1.32,1.88a3.29,3.29,0,0,0,1-.12l.08,1.34a4.8,4.8,0,0,1-1.56.24,2.51,2.51,0,0,1-1.9-.74,3.78,3.78,0,0,1-.68-2.54v-5.28h-1.5V671h1.5v-1.8Z"/><path class="cls-46" d="M1631.81,674c0-1.14,0-2.12-.08-3h1.54l.08,1.92h.06a2.93,2.93,0,0,1,2.7-2.12,3.58,3.58,0,0,1,.48,0v1.66a2.74,2.74,0,0,0-.6,0,2.45,2.45,0,0,0-2.36,2.24,5.27,5.27,0,0,0-.06.82v5.16h-1.76Z"/><path class="cls-46" d="M1645.05,678.37a16.24,16.24,0,0,0,.14,2.32h-1.58l-.14-1.22h-.06a3.61,3.61,0,0,1-3,1.44,2.76,2.76,0,0,1-3-2.78c0-2.34,2.08-3.62,5.82-3.6v-.2a2,2,0,0,0-2.2-2.22,4.66,4.66,0,0,0-2.54.72l-.4-1.18a6.27,6.27,0,0,1,3.2-.84c3,0,3.68,2,3.68,3.94Zm-1.7-2.62c-1.92,0-4.1.3-4.1,2.18a1.54,1.54,0,0,0,1.64,1.68,2.44,2.44,0,0,0,2.38-1.62,2,2,0,0,0,.08-.56Z"/><path class="cls-46" d="M1648.41,671l1.9,5.42c.32.9.58,1.7.78,2.5h.06c.22-.8.5-1.6.82-2.5l1.88-5.42h1.84l-3.8,9.68h-1.68l-3.68-9.68Z"/><path class="cls-46" d="M1658.13,676.17a3.09,3.09,0,0,0,3.32,3.36,6.3,6.3,0,0,0,2.68-.5l.32,1.26a7.89,7.89,0,0,1-3.24.62c-3,0-4.76-2-4.76-4.9s1.72-5.2,4.54-5.2c3.18,0,4,2.76,4,4.54a4.29,4.29,0,0,1-.06.82Zm5.16-1.26c0-1.1-.46-2.84-2.44-2.84a2.88,2.88,0,0,0-2.7,2.84Zm.4-8.09-2.44,2.87H1660l1.76-2.87Z"/><path class="cls-46" d="M1666.93,678.91a5,5,0,0,0,2.34.68c1.26,0,1.86-.62,1.86-1.44s-.5-1.28-1.78-1.76c-1.76-.64-2.58-1.58-2.58-2.74,0-1.56,1.28-2.84,3.34-2.84a4.49,4.49,0,0,1,2.36.6l-.42,1.28a3.75,3.75,0,0,0-2-.58c-1,0-1.6.6-1.6,1.32s.56,1.16,1.82,1.66c1.66.62,2.54,1.46,2.54,2.9,0,1.72-1.34,2.92-3.6,2.92a5.52,5.52,0,0,1-2.72-.68Z"/><path class="cls-46" d="M1335.53,690.48v11.71c0,.86,0,1.84.08,2.5h-1.56L1334,703h-.06a3.5,3.5,0,0,1-3.26,1.9c-2.35,0-4.17-2-4.17-4.92,0-3.22,2-5.18,4.35-5.18a3.24,3.24,0,0,1,2.92,1.46h0v-5.79Zm-1.74,8.47a3.11,3.11,0,0,0-.08-.74,2.59,2.59,0,0,0-2.54-2c-1.82,0-2.9,1.6-2.9,3.72,0,2,1,3.58,2.86,3.58a2.67,2.67,0,0,0,2.58-2.1,3.06,3.06,0,0,0,.08-.76Z"/><path class="cls-46" d="M1339.45,700.17a3.09,3.09,0,0,0,3.32,3.36,6.3,6.3,0,0,0,2.68-.5l.32,1.26a7.89,7.89,0,0,1-3.24.62c-3,0-4.77-2-4.77-4.9s1.73-5.2,4.55-5.2c3.18,0,4,2.76,4,4.54a4.29,4.29,0,0,1-.06.82Zm5.16-1.26c0-1.1-.46-2.84-2.44-2.84a2.88,2.88,0,0,0-2.7,2.84Z"/><path class="cls-46" d="M1360.83,702c0,1,0,1.9.08,2.66h-1.56l-.1-1.58h0a3.62,3.62,0,0,1-3.2,1.8c-1.52,0-3.34-.86-3.34-4.24V695h1.76v5.34c0,1.84.58,3.1,2.16,3.1a2.53,2.53,0,0,0,2.32-1.62,2.41,2.41,0,0,0,.16-.9V695h1.76Z"/><path class="cls-46" d="M1363.74,697.63c0-1,0-1.82-.08-2.62h1.56l.11,1.6h0a3.58,3.58,0,0,1,3.2-1.8c1.34,0,3.42.8,3.42,4.12v5.76h-1.76v-5.58c0-1.56-.58-2.86-2.24-2.86a2.58,2.58,0,0,0-2.48,2.62v5.82h-1.77Z"/><path class="cls-46" d="M1386,704.35a6.8,6.8,0,0,1-2.78.56,4.6,4.6,0,0,1-4.83-4.94,4.94,4.94,0,0,1,5.21-5.16,5.54,5.54,0,0,1,2.44.52l-.4,1.34a4.31,4.31,0,0,0-2-.46,3.36,3.36,0,0,0-3.42,3.66,3.31,3.31,0,0,0,3.36,3.62,5,5,0,0,0,2.16-.46Z"/><path class="cls-46" d="M1394.85,702.37a16.24,16.24,0,0,0,.14,2.32h-1.58l-.14-1.22h-.06a3.61,3.61,0,0,1-3,1.44,2.76,2.76,0,0,1-3-2.78c0-2.34,2.08-3.62,5.83-3.6v-.2a2,2,0,0,0-2.2-2.22,4.7,4.7,0,0,0-2.55.72l-.4-1.18a6.28,6.28,0,0,1,3.21-.84c3,0,3.68,2,3.68,3.94Zm-1.7-2.62c-1.93,0-4.1.3-4.1,2.18a1.53,1.53,0,0,0,1.63,1.68,2.45,2.45,0,0,0,2.39-1.62,2,2,0,0,0,.08-.56Z"/><path class="cls-46" d="M1397.68,690.48h1.75v6.09h0a3.6,3.6,0,0,1,3.3-1.76c2.43,0,4.11,2,4.11,4.92,0,3.46-2.2,5.18-4.36,5.18a3.52,3.52,0,0,1-3.27-1.8h0l-.1,1.58h-1.5c0-.66.08-1.64.08-2.5Zm1.75,10.33a2.25,2.25,0,0,0,.07.64,2.7,2.7,0,0,0,2.64,2.06c1.87,0,2.95-1.5,2.95-3.72,0-1.94-1-3.6-2.91-3.6a2.84,2.84,0,0,0-2.66,2.16,2.78,2.78,0,0,0-.09.74Z"/><path class="cls-46" d="M1409.06,690.48h1.76v14.21h-1.76Z"/><path class="cls-46" d="M1414.76,700.17a3.09,3.09,0,0,0,3.33,3.36,6.21,6.21,0,0,0,2.67-.5l.33,1.26a7.89,7.89,0,0,1-3.24.62c-3,0-4.77-2-4.77-4.9s1.72-5.2,4.54-5.2c3.18,0,4,2.76,4,4.54a4.29,4.29,0,0,1-.06.82Zm5.17-1.26a2.5,2.5,0,0,0-2.45-2.84,2.88,2.88,0,0,0-2.7,2.84Z"/><path class="cls-46" d="M1436.39,690.48v11.71c0,.86,0,1.84.08,2.5h-1.56l-.08-1.68h-.07a3.48,3.48,0,0,1-3.26,1.9c-2.34,0-4.16-2-4.16-4.92,0-3.22,2-5.18,4.34-5.18a3.23,3.23,0,0,1,2.92,1.46h0v-5.79Zm-1.75,8.47a2.67,2.67,0,0,0-.08-.74,2.58,2.58,0,0,0-2.54-2c-1.82,0-2.9,1.6-2.9,3.72,0,2,1,3.58,2.86,3.58a2.77,2.77,0,0,0,2.66-2.86Z"/><path class="cls-46" d="M1440.3,700.17a3.09,3.09,0,0,0,3.32,3.36,6.23,6.23,0,0,0,2.68-.5l.33,1.26a7.89,7.89,0,0,1-3.24.62c-3,0-4.77-2-4.77-4.9s1.72-5.2,4.54-5.2c3.19,0,4,2.76,4,4.54a4.29,4.29,0,0,1-.06.82Zm5.17-1.26a2.5,2.5,0,0,0-2.45-2.84,2.88,2.88,0,0,0-2.7,2.84Z"/><path class="cls-46" d="M1453.58,698c0-1.14,0-2.12-.08-3H1455l.08,1.92h.06a2.93,2.93,0,0,1,2.7-2.12,3.58,3.58,0,0,1,.48,0v1.66a2.74,2.74,0,0,0-.6,0,2.45,2.45,0,0,0-2.36,2.24,5.27,5.27,0,0,0-.06.82v5.16h-1.76Z"/><path class="cls-46" d="M1460.9,700.17a3.09,3.09,0,0,0,3.32,3.36,6.3,6.3,0,0,0,2.68-.5l.32,1.26a7.89,7.89,0,0,1-3.24.62c-3,0-4.76-2-4.76-4.9s1.72-5.2,4.54-5.2c3.18,0,4,2.76,4,4.54a4.45,4.45,0,0,1,0,.82Zm5.16-1.26a2.49,2.49,0,0,0-2.44-2.84,2.88,2.88,0,0,0-2.7,2.84Z"/><path class="cls-46" d="M1478.28,690.48v11.71c0,.86,0,1.84.08,2.5h-1.56l-.08-1.68h-.06a3.5,3.5,0,0,1-3.26,1.9c-2.34,0-4.16-2-4.16-4.92,0-3.22,2-5.18,4.34-5.18a3.24,3.24,0,0,1,2.92,1.46h0v-5.79Zm-1.74,8.47a3.11,3.11,0,0,0-.08-.74,2.59,2.59,0,0,0-2.54-2c-1.82,0-2.9,1.6-2.9,3.72,0,2,1,3.58,2.86,3.58a2.67,2.67,0,0,0,2.58-2.1,3.06,3.06,0,0,0,.08-.76Z"/><path class="cls-46" d="M1492.36,704.35a6.76,6.76,0,0,1-2.78.56,4.6,4.6,0,0,1-4.82-4.94,4.93,4.93,0,0,1,5.2-5.16,5.47,5.47,0,0,1,2.44.52l-.39,1.34a4.32,4.32,0,0,0-2-.46,3.36,3.36,0,0,0-3.42,3.66,3.32,3.32,0,0,0,3.36,3.62,5,5,0,0,0,2.16-.46Z"/><path class="cls-46" d="M1503.07,699.77a4.75,4.75,0,0,1-4.83,5.14c-2.6,0-4.64-1.92-4.64-5,0-3.22,2.14-5.12,4.8-5.12S1503.07,696.83,1503.07,699.77Zm-7.67.1c0,2.12,1.2,3.72,2.92,3.72s2.94-1.58,2.94-3.76c0-1.64-.82-3.7-2.9-3.7S1495.4,698.05,1495.4,699.87Z"/><path class="cls-46" d="M1505.28,697.63c0-1,0-1.82-.08-2.62h1.56l.1,1.6h0a3.58,3.58,0,0,1,3.2-1.8c1.35,0,3.43.8,3.43,4.12v5.76h-1.77v-5.58c0-1.56-.58-2.86-2.24-2.86a2.58,2.58,0,0,0-2.48,2.62v5.82h-1.76Z"/><path class="cls-46" d="M1528.73,702c0,1,0,1.9.07,2.66h-1.55l-.11-1.58h0a3.6,3.6,0,0,1-3.2,1.8c-1.52,0-3.34-.86-3.34-4.24V695h1.76v5.34c0,1.84.58,3.1,2.16,3.1a2.53,2.53,0,0,0,2.32-1.62,2.41,2.41,0,0,0,.17-.9V695h1.76Z"/><path class="cls-46" d="M1531.64,697.63c0-1,0-1.82-.08-2.62h1.56l.1,1.6h0a3.58,3.58,0,0,1,3.2-1.8c1.34,0,3.43.8,3.43,4.12v5.76h-1.77v-5.58c0-1.56-.58-2.86-2.24-2.86a2.58,2.58,0,0,0-2.48,2.62v5.82h-1.76Z"/><path class="cls-46" d="M1546.74,702.91a5,5,0,0,0,2.34.68c1.26,0,1.86-.62,1.86-1.44s-.5-1.28-1.78-1.76c-1.76-.64-2.58-1.58-2.58-2.74,0-1.56,1.28-2.84,3.34-2.84a4.49,4.49,0,0,1,2.36.6l-.42,1.28a3.75,3.75,0,0,0-2-.58c-1,0-1.6.6-1.6,1.32s.56,1.16,1.82,1.66c1.66.62,2.54,1.46,2.54,2.9,0,1.72-1.34,2.92-3.6,2.92a5.52,5.52,0,0,1-2.72-.68Z"/><path class="cls-46" d="M1563.67,699.77a4.75,4.75,0,0,1-4.83,5.14c-2.6,0-4.64-1.92-4.64-5,0-3.22,2.14-5.12,4.8-5.12S1563.67,696.83,1563.67,699.77Zm-7.67.1c0,2.12,1.2,3.72,2.92,3.72s2.94-1.58,2.94-3.76c0-1.64-.82-3.7-2.9-3.7S1556,698.05,1556,699.87Z"/><path class="cls-46" d="M1565.88,690.48h1.76v14.21h-1.76Z"/><path class="cls-46" d="M1579.36,699.77a4.74,4.74,0,0,1-4.82,5.14c-2.6,0-4.64-1.92-4.64-5,0-3.22,2.14-5.12,4.8-5.12S1579.36,696.83,1579.36,699.77Zm-7.66.1c0,2.12,1.2,3.72,2.92,3.72s2.94-1.58,2.94-3.76c0-1.64-.82-3.7-2.9-3.7S1571.7,698.05,1571.7,699.87Z"/><path class="cls-46" d="M1586.8,700.17a3.09,3.09,0,0,0,3.32,3.36,6.3,6.3,0,0,0,2.68-.5l.32,1.26a7.89,7.89,0,0,1-3.24.62c-3,0-4.76-2-4.76-4.9s1.72-5.2,4.54-5.2c3.18,0,4,2.76,4,4.54a4.29,4.29,0,0,1-.06.82Zm5.16-1.26c0-1.1-.46-2.84-2.44-2.84a2.88,2.88,0,0,0-2.7,2.84Z"/><path class="cls-46" d="M1602.44,703.21h0a3.49,3.49,0,0,1-3.16,1.7c-2.26,0-4.1-1.94-4.1-4.88,0-3.64,2.34-5.22,4.38-5.22a3.2,3.2,0,0,1,3,1.66h0l.06-1.46h1.66c0,.8-.08,1.66-.08,2.66v11h-1.74Zm0-4.28a2.84,2.84,0,0,0-.08-.72,2.59,2.59,0,0,0-2.52-2c-1.82,0-2.92,1.54-2.92,3.7,0,1.94.92,3.6,2.86,3.6a2.63,2.63,0,0,0,2.52-1.9,3.22,3.22,0,0,0,.14-.86Z"/><path class="cls-46" d="M1615.2,702c0,1,0,1.9.08,2.66h-1.56l-.1-1.58h0a3.62,3.62,0,0,1-3.2,1.8c-1.52,0-3.34-.86-3.34-4.24V695h1.76v5.34c0,1.84.58,3.1,2.16,3.1a2.53,2.53,0,0,0,2.32-1.62,2.41,2.41,0,0,0,.16-.9V695h1.76Z"/><path class="cls-46" d="M1620.08,692.29a1.06,1.06,0,0,1-1.12,1.08,1,1,0,0,1-1.06-1.08,1.09,1.09,0,1,1,2.18,0Zm-2,12.4V695h1.76v9.68Z"/><path class="cls-46" d="M1622.8,698.17c0-1.24,0-2.24-.08-3.16h1.56l.1,1.66h0a3.77,3.77,0,0,1,3.44-1.86c2.36,0,4.12,2,4.12,4.9,0,3.48-2.14,5.2-4.42,5.2a3.39,3.39,0,0,1-3-1.52h0v5.26h-1.74Zm1.74,2.58a2.72,2.72,0,0,0,2.72,2.78c1.86,0,2.94-1.52,2.94-3.74,0-1.92-1-3.58-2.88-3.58a2.77,2.77,0,0,0-2.66,2.16,2.85,2.85,0,0,0-.12.7Z"/><path class="cls-46" d="M1642.94,699.77a4.74,4.74,0,0,1-4.82,5.14c-2.6,0-4.64-1.92-4.64-5,0-3.22,2.14-5.12,4.8-5.12S1642.94,696.83,1642.94,699.77Zm-7.66.1c0,2.12,1.2,3.72,2.92,3.72s2.94-1.58,2.94-3.76c0-1.64-.82-3.7-2.9-3.7S1635.28,698.05,1635.28,699.87Z"/><path class="cls-46" d="M1656.3,704.35a6.8,6.8,0,0,1-2.78.56,4.6,4.6,0,0,1-4.82-4.94,4.93,4.93,0,0,1,5.2-5.16,5.54,5.54,0,0,1,2.44.52l-.4,1.34a4.31,4.31,0,0,0-2-.46,3.36,3.36,0,0,0-3.42,3.66,3.32,3.32,0,0,0,3.36,3.62A5,5,0,0,0,1656,703Z"/><path class="cls-46" d="M1667,699.77a4.74,4.74,0,0,1-4.82,5.14c-2.6,0-4.64-1.92-4.64-5,0-3.22,2.14-5.12,4.8-5.12S1667,696.83,1667,699.77Zm-7.66.1c0,2.12,1.2,3.72,2.92,3.72s2.94-1.58,2.94-3.76c0-1.64-.82-3.7-2.9-3.7S1659.34,698.05,1659.34,699.87Z"/><path class="cls-46" d="M1673.3,698.65v1.28h-4.94v-1.28Z"/><path class="cls-46" d="M1405.22,721.63c0-1,0-1.82-.08-2.62h1.56l.1,1.6h0a3.56,3.56,0,0,1,3.2-1.8c1.34,0,3.42.8,3.42,4.12v5.76h-1.76v-5.58c0-1.56-.58-2.86-2.24-2.86a2.58,2.58,0,0,0-2.49,2.62v5.82h-1.76Z"/><path class="cls-46" d="M1417.3,724.17a3.09,3.09,0,0,0,3.32,3.36,6.23,6.23,0,0,0,2.68-.5l.33,1.26a7.89,7.89,0,0,1-3.24.62c-3,0-4.77-2-4.77-4.9s1.72-5.2,4.54-5.2c3.19,0,4,2.76,4,4.54a4.29,4.29,0,0,1-.06.82Zm5.17-1.26a2.5,2.5,0,0,0-2.45-2.84,2.88,2.88,0,0,0-2.7,2.84Z"/><path class="cls-46" d="M1433.24,728.35a6.8,6.8,0,0,1-2.78.56,4.6,4.6,0,0,1-4.82-4.94,4.93,4.93,0,0,1,5.2-5.16,5.51,5.51,0,0,1,2.44.52l-.39,1.34a4.36,4.36,0,0,0-2.05-.46,3.36,3.36,0,0,0-3.42,3.66,3.32,3.32,0,0,0,3.36,3.62,5,5,0,0,0,2.16-.46Z"/><path class="cls-46" d="M1437.68,716.68V719h2.52v1.34h-2.52v5.22c0,1.2.34,1.88,1.32,1.88a3.29,3.29,0,0,0,1-.12l.08,1.34a4.8,4.8,0,0,1-1.56.24,2.51,2.51,0,0,1-1.9-.74,3.78,3.78,0,0,1-.68-2.54v-5.28h-1.5V719h1.5v-1.8Z"/><path class="cls-46" d="M1449,726.37a16.24,16.24,0,0,0,.14,2.32h-1.58l-.14-1.22h-.06a3.61,3.61,0,0,1-3,1.44,2.76,2.76,0,0,1-3-2.78c0-2.34,2.08-3.62,5.82-3.6v-.2a2,2,0,0,0-2.2-2.22,4.66,4.66,0,0,0-2.54.72l-.4-1.18a6.27,6.27,0,0,1,3.2-.84c3,0,3.68,2,3.68,3.94Zm-1.7-2.62c-1.92,0-4.1.3-4.1,2.18a1.54,1.54,0,0,0,1.64,1.68,2.44,2.44,0,0,0,2.38-1.62,2,2,0,0,0,.08-.56Z"/><path class="cls-46" d="M1460.16,714.48v11.71c0,.86,0,1.84.08,2.5h-1.56l-.08-1.68h-.06a3.5,3.5,0,0,1-3.26,1.9c-2.34,0-4.16-2-4.16-4.92,0-3.22,2-5.18,4.34-5.18a3.24,3.24,0,0,1,2.92,1.46h0v-5.79Zm-1.74,8.47a3.11,3.11,0,0,0-.08-.74,2.59,2.59,0,0,0-2.54-2c-1.82,0-2.9,1.6-2.9,3.72,0,2,1,3.58,2.86,3.58a2.67,2.67,0,0,0,2.58-2.1,3.06,3.06,0,0,0,.08-.76Z"/><path class="cls-46" d="M1471.87,723.77a4.75,4.75,0,0,1-4.83,5.14c-2.6,0-4.64-1.92-4.64-5,0-3.22,2.14-5.12,4.8-5.12S1471.87,720.83,1471.87,723.77Zm-7.67.1c0,2.12,1.2,3.72,2.92,3.72s2.94-1.58,2.94-3.76c0-1.64-.82-3.7-2.9-3.7S1464.2,722.05,1464.2,723.87Z"/><path class="cls-46" d="M1485.12,726.37a16.24,16.24,0,0,0,.14,2.32h-1.58l-.14-1.22h-.06a3.61,3.61,0,0,1-3,1.44,2.76,2.76,0,0,1-3-2.78c0-2.34,2.08-3.62,5.82-3.6v-.2a2,2,0,0,0-2.2-2.22,4.66,4.66,0,0,0-2.54.72l-.4-1.18a6.27,6.27,0,0,1,3.2-.84c3,0,3.68,2,3.68,3.94Zm-1.7-2.62c-1.92,0-4.1.3-4.1,2.18a1.54,1.54,0,0,0,1.64,1.68,2.44,2.44,0,0,0,2.38-1.62,2,2,0,0,0,.08-.56Z"/><path class="cls-46" d="M1492.2,721.63c0-1,0-1.82-.08-2.62h1.56l.1,1.6h0a3.58,3.58,0,0,1,3.2-1.8c1.34,0,3.42.8,3.42,4.12v5.76h-1.76v-5.58c0-1.56-.58-2.86-2.24-2.86a2.58,2.58,0,0,0-2.48,2.62v5.82h-1.76Z"/><path class="cls-46" d="M1511.4,726c0,1,0,1.9.08,2.66h-1.56l-.1-1.58h0a3.62,3.62,0,0,1-3.2,1.8c-1.52,0-3.34-.86-3.34-4.24V719H1505v5.34c0,1.84.58,3.1,2.16,3.1a2.53,2.53,0,0,0,2.32-1.62,2.41,2.41,0,0,0,.16-.9V719h1.76Z"/><path class="cls-46" d="M1515.3,724.17a3.09,3.09,0,0,0,3.32,3.36,6.3,6.3,0,0,0,2.68-.5l.32,1.26a7.89,7.89,0,0,1-3.24.62c-3,0-4.76-2-4.76-4.9s1.72-5.2,4.54-5.2c3.18,0,4,2.76,4,4.54a4.29,4.29,0,0,1-.06.82Zm5.16-1.26c0-1.1-.46-2.84-2.44-2.84a2.88,2.88,0,0,0-2.7,2.84Z"/><path class="cls-46" d="M1524.1,726.91a5,5,0,0,0,2.34.68c1.26,0,1.86-.62,1.86-1.44s-.5-1.28-1.78-1.76c-1.76-.64-2.58-1.58-2.58-2.74,0-1.56,1.28-2.84,3.34-2.84a4.49,4.49,0,0,1,2.36.6l-.42,1.28a3.75,3.75,0,0,0-2-.58c-1,0-1.6.6-1.6,1.32s.56,1.16,1.82,1.66c1.66.62,2.54,1.46,2.54,2.9,0,1.72-1.34,2.92-3.6,2.92a5.52,5.52,0,0,1-2.72-.68Z"/><path class="cls-46" d="M1534.38,716.68V719h2.52v1.34h-2.52v5.22c0,1.2.34,1.88,1.32,1.88a3.29,3.29,0,0,0,1-.12l.08,1.34a4.8,4.8,0,0,1-1.56.24,2.51,2.51,0,0,1-1.9-.74,3.78,3.78,0,0,1-.68-2.54v-5.28h-1.5V719h1.5v-1.8Z"/><path class="cls-46" d="M1538.88,722c0-1.14,0-2.12-.08-3h1.54l.08,1.92h.06a2.93,2.93,0,0,1,2.7-2.12,3.58,3.58,0,0,1,.48,0v1.66a2.74,2.74,0,0,0-.6,0,2.45,2.45,0,0,0-2.36,2.24,5.27,5.27,0,0,0-.06.82v5.16h-1.76Z"/><path class="cls-46" d="M1554,723.77a4.74,4.74,0,0,1-4.82,5.14c-2.6,0-4.64-1.92-4.64-5,0-3.22,2.14-5.12,4.8-5.12S1554,720.83,1554,723.77Zm-7.66.1c0,2.12,1.2,3.72,2.92,3.72s2.94-1.58,2.94-3.76c0-1.64-.82-3.7-2.9-3.7S1546.32,722.05,1546.32,723.87Z"/><path class="cls-46" d="M1572,721.81c0,4.62-2.82,7.1-6.26,7.1s-6.06-2.78-6.06-6.86c0-4.28,2.64-7.09,6.24-7.09S1572,717.79,1572,721.81Zm-10.48.2c0,2.9,1.56,5.48,4.32,5.48s4.32-2.54,4.32-5.6c0-2.7-1.4-5.51-4.3-5.51S1561.54,719.07,1561.54,722Z"/><path class="cls-46" d="M1574.28,728.69V715.21h1.92l4.3,6.82a37.8,37.8,0,0,1,2.4,4.38l.06,0c-.16-1.8-.2-3.44-.2-5.54v-5.64h1.64v13.48h-1.76l-4.28-6.84a38.5,38.5,0,0,1-2.5-4.51l-.06,0c.1,1.7.12,3.32.12,5.56v5.76Z"/><path class="cls-46" d="M1590,716.68h-4.1v-1.47h10v1.47h-4.12v12H1590Z"/></svg>